<svg width="24" height="24" viewBox="0 0 24 24" fill="none" xmlns="http://www.w3.org/2000/svg">
<path d="M11.5441 1.76502L8.62755 7.85052L1.93905 8.74402C1.51855 8.80002 1.35005 9.31803 1.65755 9.61053L6.54405 14.2645L5.32655 20.902C5.25005 21.3195 5.69056 21.6395 6.06405 21.438L12.0001 18.229L17.9366 21.438C18.3101 21.64 18.7506 21.3195 18.6741 20.902L17.4561 14.265L22.3426 9.61102C22.6496 9.31852 22.4816 8.80052 22.0611 8.74402L15.3721 7.85102L12.4561 1.76502C12.2726 1.38252 11.7276 1.38252 11.5441 1.76502Z" fill="#FFDE36"/>
<path d="M11.5467 1.84944L8.65566 7.88194L2.02516 8.76744C1.60816 8.82294 1.44116 9.33694 1.74616 9.62694L6.59016 14.2404L5.38316 20.8204C5.30716 21.2339 5.74416 21.5514 6.11416 21.3514L11.9987 18.1704L17.8837 21.3514C18.2537 21.5514 18.6907 21.2339 18.6147 20.8204L17.4077 14.2404L22.2517 9.62694C22.5562 9.33694 22.3892 8.82344 21.9727 8.76744L15.3422 7.88194L12.4507 1.84944C12.2687 1.47044 11.7287 1.47044 11.5467 1.84944Z" fill="#FFDD35"/>
<path d="M11.5531 1.93398L8.68758 7.91348L2.11508 8.79148C1.70158 8.84648 1.53658 9.35598 1.83808 9.64348L6.63958 14.217L5.44308 20.739C5.36808 21.149 5.80108 21.4635 6.16758 21.2655L12.0011 18.112L17.8341 21.2655C18.2011 21.464 18.6341 21.149 18.5586 20.739L17.3621 14.217L22.1636 9.64348C22.4656 9.35598 22.3001 8.84698 21.8866 8.79148L15.3141 7.91398L12.4491 1.93398C12.2686 1.55798 11.7336 1.55798 11.5531 1.93398Z" fill="#FFDC34"/>
<path d="M11.5561 2.01851L8.71556 7.94551L2.20106 8.81551C1.79156 8.87001 1.62756 9.37501 1.92656 9.66001L6.68556 14.193L5.50006 20.657C5.42556 21.0635 5.85456 21.3755 6.21806 21.179L12.0001 18.0535L17.7816 21.179C18.1451 21.3755 18.5746 21.0635 18.4996 20.657L17.3136 14.1925L22.0726 9.65951C22.3716 9.37451 22.2081 8.87001 21.7981 8.81501L15.2836 7.94501L12.4441 2.01851C12.2656 1.64601 11.7346 1.64601 11.5561 2.01851Z" fill="#FFDB33"/>
<path d="M11.5587 2.10305L8.74367 7.97705L2.28717 8.83905C1.88117 8.89305 1.71867 9.39355 2.01517 9.67605L6.73167 14.1686L5.55667 20.5751C5.48267 20.9781 5.90817 21.2871 6.26867 21.0921L11.9987 17.9951L17.7287 21.0926C18.0892 21.2876 18.5142 20.9781 18.4407 20.5756L17.2652 14.1686L21.9817 9.67605C22.2782 9.39355 22.1157 8.89355 21.7097 8.83905L15.2537 7.97705L12.4387 2.10305C12.2617 1.73355 11.7357 1.73355 11.5587 2.10305Z" fill="#FFDA32"/>
<path d="M11.5652 2.18746L8.77568 8.00846L2.37718 8.86296C1.97468 8.91646 1.81368 9.41246 2.10768 9.69246L6.78168 14.1445L5.61718 20.4935C5.54418 20.8925 5.96568 21.199 6.32268 21.006L12.0012 17.9365L17.6797 21.006C18.0367 21.199 18.4582 20.8925 18.3852 20.4935L17.2207 14.1445L21.8947 9.69246C22.1887 9.41246 22.0277 8.91696 21.6252 8.86296L15.2267 8.00846L12.4372 2.18746C12.2617 1.82146 11.7407 1.82146 11.5652 2.18746Z" fill="#FFD932"/>
<path d="M11.5674 2.272L8.80294 8.0405L2.46294 8.887C2.06444 8.94 1.90494 9.4315 2.19594 9.7085L6.82794 14.12L5.67394 20.4115C5.60144 20.807 6.01894 21.1105 6.37294 20.9195L11.9994 17.8775L17.6264 20.9195C17.9804 21.111 18.3979 20.807 18.3254 20.4115L17.1714 14.12L21.8034 9.7085C22.0944 9.431 21.9349 8.94 21.5364 8.887L15.1964 8.0405L12.4314 2.272C12.2574 1.9095 11.7414 1.9095 11.5674 2.272Z" fill="#FFD831"/>
<path d="M11.57 2.35654L8.83104 8.07204L2.54904 8.91054C2.15404 8.96304 1.99604 9.45004 2.28454 9.72454L6.87404 14.0955L5.73004 20.33C5.65804 20.722 6.07204 21.0225 6.42254 20.833L11.998 17.819L17.5735 20.833C17.924 21.0225 18.338 20.722 18.266 20.33L17.1225 14.096L21.712 9.72504C22.0005 9.45004 21.8425 8.96354 21.4475 8.91104L15.1655 8.07204L12.426 2.35654C12.254 1.99704 11.742 1.99704 11.57 2.35654Z" fill="#FFD730"/>
<path d="M11.5771 2.44107L8.86355 8.10357L2.63905 8.93457C2.24755 8.98707 2.09105 9.46907 2.37705 9.74107L6.92405 14.0716L5.79105 20.2481C5.72005 20.6366 6.13005 20.9346 6.47705 20.7466L12.0011 17.7606L17.5251 20.7466C17.8726 20.9346 18.2826 20.6366 18.2111 20.2481L17.0781 14.0721L21.6251 9.74157C21.9111 9.46907 21.7541 8.98707 21.3631 8.93507L15.1391 8.10407L12.4251 2.44107C12.2546 2.08507 11.7476 2.08507 11.5771 2.44107Z" fill="#FFD62F"/>
<path d="M11.5795 2.52549L8.89104 8.13499L2.72504 8.95849C2.33754 9.01049 2.18204 9.48799 2.46554 9.75749L6.97004 14.048L5.84754 20.1665C5.77704 20.551 6.18303 20.8465 6.52753 20.6605L11.9995 17.702L17.472 20.66C17.816 20.846 18.2225 20.551 18.152 20.166L17.0295 14.0475L21.534 9.75699C21.817 9.48699 21.662 9.00949 21.2745 8.95799L15.108 8.13499L12.4195 2.52549C12.2505 2.17249 11.7485 2.17249 11.5795 2.52549Z" fill="#FFD52E"/>
<path d="M11.5821 2.61003L8.91914 8.16702L2.81114 8.98202C2.42714 9.03352 2.27314 9.50653 2.55414 9.77352L7.01614 14.0235L5.90414 20.0845C5.83414 20.4655 6.23664 20.758 6.57764 20.5735L11.9981 17.6435L17.4186 20.574C17.7596 20.758 18.1621 20.466 18.0921 20.085L16.9801 14.024L21.4421 9.77402C21.7226 9.50702 21.5691 9.03352 21.1851 8.98252L15.0771 8.16702L12.4141 2.61003C12.2466 2.26053 11.7496 2.26053 11.5821 2.61003Z" fill="#FFD42D"/>
<path d="M11.5886 2.69445L8.95056 8.19844L2.90106 9.00594C2.52056 9.05694 2.36856 9.52544 2.64606 9.78995L7.06556 13.9994L5.96456 20.0029C5.89556 20.3804 6.29406 20.6699 6.63156 20.4874L12.0006 17.5849L17.3696 20.4874C17.7071 20.6699 18.1056 20.3804 18.0366 20.0029L16.9356 13.9994L21.3551 9.78995C21.6331 9.52544 21.4806 9.05644 21.1001 9.00594L15.0506 8.19844L12.4126 2.69445C12.2471 2.34795 11.7541 2.34795 11.5886 2.69445Z" fill="#FFD32C"/>
<path d="M11.5905 2.77848L8.97855 8.22998L2.98705 9.02998C2.61055 9.08048 2.45955 9.54448 2.73455 9.80648L7.11155 13.9755L6.02105 19.921C5.95255 20.295 6.34705 20.5815 6.68155 20.401L11.999 17.5265L17.3165 20.401C17.651 20.5815 18.0455 20.295 17.977 19.921L16.8865 13.9755L21.2635 9.80648C21.5385 9.54448 21.388 9.08048 21.011 9.02998L15.0195 8.22998L12.4075 2.77848C12.243 2.43598 11.755 2.43598 11.5905 2.77848Z" fill="#FFD22B"/>
<path d="M11.5936 2.86301L9.00665 8.26151L3.07315 9.05401C2.70015 9.10401 2.55065 9.56351 2.82315 9.82301L7.15765 13.9515L6.07765 19.8395C6.00965 20.2095 6.40065 20.494 6.73165 20.315L11.9981 17.468L17.2641 20.3145C17.5951 20.4935 17.9861 20.2095 17.9181 19.839L16.8381 13.951L21.1726 9.82251C21.4451 9.56301 21.2956 9.10351 20.9226 9.05351L14.9891 8.26101L12.4026 2.86301C12.2396 2.52401 11.7566 2.52401 11.5936 2.86301Z" fill="#FFD12A"/>
<path d="M11.6002 2.94756L9.03866 8.29306L3.16316 9.07756C2.79366 9.12706 2.64566 9.58206 2.91566 9.83906L7.20766 13.9271L6.13816 19.7576C6.07116 20.1241 6.45816 20.4056 6.78616 20.2281L12.0007 17.4096L17.2152 20.2286C17.5432 20.4056 17.9302 20.1246 17.8632 19.7581L16.7937 13.9276L21.0857 9.83956C21.3557 9.58256 21.2077 9.12756 20.8382 9.07806L14.9627 8.29356L12.4012 2.94756C12.2402 2.61156 11.7612 2.61156 11.6002 2.94756Z" fill="#FFD02A"/>
<path d="M11.6025 3.03197L9.06604 8.32447L3.24904 9.10147C2.88304 9.15047 2.73704 9.60097 3.00404 9.85547L7.25404 13.9035L6.19504 19.676C6.12854 20.039 6.51154 20.3175 6.83654 20.142L11.999 17.351L17.162 20.142C17.4865 20.3175 17.87 20.039 17.8035 19.676L16.7445 13.9035L20.9945 9.85547C21.2615 9.60097 21.1155 9.15047 20.7495 9.10147L14.932 8.32497L12.3955 3.03197C12.236 2.69947 11.762 2.69947 11.6025 3.03197Z" fill="#FFCF29"/>
<path d="M11.6094 3.11645L9.09841 8.35645L3.33941 9.12545C2.97691 9.17345 2.83191 9.61995 3.09641 9.87145L7.30391 13.879L6.25541 19.594C6.18941 19.9535 6.56891 20.229 6.89041 20.0555L12.0019 17.2924L17.1134 20.0555C17.4349 20.229 17.8144 19.9535 17.7484 19.594L16.6999 13.879L20.9074 9.87145C21.1719 9.61945 21.0269 9.17345 20.6649 9.12495L14.9054 8.35595L12.3944 3.11595C12.2364 2.78695 11.7674 2.78695 11.6094 3.11645Z" fill="#FFCE28"/>
<path d="M11.612 3.20104L9.12653 8.38804L3.42503 9.14904C3.06653 9.19704 2.92303 9.63854 3.18503 9.88804L7.35003 13.855L6.31203 19.5125C6.24653 19.868 6.62253 20.141 6.94053 19.969L12.0005 17.234L17.0605 19.969C17.3785 20.141 17.7545 19.868 17.689 19.5125L16.651 13.855L20.816 9.88804C21.078 9.63854 20.9345 9.19704 20.576 9.14904L14.875 8.38804L12.389 3.20104C12.2325 2.87504 11.7685 2.87504 11.612 3.20104Z" fill="#FFCD27"/>
<path d="M11.6146 3.28546L9.15414 8.41946L3.51114 9.17296C3.15614 9.22046 3.01414 9.65746 3.27364 9.90446L7.39614 13.831L6.36914 19.4305C6.30464 19.7825 6.67614 20.0525 6.99114 19.8825L11.9991 17.175L17.0071 19.8825C17.3221 20.0525 17.6936 19.7825 17.6291 19.4305L16.6021 13.831L20.7246 9.90446C20.9836 9.65746 20.8416 9.22046 20.4871 9.17296L14.8441 8.41946L12.3836 3.28546C12.2291 2.96246 11.7691 2.96246 11.6146 3.28546Z" fill="#FFCC26"/>
<path d="M11.6208 3.37L9.1858 8.451L3.6008 9.1965C3.2498 9.2435 3.1093 9.676 3.3658 9.9205L7.4458 13.8065L6.4293 19.3485C6.3653 19.697 6.7333 19.9645 7.0448 19.796L12.0013 17.1165L16.9578 19.796C17.2693 19.9645 17.6373 19.697 17.5733 19.3485L16.5568 13.8065L20.6368 9.9205C20.8933 9.676 20.7528 9.2435 20.4018 9.1965L14.8168 8.451L12.3818 3.37C12.2288 3.0505 11.7738 3.0505 11.6208 3.37Z" fill="#FFCB25"/>
<path d="M11.6238 3.45454L9.21427 8.48304L3.68726 9.22054C3.33976 9.26704 3.20026 9.69504 3.45426 9.93704L7.49177 13.7825L6.48576 19.267C6.42227 19.612 6.78677 19.8765 7.09527 19.7095L12.0003 17.058L16.9053 19.7095C17.2138 19.876 17.5778 19.6115 17.5148 19.267L16.5088 13.7825L20.5463 9.93704C20.8003 9.69504 20.6613 9.26704 20.3138 9.22054L14.7868 8.48254L12.3768 3.45454C12.2253 3.13804 11.7753 3.13804 11.6238 3.45454Z" fill="#FFCA24"/>
<path d="M11.6266 3.53901L9.24215 8.51451L3.77315 9.24451C3.42915 9.29051 3.29165 9.71401 3.54265 9.95351L7.53765 13.7585L6.54215 19.1855C6.47965 19.5265 6.83965 19.7885 7.14515 19.6235L11.9991 16.9995L16.8526 19.623C17.1576 19.788 17.5181 19.526 17.4556 19.185L16.4601 13.758L20.4551 9.95301C20.7061 9.71351 20.5686 9.29001 20.2246 9.24401L14.7556 8.51401L12.3711 3.53851C12.2216 3.22601 11.7766 3.22601 11.6266 3.53901Z" fill="#FFC923"/>
<path d="M11.633 3.62355L9.27404 8.54604L3.86304 9.26855C3.52304 9.31404 3.38654 9.73305 3.63504 9.97005L7.58754 13.735L6.60254 19.104C6.54053 19.4415 6.89704 19.7005 7.19904 19.5375L12.0015 16.941L16.8035 19.537C17.1055 19.7 17.462 19.441 17.4 19.1035L16.415 13.7345L20.3675 9.96954C20.616 9.73304 20.48 9.31354 20.1395 9.26804L14.729 8.54554L12.37 3.62304C12.222 3.31404 11.781 3.31405 11.633 3.62355Z" fill="#FFC823"/>
<path d="M11.6356 3.70802L9.30214 8.57802L3.94914 9.29202C3.61264 9.33702 3.47764 9.75152 3.72364 9.98552L7.63364 13.71L6.65914 19.0215C6.59764 19.3555 6.95064 19.6115 7.24914 19.45L12.0001 16.8825L16.7506 19.4505C17.0491 19.612 17.4021 19.3555 17.3406 19.022L16.3661 13.7105L20.2761 9.98602C20.5221 9.75202 20.3871 9.33702 20.0506 9.29252L14.6981 8.57802L12.3646 3.70802C12.2181 3.40152 11.7821 3.40152 11.6356 3.70802Z" fill="#FFC722"/>
<path d="M11.6414 3.79194L9.33293 8.60894L4.03893 9.31594C3.70593 9.36044 3.57293 9.77044 3.81593 10.0019L7.68393 13.6859L6.71993 18.9399C6.65943 19.2704 7.00843 19.5239 7.30343 19.3639L12.0024 16.8239L16.7014 19.3639C16.9969 19.5234 17.3459 19.2704 17.2849 18.9399L16.3209 13.6859L20.1889 10.0019C20.4319 9.77044 20.2989 9.36044 19.9659 9.31594L14.6714 8.60894L12.3629 3.79194C12.2179 3.48944 11.7869 3.48944 11.6414 3.79194Z" fill="#FFC621"/>
<path d="M11.6444 3.87648L9.36141 8.64048L4.12491 9.33998C3.79591 9.38398 3.66391 9.78948 3.90441 10.0185L7.72991 13.662L6.77691 18.858C6.71691 19.1845 7.06191 19.4355 7.35441 19.2775L12.0014 16.7655L16.6489 19.2775C16.9409 19.4355 17.2859 19.185 17.2264 18.858L16.2734 13.662L20.0989 10.0185C20.3394 9.78948 20.2074 9.38398 19.8784 9.33998L14.6414 8.64048L12.3584 3.87648C12.2144 3.57698 11.7884 3.57698 11.6444 3.87648Z" fill="#FFC520"/>
<path d="M11.647 3.96095L9.38901 8.67195L4.21101 9.36395C3.88551 9.40745 3.75501 9.80845 3.99301 10.035L7.77601 13.6379L6.83351 18.7764C6.77401 19.0994 7.11551 19.3474 7.40451 19.1914L12 16.707L16.5955 19.1914C16.8845 19.3474 17.2255 19.0999 17.1665 18.7764L16.224 13.6379L20.007 10.035C20.245 9.80845 20.1145 9.40745 19.789 9.36395L14.6105 8.67245L12.3525 3.96145C12.211 3.66495 11.789 3.66495 11.647 3.96095Z" fill="#FFC41F"/>
<path d="M11.6496 4.04549L9.41712 8.70399L4.29712 9.38749C3.97512 9.43049 3.84612 9.82699 4.08162 10.051L7.82212 13.6135L6.89012 18.6945C6.83162 19.014 7.16912 19.259 7.45462 19.1045L11.9986 16.6485L16.5426 19.105C16.8281 19.2595 17.1656 19.0145 17.1071 18.695L16.1751 13.614L19.9156 10.0515C20.1506 9.82749 20.0221 9.43099 19.7001 9.38799L14.5801 8.70449L12.3476 4.04599C12.2071 3.75249 11.7901 3.75249 11.6496 4.04549Z" fill="#FFC31E"/>
<path d="M11.6559 4.12997L9.4489 8.73547L4.3869 9.41147C4.0684 9.45397 3.9414 9.84597 4.1739 10.0675L7.8719 13.5895L6.9504 18.6125C6.8924 18.9285 7.2259 19.1705 7.5084 19.018L12.0009 16.59L16.4934 19.0185C16.7759 19.171 17.1094 18.929 17.0514 18.613L16.1299 13.59L19.8279 10.068C20.0604 9.84647 19.9329 9.45447 19.6149 9.41197L14.5529 8.73597L12.3459 4.12997C12.2069 3.84047 11.7949 3.84047 11.6559 4.12997Z" fill="#FFC21D"/>
<path d="M11.6584 4.2145L9.47639 8.767L4.47289 9.4355C4.15839 9.4775 4.03239 9.865 4.26239 10.084L7.91789 13.566L7.00689 18.5315C6.94939 18.8435 7.27939 19.0835 7.55839 18.9325L11.9994 16.5315L16.4404 18.932C16.7194 19.083 17.0494 18.8435 16.9919 18.531L16.0809 13.5655L19.7364 10.0835C19.9664 9.8645 19.8404 9.477 19.5259 9.435L14.5219 8.767L12.3399 4.2145C12.2034 3.9285 11.7954 3.9285 11.6584 4.2145Z" fill="#FFC11C"/>
<path d="M11.6615 4.29904L9.50499 8.79904L4.55899 9.45954C4.24799 9.50054 4.12349 9.88404 4.35099 10.1L7.96399 13.5415L7.06349 18.4495C7.00699 18.758 7.33299 18.995 7.60899 18.8455L11.9985 16.473L16.388 18.846C16.664 18.995 16.99 18.7585 16.9335 18.45L16.033 13.542L19.646 10.1005C19.873 9.88404 19.7485 9.50104 19.4375 9.45954L14.4915 8.79904L12.335 4.29904C12.2 4.01604 11.797 4.01604 11.6615 4.29904Z" fill="#FFC01B"/>
<path d="M11.6681 4.38352L9.53714 8.83052L4.64914 9.48302C4.34164 9.52402 4.21864 9.90252 4.44314 10.1165L8.01364 13.5175L7.12414 18.368C7.06814 18.673 7.39014 18.907 7.66314 18.7595L12.0011 16.414L16.3391 18.759C16.6121 18.9065 16.9341 18.6725 16.8781 18.3675L15.9886 13.517L19.5591 10.116C19.7836 9.90202 19.6606 9.52352 19.3531 9.48252L14.4651 8.83002L12.3341 4.38302C12.2001 4.10402 11.8021 4.10402 11.6681 4.38352Z" fill="#FFC01B"/>
<path d="M11.6704 4.46794L9.5644 8.86194L4.7349 9.50694C4.4314 9.54744 4.3099 9.92144 4.5314 10.1329L8.0599 13.4934L7.1809 18.2859C7.1254 18.5874 7.4439 18.8184 7.7134 18.6729L11.9994 16.3554L16.2859 18.6724C16.5554 18.8179 16.8734 18.5869 16.8184 18.2854L15.9394 13.4929L19.4679 10.1324C19.6899 9.92094 19.5684 9.54694 19.2644 9.50644L14.4349 8.86143L12.3289 4.46744C12.1959 4.19144 11.8029 4.19144 11.6704 4.46794Z" fill="#FFBF1A"/>
<path d="M11.6769 4.55253L9.59641 8.89353L4.82491 9.53053C4.52491 9.57053 4.40491 9.94003 4.62391 10.149L8.10991 13.469L7.24141 18.204C7.18691 18.5015 7.50141 18.73 7.76741 18.586L12.0019 16.297L16.2369 18.586C16.5034 18.73 16.8174 18.5015 16.7629 18.204L15.8944 13.469L19.3804 10.149C19.5994 9.94003 19.4794 9.57053 19.1794 9.53053L14.4079 8.89353L12.3269 4.55253C12.1964 4.27953 11.8074 4.27953 11.6769 4.55253Z" fill="#FFBE19"/>
<path d="M11.68 4.63701L9.62501 8.92551L4.91101 9.55451C4.61451 9.59401 4.49601 9.95901 4.71251 10.1655L8.15601 13.445L7.29801 18.1225C7.24401 18.4165 7.55451 18.642 7.81751 18.5L12.001 16.2385L16.184 18.5C16.447 18.642 16.7575 18.4165 16.7035 18.1225L15.846 13.445L19.2895 10.1655C19.506 9.95951 19.3875 9.59401 19.091 9.55451L14.3775 8.92501L12.3225 4.63651C12.193 4.36701 11.809 4.36701 11.68 4.63701Z" fill="#FFBD18"/>
<path d="M11.6825 4.72154L9.65249 8.95704L4.99699 9.57854C4.70449 9.61754 4.58699 9.97804 4.80099 10.182L8.20199 13.4215L7.35449 18.041C7.30099 18.3315 7.60799 18.5545 7.86799 18.414L11.9995 16.18L16.131 18.4135C16.391 18.554 16.6975 18.331 16.6445 18.0405L15.797 13.421L19.198 10.1815C19.412 9.97804 19.2945 9.61704 19.002 9.57804L14.3465 8.95654L12.3165 4.72104C12.189 4.45504 11.81 4.45504 11.6825 4.72154Z" fill="#FFBC17"/>
<path d="M11.6851 4.80553L9.6806 8.98803L5.0831 9.60203C4.7941 9.64053 4.6781 9.99653 4.8896 10.198L8.2481 13.397L7.4111 17.959C7.3586 18.246 7.6616 18.466 7.9181 18.327L11.9981 16.1215L16.0781 18.327C16.3346 18.4655 16.6376 18.2455 16.5851 17.959L15.7481 13.397L19.1066 10.198C19.3176 9.99703 19.2021 9.64103 18.9131 9.60203L14.3156 8.98803L12.3111 4.80553C12.1851 4.54253 11.8111 4.54253 11.6851 4.80553Z" fill="#FFBB16"/>
<path d="M11.6909 4.89006L9.71188 9.02006L5.17288 9.62606C4.88738 9.66406 4.77338 10.0156 4.98188 10.2146L8.29788 13.3731L7.47139 17.8776C7.41938 18.1606 7.71838 18.3781 7.97188 18.2411L12.0004 16.0631L16.0289 18.2411C16.2824 18.3781 16.5814 18.1606 16.5294 17.8776L15.7029 13.3731L19.0189 10.2146C19.2274 10.0161 19.1134 9.66456 18.8279 9.62606L14.2889 9.02006L12.3099 4.89006C12.1854 4.63056 11.8154 4.63056 11.6909 4.89006Z" fill="#FFBA15"/>
<path d="M11.694 4.97447L9.73999 9.05147L5.25899 9.64997C4.97699 9.68747 4.86449 10.0345 5.07049 10.231L8.34399 13.349L7.52849 17.7955C7.47699 18.075 7.77249 18.2895 8.02249 18.1545L11.9995 16.0045L15.9765 18.1545C16.2265 18.2895 16.522 18.075 16.4705 17.7955L15.655 13.349L18.9285 10.231C19.1345 10.035 19.0215 9.68797 18.74 9.64997L14.259 9.05147L12.305 4.97447C12.182 4.71847 11.817 4.71847 11.694 4.97447Z" fill="#FFB914"/>
<path d="M11.6966 5.05907L9.76811 9.08307L5.34511 9.67357C5.06711 9.71057 4.95561 10.0531 5.15861 10.2466L8.38961 13.3241L7.58461 17.7131C7.53411 17.9891 7.82561 18.2006 8.07211 18.0676L11.9981 15.9461L15.9236 18.0681C16.1706 18.2016 16.4621 17.9896 16.4111 17.7136L15.6061 13.3246L18.8371 10.2471C19.0401 10.0536 18.9291 9.71107 18.6506 9.67407L14.2276 9.08357L12.2991 5.05957C12.1781 4.80607 11.8181 4.80607 11.6966 5.05907Z" fill="#FFB813"/>
<path d="M11.7031 5.14348L9.80012 9.11448L5.43512 9.69748C5.16062 9.73398 5.05062 10.0725 5.25112 10.263L8.43962 13.3L7.64512 17.6315C7.59512 17.904 7.88262 18.113 8.12612 17.981L12.0006 15.8875L15.8746 17.9815C16.1181 18.113 16.4056 17.904 16.3556 17.632L15.5611 13.3005L18.7496 10.2635C18.9501 10.0725 18.8401 9.73448 18.5656 9.69798L14.2006 9.11498L12.2976 5.14398C12.1786 4.89398 11.8226 4.89398 11.7031 5.14348Z" fill="#FFB713"/>
<path d="M11.706 5.22803L9.828 9.14653L5.521 9.72153C5.25 9.75753 5.142 10.0915 5.3395 10.2795L8.486 13.276L7.7025 17.55C7.653 17.8185 7.937 18.025 8.1775 17.895L11.9995 15.829L15.822 17.8955C16.0625 18.0255 16.346 17.819 16.297 17.5505L15.513 13.2765L18.6595 10.28C18.8575 10.0915 18.749 9.75803 18.478 9.72203L14.171 9.14703L12.293 5.22853C12.175 4.98153 11.824 4.98153 11.706 5.22803Z" fill="#FFB612"/>
<path d="M11.7119 5.3125L9.85939 9.178L5.61089 9.7455C5.34389 9.781 5.23689 10.1105 5.43189 10.296L8.53589 13.2525L7.76239 17.4685C7.71389 17.7335 7.99389 17.937 8.23089 17.809L12.0014 15.7705L15.7724 17.809C16.0094 17.937 16.2894 17.734 16.2409 17.4685L15.4674 13.2525L18.5714 10.296C18.7664 10.11 18.6594 9.781 18.3924 9.7455L14.1439 9.178L12.2914 5.3125C12.1744 5.0695 11.8284 5.0695 11.7119 5.3125Z" fill="#FFB511"/>
<path d="M11.7145 5.39704L9.88749 9.20954L5.69699 9.76904C5.43349 9.80404 5.32799 10.129 5.52049 10.312L8.58199 13.228L7.81899 17.3865C7.77099 17.648 8.04699 17.8485 8.28099 17.722L12 15.7115L15.719 17.722C15.953 17.8485 16.229 17.648 16.181 17.3865L15.418 13.228L18.4795 10.312C18.672 10.1285 18.5665 9.80404 18.303 9.76904L14.1125 9.20954L12.2855 5.39704C12.1705 5.15704 11.8295 5.15704 11.7145 5.39704Z" fill="#FFB410"/>
<path d="M11.7176 5.48146L9.91559 9.24145L5.78309 9.79345C5.52309 9.82795 5.41909 10.1485 5.60909 10.329L8.62809 13.2045L7.87609 17.3055C7.82859 17.5635 8.10109 17.761 8.33159 17.6365L11.9991 15.653L15.6666 17.6355C15.8971 17.76 16.1696 17.5625 16.1221 17.3045L15.3701 13.2035L18.3891 10.328C18.5791 10.147 18.4751 9.82695 18.2151 9.79245L14.0826 9.24045L12.2806 5.48046C12.1676 5.24496 11.8306 5.24496 11.7176 5.48146Z" fill="#FFB30F"/>
<path d="M11.7238 5.56599L9.94726 9.27299L5.87276 9.81699C5.61676 9.85099 5.51426 10.167 5.70126 10.345L8.67776 13.18L7.93626 17.223C7.88976 17.477 8.15826 17.6725 8.38526 17.5495L12.0013 15.5945L15.6173 17.5495C15.8448 17.6725 16.1133 17.4775 16.0663 17.223L15.3248 13.18L18.3013 10.345C18.4883 10.1665 18.3858 9.85099 18.1298 9.81699L14.0553 9.27299L12.2788 5.56599C12.1673 5.33299 11.8353 5.33299 11.7238 5.56599Z" fill="#FFB20E"/>
<path d="M11.7264 5.65053L9.97537 9.30453L5.95887 9.84103C5.70637 9.87453 5.60537 10.186 5.78987 10.3615L8.72387 13.156L7.99287 17.1415C7.94687 17.392 8.21136 17.5845 8.43586 17.463L11.9999 15.536L15.5644 17.463C15.7884 17.584 16.0534 17.392 16.0074 17.1415L15.2764 13.156L18.2104 10.3615C18.3949 10.186 18.2939 9.87453 18.0414 9.84103L14.0249 9.30453L12.2739 5.65053C12.1634 5.42053 11.8364 5.42053 11.7264 5.65053Z" fill="#FFB10D"/>
<path d="M11.7295 5.73506L10.0035 9.33606L6.04497 9.86456C5.79597 9.89756 5.69647 10.2046 5.87847 10.3776L8.76997 13.1316L8.04947 17.0596C8.00397 17.3066 8.26497 17.4961 8.48597 17.3766L11.999 15.4776L15.512 17.3766C15.733 17.4961 15.9935 17.3066 15.9485 17.0596L15.228 13.1316L18.1195 10.3776C18.3015 10.2046 18.2015 9.89756 17.953 9.86456L13.9945 9.33606L12.2685 5.73506C12.16 5.50856 11.838 5.50856 11.7295 5.73506Z" fill="#FFB00C"/>
<path d="M11.7354 5.81905L10.0349 9.36755L6.13486 9.88855C5.88986 9.92105 5.79136 10.2235 5.97086 10.394L8.81986 13.108L8.10986 16.978C8.06536 17.2215 8.32236 17.408 8.53986 17.2905L12.0009 15.419L15.4624 17.29C15.6799 17.4075 15.9369 17.221 15.8924 16.9775L15.1824 13.1075L18.0314 10.3935C18.2104 10.223 18.1124 9.92105 17.8674 9.88805L13.9674 9.36705L12.2669 5.81855C12.1599 5.59605 11.8419 5.59605 11.7354 5.81905Z" fill="#FFAF0C"/>
<path d="M11.7381 5.90352L10.0631 9.39902L6.2211 9.91202C5.9796 9.94452 5.8826 10.242 6.0591 10.41L8.8661 13.0835L8.1666 16.896C8.1226 17.1355 8.3756 17.3195 8.5901 17.204L12.0001 15.3605L15.4101 17.204C15.6246 17.32 15.8776 17.136 15.8336 16.896L15.1341 13.0835L17.9411 10.41C18.1176 10.242 18.0211 9.94452 17.7791 9.91202L13.9371 9.39902L12.2621 5.90352C12.1566 5.68402 11.8436 5.68402 11.7381 5.90352Z" fill="#FFAE0B"/>
<path d="M11.741 5.988L10.091 9.4305L6.30698 9.9355C6.06898 9.9675 5.97398 10.2605 6.14748 10.426L8.91198 13.059L8.22298 16.814C8.17948 17.05 8.42898 17.231 8.63998 17.117L11.999 15.302L15.3575 17.1175C15.5685 17.2315 15.818 17.0505 15.7745 16.8145L15.0855 13.0595L17.85 10.4265C18.024 10.261 17.9285 9.968 17.6905 9.936L13.9065 9.431L12.2565 5.9885C12.153 5.7715 11.845 5.7715 11.741 5.988Z" fill="#FFAD0A"/>
<path d="M11.7475 6.07247L10.123 9.46247L6.39699 9.95997C6.16249 9.99147 6.06899 10.28 6.23999 10.443L8.96199 13.0355L8.28399 16.7325C8.24149 16.965 8.48699 17.1435 8.69499 17.031L12.0015 15.2435L15.308 17.031C15.516 17.1435 15.7615 16.965 15.719 16.7325L15.041 13.0355L17.763 10.443C17.934 10.28 17.8405 9.99147 17.606 9.95997L13.88 9.46247L12.2555 6.07247C12.153 5.85947 11.85 5.85947 11.7475 6.07247Z" fill="#FFAC09"/>
<path d="M11.75 6.157L10.151 9.494L6.48297 9.9835C6.25247 10.0145 6.15997 10.2985 6.32847 10.459L9.00797 13.011L8.34047 16.6505C8.29847 16.8795 8.53997 17.055 8.74497 16.9445L12 15.185L15.255 16.9445C15.4595 17.055 15.7015 16.8795 15.6595 16.6505L14.992 13.011L17.6715 10.459C17.84 10.2985 17.7475 10.0145 17.517 9.9835L13.849 9.494L12.25 6.157C12.1495 5.9475 11.8505 5.9475 11.75 6.157Z" fill="#FFAB08"/>
<path d="M11.7526 6.24148L10.1786 9.52548L6.56907 10.0075C6.34207 10.038 6.25107 10.3175 6.41707 10.4755L9.05408 12.987L8.39708 16.569C8.35558 16.794 8.59358 16.967 8.79508 16.858L11.9986 15.1265L15.2021 16.8585C15.4036 16.9675 15.6416 16.7945 15.6001 16.5695L14.9431 12.9875L17.5801 10.476C17.7461 10.318 17.6551 10.0385 17.4281 10.008L13.8186 9.52598L12.2446 6.24198C12.1456 6.03498 11.8516 6.03498 11.7526 6.24148Z" fill="#FFAA07"/>
<path d="M11.7589 6.32602L10.2104 9.55702L6.65886 10.031C6.43536 10.061 6.34636 10.336 6.50936 10.4915L9.10386 12.9625L8.45736 16.487C8.41686 16.7085 8.65086 16.8785 8.84886 16.7715L12.0009 15.068L15.1529 16.772C15.3509 16.879 15.5849 16.709 15.5444 16.4875L14.8979 12.963L17.4924 10.492C17.6554 10.3365 17.5664 10.0615 17.3429 10.0315L13.7914 9.55752L12.2429 6.32652C12.1454 6.12302 11.8564 6.12302 11.7589 6.32602Z" fill="#FFA906"/>
<path d="M11.7613 6.41044L10.2383 9.58894L6.74485 10.0554C6.52535 10.0849 6.43735 10.3554 6.59785 10.5084L9.14985 12.9394L8.51385 16.4059C8.47385 16.6239 8.70385 16.7909 8.89885 16.6859L11.9993 15.0094L15.0998 16.6854C15.2948 16.7909 15.5248 16.6234 15.4848 16.4054L14.8488 12.9389L17.4008 10.5079C17.5613 10.3549 17.4733 10.0844 17.2538 10.0549L13.7603 9.58844L12.2373 6.40994C12.1418 6.21044 11.8568 6.21044 11.7613 6.41044Z" fill="#FFA805"/>
<path d="M11.7644 6.49503L10.2664 9.62053L6.83095 10.079C6.61495 10.108 6.52845 10.374 6.68645 10.524L9.19595 12.9145L8.57045 16.3235C8.53095 16.538 8.75745 16.7025 8.94895 16.5985L11.9984 14.9505L15.0474 16.5985C15.2389 16.702 15.4654 16.5375 15.4259 16.3235L14.8004 12.9145L17.3099 10.524C17.4679 10.3735 17.3814 10.1075 17.1654 10.079L13.7299 9.62053L12.2319 6.49503C12.1384 6.29853 11.8584 6.29853 11.7644 6.49503Z" fill="#FFA704"/>
<path d="M11.771 6.57945L10.2985 9.65195L6.92096 10.103C6.70846 10.1315 6.62346 10.393 6.77896 10.5405L9.24596 12.8905L8.63096 16.242C8.59246 16.4525 8.81496 16.6145 9.00346 16.5125L12.001 14.892L14.9985 16.5125C15.187 16.6145 15.4095 16.4525 15.371 16.242L14.756 12.8905L17.223 10.5405C17.378 10.3925 17.293 10.131 17.081 10.103L13.7035 9.65195L12.231 6.57945C12.1385 6.38595 11.8635 6.38595 11.771 6.57945Z" fill="#FFA604"/>
<path d="M11.7729 6.66398L10.3259 9.68398L7.00686 10.127C6.79836 10.155 6.71486 10.412 6.86686 10.557L9.29186 12.8665L8.68786 16.16C8.64986 16.367 8.86836 16.526 9.05386 16.426L11.9989 14.8335L14.9449 16.426C15.1299 16.526 15.3489 16.367 15.3109 16.16L14.7069 12.8665L17.1319 10.557C17.2844 10.412 17.2009 10.1545 16.9919 10.127L13.6729 9.68398L12.2259 6.66398C12.1339 6.47398 11.8639 6.47398 11.7729 6.66398Z" fill="#FFA503"/>
<path d="M11.776 6.74853L10.354 9.71553L7.09296 10.151C6.88796 10.1785 6.80596 10.431 6.95546 10.5735L9.33796 12.8425L8.74446 16.0785C8.70696 16.282 8.92196 16.438 9.10396 16.3395L11.998 14.775L14.892 16.3395C15.074 16.438 15.289 16.282 15.2515 16.0785L14.658 12.8425L17.0405 10.5735C17.1905 10.431 17.108 10.178 16.903 10.151L13.642 9.71553L12.22 6.74853C12.131 6.56153 11.865 6.56153 11.776 6.74853Z" fill="#FFA402"/>
<path d="M11.7825 6.8325L10.386 9.7465L7.18297 10.174C6.98147 10.201 6.90097 10.449 7.04797 10.589L9.38797 12.8175L8.80497 15.996C8.76847 16.196 8.97947 16.349 9.15797 16.2525L12.0005 14.7165L14.843 16.253C15.0215 16.3495 15.233 16.1965 15.196 15.9965L14.613 12.818L16.953 10.5895C17.1 10.4495 17.0195 10.2015 16.818 10.1745L13.615 9.747L12.2185 6.833C12.131 6.6495 11.87 6.6495 11.7825 6.8325Z" fill="#FFA301"/>
<path d="M11.785 6.91697L10.414 9.77797L7.26895 10.198C7.07145 10.2245 6.99195 10.468 7.13645 10.6055L9.43395 12.7935L8.86145 15.914C8.82545 16.11 9.03245 16.261 9.20795 16.166L11.9995 14.658L14.7905 16.167C14.966 16.262 15.173 16.1115 15.137 15.915L14.5645 12.7945L16.862 10.6065C17.0065 10.469 16.9275 10.2255 16.7295 10.199L13.5845 9.77897L12.2135 6.91797C12.1275 6.73747 11.8715 6.73747 11.785 6.91697Z" fill="#FFA200"/>
<path d="M19.169 4.69799C19.6075 4.69799 19.963 4.3425 19.963 3.90399C19.963 3.46547 19.6075 3.10999 19.169 3.10999C18.7305 3.10999 18.375 3.46547 18.375 3.90399C18.375 4.3425 18.7305 4.69799 19.169 4.69799Z" fill="#FFA200"/>
<path d="M19.1208 4.73241C19.5522 4.73241 19.9018 4.38274 19.9018 3.95141C19.9018 3.52008 19.5522 3.17041 19.1208 3.17041C18.6895 3.17041 18.3398 3.52008 18.3398 3.95141C18.3398 4.38274 18.6895 4.73241 19.1208 4.73241Z" fill="#FFA301"/>
<path d="M19.0727 4.76744C19.4968 4.76744 19.8407 4.4236 19.8407 3.99945C19.8407 3.57529 19.4968 3.23145 19.0727 3.23145C18.6485 3.23145 18.3047 3.57529 18.3047 3.99945C18.3047 4.4236 18.6485 4.76744 19.0727 4.76744Z" fill="#FFA502"/>
<path d="M19.025 4.80299C19.4423 4.80299 19.7805 4.46474 19.7805 4.04749C19.7805 3.63024 19.4423 3.29199 19.025 3.29199C18.6078 3.29199 18.2695 3.63024 18.2695 4.04749C18.2695 4.46474 18.6078 4.80299 19.025 4.80299Z" fill="#FFA604"/>
<path d="M18.9769 4.83803C19.3869 4.83803 19.7194 4.5056 19.7194 4.09553C19.7194 3.68546 19.3869 3.35303 18.9769 3.35303C18.5668 3.35303 18.2344 3.68546 18.2344 4.09553C18.2344 4.5056 18.5668 4.83803 18.9769 4.83803Z" fill="#FFA705"/>
<path d="M18.9287 4.87245C19.3316 4.87245 19.6582 4.54584 19.6582 4.14295C19.6582 3.74006 19.3316 3.41345 18.9287 3.41345C18.5258 3.41345 18.1992 3.74006 18.1992 4.14295C18.1992 4.54584 18.5258 4.87245 18.9287 4.87245Z" fill="#FFA906"/>
<path d="M18.8811 4.908C19.277 4.908 19.5981 4.58699 19.5981 4.191C19.5981 3.79501 19.277 3.474 18.8811 3.474C18.4851 3.474 18.1641 3.79501 18.1641 4.191C18.1641 4.58699 18.4851 4.908 18.8811 4.908Z" fill="#FFAA07"/>
<path d="M18.8329 4.94303C19.2217 4.94303 19.5369 4.62784 19.5369 4.23903C19.5369 3.85023 19.2217 3.53503 18.8329 3.53503C18.4441 3.53503 18.1289 3.85023 18.1289 4.23903C18.1289 4.62784 18.4441 4.94303 18.8329 4.94303Z" fill="#FFAB08"/>
<path d="M18.7848 4.97795C19.1664 4.97795 19.4758 4.66858 19.4758 4.28695C19.4758 3.90532 19.1664 3.59595 18.7848 3.59595C18.4031 3.59595 18.0938 3.90532 18.0938 4.28695C18.0938 4.66858 18.4031 4.97795 18.7848 4.97795Z" fill="#FFAD0A"/>
<path d="M18.7371 5.01349C19.1118 5.01349 19.4156 4.70972 19.4156 4.33499C19.4156 3.96027 19.1118 3.65649 18.7371 3.65649C18.3624 3.65649 18.0586 3.96027 18.0586 4.33499C18.0586 4.70972 18.3624 5.01349 18.7371 5.01349Z" fill="#FFAE0B"/>
<path d="M18.6889 5.04804C19.0565 5.04804 19.3544 4.75009 19.3544 4.38254C19.3544 4.015 19.0565 3.71704 18.6889 3.71704C18.3214 3.71704 18.0234 4.015 18.0234 4.38254C18.0234 4.75009 18.3214 5.04804 18.6889 5.04804Z" fill="#FFAF0C"/>
<path d="M18.6408 5.08295C19.0011 5.08295 19.2933 4.79082 19.2933 4.43045C19.2933 4.07009 19.0011 3.77795 18.6408 3.77795C18.2804 3.77795 17.9883 4.07009 17.9883 4.43045C17.9883 4.79082 18.2804 5.08295 18.6408 5.08295Z" fill="#FFB10D"/>
<path d="M18.5931 5.1185C18.9466 5.1185 19.2331 4.83196 19.2331 4.4785C19.2331 4.12504 18.9466 3.8385 18.5931 3.8385C18.2397 3.8385 17.9531 4.12504 17.9531 4.4785C17.9531 4.83196 18.2397 5.1185 18.5931 5.1185Z" fill="#FFB20F"/>
<path d="M18.545 5.15354C18.8913 5.15354 19.172 4.87282 19.172 4.52654C19.172 4.18025 18.8913 3.89954 18.545 3.89954C18.1987 3.89954 17.918 4.18025 17.918 4.52654C17.918 4.87282 18.1987 5.15354 18.545 5.15354Z" fill="#FFB410"/>
<path d="M18.4968 5.18845C18.8359 5.18845 19.1108 4.91355 19.1108 4.57445C19.1108 4.23535 18.8359 3.96045 18.4968 3.96045C18.1577 3.96045 17.8828 4.23535 17.8828 4.57445C17.8828 4.91355 18.1577 5.18845 18.4968 5.18845Z" fill="#FFB511"/>
<path d="M18.4492 5.22351C18.7814 5.22351 19.0507 4.95421 19.0507 4.62201C19.0507 4.28981 18.7814 4.02051 18.4492 4.02051C18.117 4.02051 17.8477 4.28981 17.8477 4.62201C17.8477 4.95421 18.117 5.22351 18.4492 5.22351Z" fill="#FFB612"/>
<path d="M18.401 5.25854C18.726 5.25854 18.9895 4.99506 18.9895 4.67004C18.9895 4.34502 18.726 4.08154 18.401 4.08154C18.076 4.08154 17.8125 4.34502 17.8125 4.67004C17.8125 4.99506 18.076 5.25854 18.401 5.25854Z" fill="#FFB813"/>
<path d="M18.3528 5.29346C18.6707 5.29346 18.9283 5.0358 18.9283 4.71796C18.9283 4.40012 18.6707 4.14246 18.3528 4.14246C18.035 4.14246 17.7773 4.40012 17.7773 4.71796C17.7773 5.0358 18.035 5.29346 18.3528 5.29346Z" fill="#FFB915"/>
<path d="M18.3052 5.329C18.6161 5.329 18.8682 5.07694 18.8682 4.766C18.8682 4.45507 18.6161 4.203 18.3052 4.203C17.9943 4.203 17.7422 4.45507 17.7422 4.766C17.7422 5.07694 17.9943 5.329 18.3052 5.329Z" fill="#FFBA16"/>
<path d="M18.257 5.36355C18.5608 5.36355 18.807 5.11731 18.807 4.81355C18.807 4.50979 18.5608 4.26355 18.257 4.26355C17.9533 4.26355 17.707 4.50979 17.707 4.81355C17.707 5.11731 17.9533 5.36355 18.257 5.36355Z" fill="#FFBC17"/>
<path d="M18.2128 5.39846C18.5094 5.39846 18.7498 5.15804 18.7498 4.86146C18.7498 4.56489 18.5094 4.32446 18.2128 4.32446C17.9162 4.32446 17.6758 4.56489 17.6758 4.86146C17.6758 5.15804 17.9162 5.39846 18.2128 5.39846Z" fill="#FFBD18"/>
<path d="M18.1612 5.43401C18.4509 5.43401 18.6857 5.19918 18.6857 4.90951C18.6857 4.61984 18.4509 4.38501 18.1612 4.38501C17.8715 4.38501 17.6367 4.61984 17.6367 4.90951C17.6367 5.19918 17.8715 5.43401 18.1612 5.43401Z" fill="#FFBE19"/>
<path d="M18.1131 5.46892C18.3956 5.46892 18.6246 5.23992 18.6246 4.95742C18.6246 4.67493 18.3956 4.44592 18.1131 4.44592C17.8306 4.44592 17.6016 4.67493 17.6016 4.95742C17.6016 5.23992 17.8306 5.46892 18.1131 5.46892Z" fill="#FFC01B"/>
<path d="M18.0649 5.50396C18.3402 5.50396 18.5634 5.28077 18.5634 5.00546C18.5634 4.73014 18.3402 4.50696 18.0649 4.50696C17.7896 4.50696 17.5664 4.73014 17.5664 5.00546C17.5664 5.28077 17.7896 5.50396 18.0649 5.50396Z" fill="#FFC11C"/>
<path d="M18.0212 5.53902C18.2896 5.53902 18.5072 5.32143 18.5072 5.05302C18.5072 4.78461 18.2896 4.56702 18.0212 4.56702C17.7527 4.56702 17.5352 4.78461 17.5352 5.05302C17.5352 5.32143 17.7527 5.53902 18.0212 5.53902Z" fill="#FFC21D"/>
<path d="M17.9691 5.57393C18.2303 5.57393 18.4421 5.36216 18.4421 5.10093C18.4421 4.8397 18.2303 4.62793 17.9691 4.62793C17.7079 4.62793 17.4961 4.8397 17.4961 5.10093C17.4961 5.36216 17.7079 5.57393 17.9691 5.57393Z" fill="#FFC41E"/>
<path d="M17.9248 5.60896C18.1789 5.60896 18.3848 5.40302 18.3848 5.14896C18.3848 4.89491 18.1789 4.68896 17.9248 4.68896C17.6708 4.68896 17.4648 4.89491 17.4648 5.14896C17.4648 5.40302 17.6708 5.60896 17.9248 5.60896Z" fill="#FFC51F"/>
<path d="M17.8772 5.64451C18.1243 5.64451 18.3247 5.44416 18.3247 5.19701C18.3247 4.94986 18.1243 4.74951 17.8772 4.74951C17.63 4.74951 17.4297 4.94986 17.4297 5.19701C17.4297 5.44416 17.63 5.64451 17.8772 5.64451Z" fill="#FFC621"/>
<path d="M17.829 5.67955C18.069 5.67955 18.2635 5.48501 18.2635 5.24505C18.2635 5.00508 18.069 4.81055 17.829 4.81055C17.5891 4.81055 17.3945 5.00508 17.3945 5.24505C17.3945 5.48501 17.5891 5.67955 17.829 5.67955Z" fill="#FFC822"/>
<path d="M17.7809 5.71397C18.0137 5.71397 18.2024 5.52526 18.2024 5.29247C18.2024 5.05968 18.0137 4.87097 17.7809 4.87097C17.5481 4.87097 17.3594 5.05968 17.3594 5.29247C17.3594 5.52526 17.5481 5.71397 17.7809 5.71397Z" fill="#FFC923"/>
<path d="M17.7332 5.74952C17.9591 5.74952 18.1422 5.5664 18.1422 5.34052C18.1422 5.11463 17.9591 4.93152 17.7332 4.93152C17.5073 4.93152 17.3242 5.11463 17.3242 5.34052C17.3242 5.5664 17.5073 5.74952 17.7332 5.74952Z" fill="#FFCA24"/>
<path d="M17.6851 5.78455C17.9038 5.78455 18.0811 5.60726 18.0811 5.38855C18.0811 5.16985 17.9038 4.99255 17.6851 4.99255C17.4664 4.99255 17.2891 5.16985 17.2891 5.38855C17.2891 5.60726 17.4664 5.78455 17.6851 5.78455Z" fill="#FFCC25"/>
<path d="M17.6369 5.81947C17.8484 5.81947 18.0199 5.64799 18.0199 5.43647C18.0199 5.22494 17.8484 5.05347 17.6369 5.05347C17.4254 5.05347 17.2539 5.22494 17.2539 5.43647C17.2539 5.64799 17.4254 5.81947 17.6369 5.81947Z" fill="#FFCD27"/>
<path d="M17.5893 5.85453C17.7939 5.85453 17.9598 5.68865 17.9598 5.48403C17.9598 5.2794 17.7939 5.11353 17.5893 5.11353C17.3846 5.11353 17.2188 5.2794 17.2188 5.48403C17.2188 5.68865 17.3846 5.85453 17.5893 5.85453Z" fill="#FFCF28"/>
<path d="M17.5411 5.88944C17.7385 5.88944 17.8986 5.72938 17.8986 5.53194C17.8986 5.3345 17.7385 5.17444 17.5411 5.17444C17.3437 5.17444 17.1836 5.3345 17.1836 5.53194C17.1836 5.72938 17.3437 5.88944 17.5411 5.88944Z" fill="#FFD029"/>
<path d="M17.4929 5.92447C17.6832 5.92447 17.8374 5.77024 17.8374 5.57997C17.8374 5.38971 17.6832 5.23547 17.4929 5.23547C17.3027 5.23547 17.1484 5.38971 17.1484 5.57997C17.1484 5.77024 17.3027 5.92447 17.4929 5.92447Z" fill="#FFD12A"/>
<path d="M17.4453 5.96002C17.6286 5.96002 17.7773 5.81138 17.7773 5.62802C17.7773 5.44466 17.6286 5.29602 17.4453 5.29602C17.2619 5.29602 17.1133 5.44466 17.1133 5.62802C17.1133 5.81138 17.2619 5.96002 17.4453 5.96002Z" fill="#FFD32C"/>
<path d="M17.3971 5.99493C17.5733 5.99493 17.7161 5.85211 17.7161 5.67593C17.7161 5.49976 17.5733 5.35693 17.3971 5.35693C17.2209 5.35693 17.0781 5.49976 17.0781 5.67593C17.0781 5.85211 17.2209 5.99493 17.3971 5.99493Z" fill="#FFD42D"/>
<path d="M17.349 6.02948C17.518 6.02948 17.655 5.89248 17.655 5.72348C17.655 5.55448 17.518 5.41748 17.349 5.41748C17.18 5.41748 17.043 5.55448 17.043 5.72348C17.043 5.89248 17.18 6.02948 17.349 6.02948Z" fill="#FFD52E"/>
<path d="M17.3013 6.06503C17.4634 6.06503 17.5948 5.93362 17.5948 5.77153C17.5948 5.60943 17.4634 5.47803 17.3013 5.47803C17.1392 5.47803 17.0078 5.60943 17.0078 5.77153C17.0078 5.93362 17.1392 6.06503 17.3013 6.06503Z" fill="#FFD72F"/>
<path d="M17.2532 6.09994C17.4081 6.09994 17.5337 5.97436 17.5337 5.81944C17.5337 5.66452 17.4081 5.53894 17.2532 5.53894C17.0982 5.53894 16.9727 5.66452 16.9727 5.81944C16.9727 5.97436 17.0982 6.09994 17.2532 6.09994Z" fill="#FFD830"/>
<path d="M17.205 6.13498C17.3527 6.13498 17.4725 6.01521 17.4725 5.86748C17.4725 5.71974 17.3527 5.59998 17.205 5.59998C17.0573 5.59998 16.9375 5.71974 16.9375 5.86748C16.9375 6.01521 17.0573 6.13498 17.205 6.13498Z" fill="#FFD932"/>
<path d="M17.1573 6.17052C17.2982 6.17052 17.4123 6.05635 17.4123 5.91552C17.4123 5.77469 17.2982 5.66052 17.1573 5.66052C17.0165 5.66052 16.9023 5.77469 16.9023 5.91552C16.9023 6.05635 17.0165 6.17052 17.1573 6.17052Z" fill="#FFDB33"/>
<path d="M17.1092 6.20495C17.2428 6.20495 17.3512 6.0966 17.3512 5.96295C17.3512 5.82929 17.2428 5.72095 17.1092 5.72095C16.9755 5.72095 16.8672 5.82929 16.8672 5.96295C16.8672 6.0966 16.9755 6.20495 17.1092 6.20495Z" fill="#FFDC34"/>
<path d="M21.6651 16.698C22.1036 16.698 22.4591 16.3425 22.4591 15.904C22.4591 15.4655 22.1036 15.11 21.6651 15.11C21.2266 15.11 20.8711 15.4655 20.8711 15.904C20.8711 16.3425 21.2266 16.698 21.6651 16.698Z" fill="#FFA200"/>
<path d="M21.615 16.6684C22.0475 16.6684 22.398 16.3179 22.398 15.8854C22.398 15.453 22.0475 15.1024 21.615 15.1024C21.1826 15.1024 20.832 15.453 20.832 15.8854C20.832 16.3179 21.1826 16.6684 21.615 16.6684Z" fill="#FFA301"/>
<path d="M21.5655 16.6395C21.9921 16.6395 22.338 16.2936 22.338 15.867C22.338 15.4403 21.9921 15.0945 21.5655 15.0945C21.1388 15.0945 20.793 15.4403 20.793 15.867C20.793 16.2936 21.1388 16.6395 21.5655 16.6395Z" fill="#FFA402"/>
<path d="M21.5154 16.6099C21.936 16.6099 22.2769 16.269 22.2769 15.8484C22.2769 15.4279 21.936 15.0869 21.5154 15.0869C21.0948 15.0869 20.7539 15.4279 20.7539 15.8484C20.7539 16.269 21.0948 16.6099 21.5154 16.6099Z" fill="#FFA503"/>
<path d="M21.4653 16.5805C21.8798 16.5805 22.2158 16.2445 22.2158 15.83C22.2158 15.4155 21.8798 15.0795 21.4653 15.0795C21.0509 15.0795 20.7148 15.4155 20.7148 15.83C20.7148 16.2445 21.0509 16.5805 21.4653 16.5805Z" fill="#FFA704"/>
<path d="M21.4119 16.5514C21.8206 16.5514 22.1519 16.2201 22.1519 15.8114C22.1519 15.4027 21.8206 15.0714 21.4119 15.0714C21.0032 15.0714 20.6719 15.4027 20.6719 15.8114C20.6719 16.2201 21.0032 16.5514 21.4119 16.5514Z" fill="#FFA805"/>
<path d="M21.3618 16.522C21.7644 16.522 22.0908 16.1956 22.0908 15.793C22.0908 15.3903 21.7644 15.064 21.3618 15.064C20.9592 15.064 20.6328 15.3903 20.6328 15.793C20.6328 16.1956 20.9592 16.522 21.3618 16.522Z" fill="#FFA906"/>
<path d="M21.3118 16.4924C21.7083 16.4924 22.0298 16.1709 22.0298 15.7744C22.0298 15.3779 21.7083 15.0564 21.3118 15.0564C20.9152 15.0564 20.5938 15.3779 20.5938 15.7744C20.5938 16.1709 20.9152 16.4924 21.3118 16.4924Z" fill="#FFAA07"/>
<path d="M21.2622 16.4635C21.6529 16.4635 21.9697 16.1467 21.9697 15.756C21.9697 15.3652 21.6529 15.0485 21.2622 15.0485C20.8714 15.0485 20.5547 15.3652 20.5547 15.756C20.5547 16.1467 20.8714 16.4635 21.2622 16.4635Z" fill="#FFAB08"/>
<path d="M21.2121 16.4345C21.5968 16.4345 21.9086 16.1227 21.9086 15.738C21.9086 15.3533 21.5968 15.0415 21.2121 15.0415C20.8275 15.0415 20.5156 15.3533 20.5156 15.738C20.5156 16.1227 20.8275 16.4345 21.2121 16.4345Z" fill="#FFAC09"/>
<path d="M21.1621 16.4049C21.5407 16.4049 21.8476 16.098 21.8476 15.7194C21.8476 15.3408 21.5407 15.0339 21.1621 15.0339C20.7835 15.0339 20.4766 15.3408 20.4766 15.7194C20.4766 16.098 20.7835 16.4049 21.1621 16.4049Z" fill="#FFAD0A"/>
<path d="M21.1125 16.376C21.4853 16.376 21.7875 16.0738 21.7875 15.701C21.7875 15.3282 21.4853 15.026 21.1125 15.026C20.7397 15.026 20.4375 15.3282 20.4375 15.701C20.4375 16.0738 20.7397 16.376 21.1125 16.376Z" fill="#FFAF0B"/>
<path d="M21.0624 16.3464C21.4292 16.3464 21.7264 16.0491 21.7264 15.6824C21.7264 15.3157 21.4292 15.0184 21.0624 15.0184C20.6957 15.0184 20.3984 15.3157 20.3984 15.6824C20.3984 16.0491 20.6957 16.3464 21.0624 16.3464Z" fill="#FFB00C"/>
<path d="M21.0124 16.317C21.373 16.317 21.6654 16.0246 21.6654 15.664C21.6654 15.3033 21.373 15.011 21.0124 15.011C20.6517 15.011 20.3594 15.3033 20.3594 15.664C20.3594 16.0246 20.6517 16.317 21.0124 16.317Z" fill="#FFB10D"/>
<path d="M20.9628 16.2879C21.3177 16.2879 21.6053 16.0003 21.6053 15.6454C21.6053 15.2906 21.3177 15.0029 20.9628 15.0029C20.608 15.0029 20.3203 15.2906 20.3203 15.6454C20.3203 16.0003 20.608 16.2879 20.9628 16.2879Z" fill="#FFB20E"/>
<path d="M20.9128 16.2585C21.2615 16.2585 21.5443 15.9758 21.5443 15.627C21.5443 15.2782 21.2615 14.9955 20.9128 14.9955C20.564 14.9955 20.2812 15.2782 20.2812 15.627C20.2812 15.9758 20.564 16.2585 20.9128 16.2585Z" fill="#FFB30F"/>
<path d="M20.8627 16.2289C21.2054 16.2289 21.4832 15.9511 21.4832 15.6084C21.4832 15.2657 21.2054 14.9879 20.8627 14.9879C20.52 14.9879 20.2422 15.2657 20.2422 15.6084C20.2422 15.9511 20.52 16.2289 20.8627 16.2289Z" fill="#FFB410"/>
<path d="M20.8092 16.2C21.1461 16.2 21.4192 15.9269 21.4192 15.59C21.4192 15.2531 21.1461 14.98 20.8092 14.98C20.4723 14.98 20.1992 15.2531 20.1992 15.59C20.1992 15.9269 20.4723 16.2 20.8092 16.2Z" fill="#FFB511"/>
<path d="M20.7631 16.1709C21.0939 16.1709 21.3621 15.9027 21.3621 15.5719C21.3621 15.2411 21.0939 14.9729 20.7631 14.9729C20.4322 14.9729 20.1641 15.2411 20.1641 15.5719C20.1641 15.9027 20.4322 16.1709 20.7631 16.1709Z" fill="#FFB612"/>
<path d="M20.7135 16.142C21.0385 16.142 21.302 15.8785 21.302 15.5535C21.302 15.2284 21.0385 14.965 20.7135 14.965C20.3885 14.965 20.125 15.2284 20.125 15.5535C20.125 15.8785 20.3885 16.142 20.7135 16.142Z" fill="#FFB813"/>
<path d="M20.6595 16.1124C20.9785 16.1124 21.237 15.8538 21.237 15.5349C21.237 15.216 20.9785 14.9574 20.6595 14.9574C20.3406 14.9574 20.082 15.216 20.082 15.5349C20.082 15.8538 20.3406 16.1124 20.6595 16.1124Z" fill="#FFB914"/>
<path d="M20.6095 16.083C20.9223 16.083 21.176 15.8293 21.176 15.5165C21.176 15.2036 20.9223 14.95 20.6095 14.95C20.2966 14.95 20.043 15.2036 20.043 15.5165C20.043 15.8293 20.2966 16.083 20.6095 16.083Z" fill="#FFBA15"/>
<path d="M20.5599 16.054C20.867 16.054 21.1159 15.8051 21.1159 15.498C21.1159 15.1909 20.867 14.942 20.5599 14.942C20.2528 14.942 20.0039 15.1909 20.0039 15.498C20.0039 15.8051 20.2528 16.054 20.5599 16.054Z" fill="#FFBB16"/>
<path d="M20.5098 16.0244C20.8108 16.0244 21.0548 15.7804 21.0548 15.4794C21.0548 15.1785 20.8108 14.9344 20.5098 14.9344C20.2088 14.9344 19.9648 15.1785 19.9648 15.4794C19.9648 15.7804 20.2088 16.0244 20.5098 16.0244Z" fill="#FFBC17"/>
<path d="M20.4598 15.9949C20.7547 15.9949 20.9938 15.7558 20.9938 15.4609C20.9938 15.166 20.7547 14.9269 20.4598 14.9269C20.1649 14.9269 19.9258 15.166 19.9258 15.4609C19.9258 15.7558 20.1649 15.9949 20.4598 15.9949Z" fill="#FFBD18"/>
<path d="M20.4102 15.9659C20.6993 15.9659 20.9337 15.7316 20.9337 15.4424C20.9337 15.1533 20.6993 14.9189 20.4102 14.9189C20.1211 14.9189 19.8867 15.1533 19.8867 15.4424C19.8867 15.7316 20.1211 15.9659 20.4102 15.9659Z" fill="#FFBE19"/>
<path d="M20.3602 15.9365C20.6432 15.9365 20.8727 15.707 20.8727 15.424C20.8727 15.141 20.6432 14.9115 20.3602 14.9115C20.0771 14.9115 19.8477 15.141 19.8477 15.424C19.8477 15.707 20.0771 15.9365 20.3602 15.9365Z" fill="#FFC01B"/>
<path d="M20.3101 15.9074C20.5871 15.9074 20.8116 15.6829 20.8116 15.4059C20.8116 15.1289 20.5871 14.9044 20.3101 14.9044C20.0331 14.9044 19.8086 15.1289 19.8086 15.4059C19.8086 15.6829 20.0331 15.9074 20.3101 15.9074Z" fill="#FFC11C"/>
<path d="M20.2605 15.8785C20.5317 15.8785 20.7515 15.6587 20.7515 15.3875C20.7515 15.1163 20.5317 14.8965 20.2605 14.8965C19.9894 14.8965 19.7695 15.1163 19.7695 15.3875C19.7695 15.6587 19.9894 15.8785 20.2605 15.8785Z" fill="#FFC21D"/>
<path d="M20.2105 15.8489C20.4756 15.8489 20.6905 15.634 20.6905 15.3689C20.6905 15.1038 20.4756 14.8889 20.2105 14.8889C19.9454 14.8889 19.7305 15.1038 19.7305 15.3689C19.7305 15.634 19.9454 15.8489 20.2105 15.8489Z" fill="#FFC31E"/>
<path d="M20.1565 15.8195C20.4155 15.8195 20.6255 15.6095 20.6255 15.3505C20.6255 15.0914 20.4155 14.8815 20.1565 14.8815C19.8975 14.8815 19.6875 15.0914 19.6875 15.3505C19.6875 15.6095 19.8975 15.8195 20.1565 15.8195Z" fill="#FFC41F"/>
<path d="M20.1069 15.7904C20.3602 15.7904 20.5654 15.5851 20.5654 15.3319C20.5654 15.0787 20.3602 14.8734 20.1069 14.8734C19.8537 14.8734 19.6484 15.0787 19.6484 15.3319C19.6484 15.5851 19.8537 15.7904 20.1069 15.7904Z" fill="#FFC520"/>
<path d="M20.0608 15.761C20.3079 15.761 20.5083 15.5606 20.5083 15.3135C20.5083 15.0663 20.3079 14.866 20.0608 14.866C19.8136 14.866 19.6133 15.0663 19.6133 15.3135C19.6133 15.5606 19.8136 15.761 20.0608 15.761Z" fill="#FFC621"/>
<path d="M20.0073 15.7319C20.2487 15.7319 20.4443 15.5363 20.4443 15.2949C20.4443 15.0536 20.2487 14.8579 20.0073 14.8579C19.766 14.8579 19.5703 15.0536 19.5703 15.2949C19.5703 15.5363 19.766 15.7319 20.0073 15.7319Z" fill="#FFC822"/>
<path d="M19.9572 15.7025C20.1925 15.7025 20.3832 15.5117 20.3832 15.2765C20.3832 15.0412 20.1925 14.8505 19.9572 14.8505C19.722 14.8505 19.5312 15.0412 19.5312 15.2765C19.5312 15.5117 19.722 15.7025 19.9572 15.7025Z" fill="#FFC923"/>
<path d="M19.9072 15.6735C20.1364 15.6735 20.3222 15.4877 20.3222 15.2585C20.3222 15.0293 20.1364 14.8435 19.9072 14.8435C19.678 14.8435 19.4922 15.0293 19.4922 15.2585C19.4922 15.4877 19.678 15.6735 19.9072 15.6735Z" fill="#FFCA24"/>
<path d="M19.8576 15.6444C20.081 15.6444 20.2621 15.4633 20.2621 15.2399C20.2621 15.0166 20.081 14.8354 19.8576 14.8354C19.6342 14.8354 19.4531 15.0166 19.4531 15.2399C19.4531 15.4633 19.6342 15.6444 19.8576 15.6444Z" fill="#FFCB25"/>
<path d="M19.8076 15.615C20.0249 15.615 20.2011 15.4388 20.2011 15.2215C20.2011 15.0042 20.0249 14.828 19.8076 14.828C19.5902 14.828 19.4141 15.0042 19.4141 15.2215C19.4141 15.4388 19.5902 15.615 19.8076 15.615Z" fill="#FFCC26"/>
<path d="M19.7575 15.5854C19.9687 15.5854 20.14 15.4142 20.14 15.2029C20.14 14.9917 19.9687 14.8204 19.7575 14.8204C19.5463 14.8204 19.375 14.9917 19.375 15.2029C19.375 15.4142 19.5463 15.5854 19.7575 15.5854Z" fill="#FFCD27"/>
<path d="M19.7079 15.5565C19.9134 15.5565 20.0799 15.39 20.0799 15.1845C20.0799 14.9791 19.9134 14.8125 19.7079 14.8125C19.5025 14.8125 19.3359 14.9791 19.3359 15.1845C19.3359 15.39 19.5025 15.5565 19.7079 15.5565Z" fill="#FFCE28"/>
<path d="M19.6579 15.5269C19.8572 15.5269 20.0189 15.3653 20.0189 15.1659C20.0189 14.9666 19.8572 14.8049 19.6579 14.8049C19.4585 14.8049 19.2969 14.9666 19.2969 15.1659C19.2969 15.3653 19.4585 15.5269 19.6579 15.5269Z" fill="#FFCF29"/>
<path d="M19.6078 15.4975C19.8011 15.4975 19.9578 15.3408 19.9578 15.1475C19.9578 14.9542 19.8011 14.7975 19.6078 14.7975C19.4145 14.7975 19.2578 14.9542 19.2578 15.1475C19.2578 15.3408 19.4145 15.4975 19.6078 15.4975Z" fill="#FFD12A"/>
<path d="M19.5583 15.4684C19.7458 15.4684 19.8978 15.3164 19.8978 15.1289C19.8978 14.9414 19.7458 14.7894 19.5583 14.7894C19.3707 14.7894 19.2188 14.9414 19.2188 15.1289C19.2188 15.3164 19.3707 15.4684 19.5583 15.4684Z" fill="#FFD22B"/>
<path d="M19.5082 15.439C19.6896 15.439 19.8367 15.2919 19.8367 15.1105C19.8367 14.9291 19.6896 14.782 19.5082 14.782C19.3268 14.782 19.1797 14.9291 19.1797 15.1105C19.1797 15.2919 19.3268 15.439 19.5082 15.439Z" fill="#FFD32C"/>
<path d="M19.4581 15.4099C19.6335 15.4099 19.7756 15.2678 19.7756 15.0924C19.7756 14.9171 19.6335 14.7749 19.4581 14.7749C19.2828 14.7749 19.1406 14.9171 19.1406 15.0924C19.1406 15.2678 19.2828 15.4099 19.4581 15.4099Z" fill="#FFD42D"/>
<path d="M19.4047 15.381C19.5742 15.381 19.7117 15.2435 19.7117 15.074C19.7117 14.9044 19.5742 14.767 19.4047 14.767C19.2351 14.767 19.0977 14.9044 19.0977 15.074C19.0977 15.2435 19.2351 15.381 19.4047 15.381Z" fill="#FFD52E"/>
<path d="M19.3546 15.3514C19.5181 15.3514 19.6506 15.2189 19.6506 15.0554C19.6506 14.8919 19.5181 14.7594 19.3546 14.7594C19.1911 14.7594 19.0586 14.8919 19.0586 15.0554C19.0586 15.2189 19.1911 15.3514 19.3546 15.3514Z" fill="#FFD62F"/>
<path d="M19.305 15.3225C19.4627 15.3225 19.5905 15.1946 19.5905 15.037C19.5905 14.8793 19.4627 14.7515 19.305 14.7515C19.1474 14.7515 19.0195 14.8793 19.0195 15.037C19.0195 15.1946 19.1474 15.3225 19.305 15.3225Z" fill="#FFD730"/>
<path d="M19.255 15.2929C19.4066 15.2929 19.5295 15.17 19.5295 15.0184C19.5295 14.8668 19.4066 14.7439 19.255 14.7439C19.1034 14.7439 18.9805 14.8668 18.9805 15.0184C18.9805 15.17 19.1034 15.2929 19.255 15.2929Z" fill="#FFD931"/>
<path d="M19.2049 15.2635C19.3504 15.2635 19.4684 15.1455 19.4684 15C19.4684 14.8544 19.3504 14.7365 19.2049 14.7365C19.0594 14.7365 18.9414 14.8544 18.9414 15C18.9414 15.1455 19.0594 15.2635 19.2049 15.2635Z" fill="#FFDA32"/>
<path d="M19.1553 15.2345C19.2951 15.2345 19.4083 15.1212 19.4083 14.9815C19.4083 14.8418 19.2951 14.7285 19.1553 14.7285C19.0156 14.7285 18.9023 14.8418 18.9023 14.9815C18.9023 15.1212 19.0156 15.2345 19.1553 15.2345Z" fill="#FFDB33"/>
<path d="M19.1053 15.2049C19.2389 15.2049 19.3473 15.0966 19.3473 14.9629C19.3473 14.8293 19.2389 14.7209 19.1053 14.7209C18.9716 14.7209 18.8633 14.8293 18.8633 14.9629C18.8633 15.0966 18.9716 15.2049 19.1053 15.2049Z" fill="#FFDC34"/>
<path d="M12.001 23.198C12.4395 23.198 12.795 22.8425 12.795 22.404C12.795 21.9655 12.4395 21.61 12.001 21.61C11.5625 21.61 11.207 21.9655 11.207 22.404C11.207 22.8425 11.5625 23.198 12.001 23.198Z" fill="#FFA200"/>
<path d="M12.0027 23.136C12.4357 23.136 12.7867 22.785 12.7867 22.352C12.7867 21.919 12.4357 21.568 12.0027 21.568C11.5698 21.568 11.2188 21.919 11.2188 22.352C11.2188 22.785 11.5698 23.136 12.0027 23.136Z" fill="#FFA301"/>
<path d="M12.0011 23.075C12.4288 23.075 12.7756 22.7282 12.7756 22.3005C12.7756 21.8728 12.4288 21.526 12.0011 21.526C11.5733 21.526 11.2266 21.8728 11.2266 22.3005C11.2266 22.7282 11.5733 23.075 12.0011 23.075Z" fill="#FFA402"/>
<path d="M12.0033 23.0139C12.4258 23.0139 12.7683 22.6714 12.7683 22.2489C12.7683 21.8264 12.4258 21.4839 12.0033 21.4839C11.5808 21.4839 11.2383 21.8264 11.2383 22.2489C11.2383 22.6714 11.5808 23.0139 12.0033 23.0139Z" fill="#FFA503"/>
<path d="M12.0011 22.9524C12.4181 22.9524 12.7561 22.6144 12.7561 22.1974C12.7561 21.7804 12.4181 21.4424 12.0011 21.4424C11.5841 21.4424 11.2461 21.7804 11.2461 22.1974C11.2461 22.6144 11.5841 22.9524 12.0011 22.9524Z" fill="#FFA604"/>
<path d="M11.9994 22.8915C12.4111 22.8915 12.7449 22.5577 12.7449 22.146C12.7449 21.7343 12.4111 21.4005 11.9994 21.4005C11.5877 21.4005 11.2539 21.7343 11.2539 22.146C11.2539 22.5577 11.5877 22.8915 11.9994 22.8915Z" fill="#FFA705"/>
<path d="M12.0016 22.8299C12.4081 22.8299 12.7376 22.5004 12.7376 22.0939C12.7376 21.6874 12.4081 21.3579 12.0016 21.3579C11.5951 21.3579 11.2656 21.6874 11.2656 22.0939C11.2656 22.5004 11.5951 22.8299 12.0016 22.8299Z" fill="#FFA805"/>
<path d="M11.9994 22.7684C12.4004 22.7684 12.7254 22.4434 12.7254 22.0424C12.7254 21.6414 12.4004 21.3164 11.9994 21.3164C11.5985 21.3164 11.2734 21.6414 11.2734 22.0424C11.2734 22.4434 11.5985 22.7684 11.9994 22.7684Z" fill="#FFA906"/>
<path d="M12.0017 22.7074C12.3974 22.7074 12.7182 22.3866 12.7182 21.9909C12.7182 21.5952 12.3974 21.2744 12.0017 21.2744C11.6059 21.2744 11.2852 21.5952 11.2852 21.9909C11.2852 22.3866 11.6059 22.7074 12.0017 22.7074Z" fill="#FFAA07"/>
<path d="M12 22.6464C12.3904 22.6464 12.707 22.3299 12.707 21.9394C12.707 21.549 12.3904 21.2324 12 21.2324C11.6095 21.2324 11.293 21.549 11.293 21.9394C11.293 22.3299 11.6095 22.6464 12 22.6464Z" fill="#FFAB08"/>
<path d="M12.0017 22.5849C12.3866 22.5849 12.6987 22.2729 12.6987 21.8879C12.6987 21.503 12.3866 21.1909 12.0017 21.1909C11.6167 21.1909 11.3047 21.503 11.3047 21.8879C11.3047 22.2729 11.6167 22.5849 12.0017 22.5849Z" fill="#FFAC09"/>
<path d="M12 22.5239C12.3797 22.5239 12.6875 22.2161 12.6875 21.8364C12.6875 21.4567 12.3797 21.1489 12 21.1489C11.6203 21.1489 11.3125 21.4567 11.3125 21.8364C11.3125 22.2161 11.6203 22.5239 12 22.5239Z" fill="#FFAD0A"/>
<path d="M12.0017 22.4619C12.3759 22.4619 12.6792 22.1586 12.6792 21.7844C12.6792 21.4103 12.3759 21.1069 12.0017 21.1069C11.6275 21.1069 11.3242 21.4103 11.3242 21.7844C11.3242 22.1586 11.6275 22.4619 12.0017 22.4619Z" fill="#FFAE0B"/>
<path d="M12 22.4009C12.369 22.4009 12.668 22.1019 12.668 21.7329C12.668 21.364 12.369 21.0649 12 21.0649C11.6311 21.0649 11.332 21.364 11.332 21.7329C11.332 22.1019 11.6311 22.4009 12 22.4009Z" fill="#FFAF0C"/>
<path d="M12.0022 22.3399C12.3659 22.3399 12.6607 22.0451 12.6607 21.6814C12.6607 21.3178 12.3659 21.0229 12.0022 21.0229C11.6386 21.0229 11.3438 21.3178 11.3438 21.6814C11.3438 22.0451 11.6386 22.3399 12.0022 22.3399Z" fill="#FFB00D"/>
<path d="M12.0001 22.2784C12.3582 22.2784 12.6486 21.9881 12.6486 21.6299C12.6486 21.2718 12.3582 20.9814 12.0001 20.9814C11.6419 20.9814 11.3516 21.2718 11.3516 21.6299C11.3516 21.9881 11.6419 22.2784 12.0001 22.2784Z" fill="#FFB10E"/>
<path d="M12.0023 22.2175C12.3552 22.2175 12.6413 21.9314 12.6413 21.5785C12.6413 21.2255 12.3552 20.9395 12.0023 20.9395C11.6494 20.9395 11.3633 21.2255 11.3633 21.5785C11.3633 21.9314 11.6494 22.2175 12.0023 22.2175Z" fill="#FFB20F"/>
<path d="M12.0006 22.1565C12.3483 22.1565 12.6301 21.8746 12.6301 21.527C12.6301 21.1793 12.3483 20.8975 12.0006 20.8975C11.6529 20.8975 11.3711 21.1793 11.3711 21.527C11.3711 21.8746 11.6529 22.1565 12.0006 22.1565Z" fill="#FFB310"/>
<path d="M12.0023 22.0945C12.3445 22.0945 12.6218 21.8171 12.6218 21.475C12.6218 21.1328 12.3445 20.8555 12.0023 20.8555C11.6602 20.8555 11.3828 21.1328 11.3828 21.475C11.3828 21.8171 11.6602 22.0945 12.0023 22.0945Z" fill="#FFB410"/>
<path d="M12.0006 22.0335C12.3375 22.0335 12.6106 21.7604 12.6106 21.4235C12.6106 21.0866 12.3375 20.8135 12.0006 20.8135C11.6637 20.8135 11.3906 21.0866 11.3906 21.4235C11.3906 21.7604 11.6637 22.0335 12.0006 22.0335Z" fill="#FFB511"/>
<path d="M12.0023 21.972C12.3337 21.972 12.6023 21.7033 12.6023 21.372C12.6023 21.0406 12.3337 20.772 12.0023 20.772C11.671 20.772 11.4023 21.0406 11.4023 21.372C11.4023 21.7033 11.671 21.972 12.0023 21.972Z" fill="#FFB612"/>
<path d="M12.0007 21.911C12.3268 21.911 12.5912 21.6466 12.5912 21.3205C12.5912 20.9944 12.3268 20.73 12.0007 20.73C11.6745 20.73 11.4102 20.9944 11.4102 21.3205C11.4102 21.6466 11.6745 21.911 12.0007 21.911Z" fill="#FFB713"/>
<path d="M11.999 21.85C12.3198 21.85 12.58 21.5899 12.58 21.269C12.58 20.9481 12.3198 20.688 11.999 20.688C11.6781 20.688 11.418 20.9481 11.418 21.269C11.418 21.5899 11.6781 21.85 11.999 21.85Z" fill="#FFB814"/>
<path d="M12.0007 21.788C12.316 21.788 12.5717 21.5323 12.5717 21.217C12.5717 20.9016 12.316 20.646 12.0007 20.646C11.6853 20.646 11.4297 20.9016 11.4297 21.217C11.4297 21.5323 11.6853 21.788 12.0007 21.788Z" fill="#FFB915"/>
<path d="M12.0029 21.727C12.313 21.727 12.5644 21.4756 12.5644 21.1655C12.5644 20.8554 12.313 20.604 12.0029 20.604C11.6928 20.604 11.4414 20.8554 11.4414 21.1655C11.4414 21.4756 11.6928 21.727 12.0029 21.727Z" fill="#FFBA16"/>
<path d="M12.0012 21.666C12.3061 21.666 12.5532 21.4189 12.5532 21.114C12.5532 20.8091 12.3061 20.562 12.0012 20.562C11.6964 20.562 11.4492 20.8091 11.4492 21.114C11.4492 21.4189 11.6964 21.666 12.0012 21.666Z" fill="#FFBB17"/>
<path d="M12.0029 21.6045C12.3023 21.6045 12.5449 21.3618 12.5449 21.0625C12.5449 20.7632 12.3023 20.5205 12.0029 20.5205C11.7036 20.5205 11.4609 20.7632 11.4609 21.0625C11.4609 21.3618 11.7036 21.6045 12.0029 21.6045Z" fill="#FFBC18"/>
<path d="M12.0012 21.5434C12.2953 21.5434 12.5337 21.305 12.5337 21.0109C12.5337 20.7168 12.2953 20.4784 12.0012 20.4784C11.7072 20.4784 11.4688 20.7168 11.4688 21.0109C11.4688 21.305 11.7072 21.5434 12.0012 21.5434Z" fill="#FFBD19"/>
<path d="M11.9996 21.4824C12.2884 21.4824 12.5226 21.2482 12.5226 20.9594C12.5226 20.6706 12.2884 20.4364 11.9996 20.4364C11.7107 20.4364 11.4766 20.6706 11.4766 20.9594C11.4766 21.2482 11.7107 21.4824 11.9996 21.4824Z" fill="#FFBE1A"/>
<path d="M12.0013 21.4204C12.2846 21.4204 12.5143 21.1907 12.5143 20.9074C12.5143 20.6241 12.2846 20.3944 12.0013 20.3944C11.718 20.3944 11.4883 20.6241 11.4883 20.9074C11.4883 21.1907 11.718 21.4204 12.0013 21.4204Z" fill="#FFC01A"/>
<path d="M11.9996 21.3594C12.2777 21.3594 12.5031 21.134 12.5031 20.8559C12.5031 20.5778 12.2777 20.3524 11.9996 20.3524C11.7215 20.3524 11.4961 20.5778 11.4961 20.8559C11.4961 21.134 11.7215 21.3594 11.9996 21.3594Z" fill="#FFC11B"/>
<path d="M12.0013 21.2979C12.2739 21.2979 12.4948 21.077 12.4948 20.8044C12.4948 20.5319 12.2739 20.3109 12.0013 20.3109C11.7288 20.3109 11.5078 20.5319 11.5078 20.8044C11.5078 21.077 11.7288 21.2979 12.0013 21.2979Z" fill="#FFC21C"/>
<path d="M11.9996 21.2369C12.2669 21.2369 12.4836 21.0202 12.4836 20.7529C12.4836 20.4856 12.2669 20.2689 11.9996 20.2689C11.7323 20.2689 11.5156 20.4856 11.5156 20.7529C11.5156 21.0202 11.7323 21.2369 11.9996 21.2369Z" fill="#FFC31D"/>
<path d="M12.0018 21.1759C12.2639 21.1759 12.4763 20.9635 12.4763 20.7014C12.4763 20.4394 12.2639 20.2269 12.0018 20.2269C11.7398 20.2269 11.5273 20.4394 11.5273 20.7014C11.5273 20.9635 11.7398 21.1759 12.0018 21.1759Z" fill="#FFC41E"/>
<path d="M11.9997 21.1139C12.2562 21.1139 12.4642 20.906 12.4642 20.6494C12.4642 20.3929 12.2562 20.1849 11.9997 20.1849C11.7431 20.1849 11.5352 20.3929 11.5352 20.6494C11.5352 20.906 11.7431 21.1139 11.9997 21.1139Z" fill="#FFC51F"/>
<path d="M12.0019 21.0529C12.2532 21.0529 12.4569 20.8492 12.4569 20.5979C12.4569 20.3467 12.2532 20.1429 12.0019 20.1429C11.7506 20.1429 11.5469 20.3467 11.5469 20.5979C11.5469 20.8492 11.7506 21.0529 12.0019 21.0529Z" fill="#FFC620"/>
<path d="M12.0002 20.992C12.2462 20.992 12.4457 20.7925 12.4457 20.5465C12.4457 20.3004 12.2462 20.101 12.0002 20.101C11.7541 20.101 11.5547 20.3004 11.5547 20.5465C11.5547 20.7925 11.7541 20.992 12.0002 20.992Z" fill="#FFC721"/>
<path d="M12.0019 20.9305C12.2424 20.9305 12.4374 20.7355 12.4374 20.495C12.4374 20.2544 12.2424 20.0594 12.0019 20.0594C11.7614 20.0594 11.5664 20.2544 11.5664 20.495C11.5664 20.7355 11.7614 20.9305 12.0019 20.9305Z" fill="#FFC822"/>
<path d="M12.0002 20.8695C12.2355 20.8695 12.4262 20.6787 12.4262 20.4435C12.4262 20.2082 12.2355 20.0175 12.0002 20.0175C11.7649 20.0175 11.5742 20.2082 11.5742 20.4435C11.5742 20.6787 11.7649 20.8695 12.0002 20.8695Z" fill="#FFC923"/>
<path d="M12.0024 20.8085C12.2325 20.8085 12.4189 20.622 12.4189 20.392C12.4189 20.1619 12.2325 19.9755 12.0024 19.9755C11.7724 19.9755 11.5859 20.1619 11.5859 20.392C11.5859 20.622 11.7724 20.8085 12.0024 20.8085Z" fill="#FFCA24"/>
<path d="M12.0002 20.7465C12.2248 20.7465 12.4067 20.5645 12.4067 20.34C12.4067 20.1155 12.2248 19.9335 12.0002 19.9335C11.7757 19.9335 11.5938 20.1155 11.5938 20.34C11.5938 20.5645 11.7757 20.7465 12.0002 20.7465Z" fill="#FFCB24"/>
<path d="M12.0025 20.6855C12.2217 20.6855 12.3995 20.5077 12.3995 20.2885C12.3995 20.0692 12.2217 19.8915 12.0025 19.8915C11.7832 19.8915 11.6055 20.0692 11.6055 20.2885C11.6055 20.5077 11.7832 20.6855 12.0025 20.6855Z" fill="#FFCC25"/>
<path d="M12.0003 20.624C12.214 20.624 12.3873 20.4507 12.3873 20.237C12.3873 20.0232 12.214 19.85 12.0003 19.85C11.7865 19.85 11.6133 20.0232 11.6133 20.237C11.6133 20.4507 11.7865 20.624 12.0003 20.624Z" fill="#FFCD26"/>
<path d="M12.0025 20.563C12.211 20.563 12.38 20.394 12.38 20.1855C12.38 19.977 12.211 19.808 12.0025 19.808C11.794 19.808 11.625 19.977 11.625 20.1855C11.625 20.394 11.794 20.563 12.0025 20.563Z" fill="#FFCE27"/>
<path d="M12.0008 20.502C12.2041 20.502 12.3688 20.3372 12.3688 20.134C12.3688 19.9308 12.2041 19.766 12.0008 19.766C11.7976 19.766 11.6328 19.9308 11.6328 20.134C11.6328 20.3372 11.7976 20.502 12.0008 20.502Z" fill="#FFCF28"/>
<path d="M11.9986 20.4399C12.1963 20.4399 12.3566 20.2796 12.3566 20.0819C12.3566 19.8842 12.1963 19.7239 11.9986 19.7239C11.8009 19.7239 11.6406 19.8842 11.6406 20.0819C11.6406 20.2796 11.8009 20.4399 11.9986 20.4399Z" fill="#FFD029"/>
<path d="M12.0008 20.379C12.1933 20.379 12.3493 20.223 12.3493 20.0305C12.3493 19.838 12.1933 19.682 12.0008 19.682C11.8084 19.682 11.6523 19.838 11.6523 20.0305C11.6523 20.223 11.8084 20.379 12.0008 20.379Z" fill="#FFD12A"/>
<path d="M11.9992 20.3179C12.1864 20.3179 12.3382 20.1661 12.3382 19.9789C12.3382 19.7917 12.1864 19.6399 11.9992 19.6399C11.8119 19.6399 11.6602 19.7917 11.6602 19.9789C11.6602 20.1661 11.8119 20.3179 11.9992 20.3179Z" fill="#FFD22B"/>
<path d="M12.0009 20.2565C12.1826 20.2565 12.3299 20.1092 12.3299 19.9275C12.3299 19.7458 12.1826 19.5985 12.0009 19.5985C11.8192 19.5985 11.6719 19.7458 11.6719 19.9275C11.6719 20.1092 11.8192 20.2565 12.0009 20.2565Z" fill="#FFD32C"/>
<path d="M11.9992 20.1954C12.1756 20.1954 12.3187 20.0524 12.3187 19.8759C12.3187 19.6994 12.1756 19.5564 11.9992 19.5564C11.8227 19.5564 11.6797 19.6994 11.6797 19.8759C11.6797 20.0524 11.8227 20.1954 11.9992 20.1954Z" fill="#FFD42D"/>
<path d="M12.0009 20.1339C12.1718 20.1339 12.3104 19.9953 12.3104 19.8244C12.3104 19.6535 12.1718 19.5149 12.0009 19.5149C11.83 19.5149 11.6914 19.6535 11.6914 19.8244C11.6914 19.9953 11.83 20.1339 12.0009 20.1339Z" fill="#FFD52E"/>
<path d="M12.0031 20.0724C12.1688 20.0724 12.3031 19.9381 12.3031 19.7724C12.3031 19.6067 12.1688 19.4724 12.0031 19.4724C11.8374 19.4724 11.7031 19.6067 11.7031 19.7724C11.7031 19.9381 11.8374 20.0724 12.0031 20.0724Z" fill="#FFD62F"/>
<path d="M12.0014 20.0114C12.1619 20.0114 12.2919 19.8814 12.2919 19.7209C12.2919 19.5605 12.1619 19.4304 12.0014 19.4304C11.841 19.4304 11.7109 19.5605 11.7109 19.7209C11.7109 19.8814 11.841 20.0114 12.0014 20.0114Z" fill="#FFD72F"/>
<path d="M11.9992 19.9499C12.1542 19.9499 12.2797 19.8243 12.2797 19.6694C12.2797 19.5145 12.1542 19.3889 11.9992 19.3889C11.8443 19.3889 11.7188 19.5145 11.7188 19.6694C11.7188 19.8243 11.8443 19.9499 11.9992 19.9499Z" fill="#FFD830"/>
<path d="M12.0015 19.8889C12.1511 19.8889 12.2725 19.7676 12.2725 19.6179C12.2725 19.4683 12.1511 19.3469 12.0015 19.3469C11.8518 19.3469 11.7305 19.4683 11.7305 19.6179C11.7305 19.7676 11.8518 19.8889 12.0015 19.8889Z" fill="#FFD931"/>
<path d="M11.9998 19.8279C12.1442 19.8279 12.2613 19.7109 12.2613 19.5664C12.2613 19.422 12.1442 19.3049 11.9998 19.3049C11.8554 19.3049 11.7383 19.422 11.7383 19.5664C11.7383 19.7109 11.8554 19.8279 11.9998 19.8279Z" fill="#FFDA32"/>
<path d="M12.0015 19.7664C12.1404 19.7664 12.253 19.6538 12.253 19.5149C12.253 19.376 12.1404 19.2634 12.0015 19.2634C11.8626 19.2634 11.75 19.376 11.75 19.5149C11.75 19.6538 11.8626 19.7664 12.0015 19.7664Z" fill="#FFDB33"/>
<path d="M11.9998 19.7049C12.1335 19.7049 12.2418 19.5966 12.2418 19.4629C12.2418 19.3293 12.1335 19.2209 11.9998 19.2209C11.8662 19.2209 11.7578 19.3293 11.7578 19.4629C11.7578 19.5966 11.8662 19.7049 11.9998 19.7049Z" fill="#FFDC34"/>
<path d="M2.669 16.698C3.10751 16.698 3.463 16.3425 3.463 15.904C3.463 15.4655 3.10751 15.11 2.669 15.11C2.23049 15.11 1.875 15.4655 1.875 15.904C1.875 16.3425 2.23049 16.698 2.669 16.698Z" fill="#FFA200"/>
<path d="M2.72 16.6669C3.15216 16.6669 3.5025 16.3166 3.5025 15.8844C3.5025 15.4523 3.15216 15.1019 2.72 15.1019C2.28784 15.1019 1.9375 15.4523 1.9375 15.8844C1.9375 16.3166 2.28784 16.6669 2.72 16.6669Z" fill="#FFA301"/>
<path d="M2.76759 16.637C3.19368 16.637 3.53909 16.2916 3.53909 15.8655C3.53909 15.4394 3.19368 15.094 2.76759 15.094C2.34151 15.094 1.99609 15.4394 1.99609 15.8655C1.99609 16.2916 2.34151 16.637 2.76759 16.637Z" fill="#FFA402"/>
<path d="M2.81859 16.6059C3.23833 16.6059 3.57859 16.2657 3.57859 15.8459C3.57859 15.4262 3.23833 15.0859 2.81859 15.0859C2.39886 15.0859 2.05859 15.4262 2.05859 15.8459C2.05859 16.2657 2.39886 16.6059 2.81859 16.6059Z" fill="#FFA603"/>
<path d="M2.87009 16.576C3.28375 16.576 3.61909 16.2407 3.61909 15.827C3.61909 15.4133 3.28375 15.078 2.87009 15.078C2.45643 15.078 2.12109 15.4133 2.12109 15.827C2.12109 16.2407 2.45643 16.576 2.87009 16.576Z" fill="#FFA704"/>
<path d="M2.91719 16.5454C3.3245 16.5454 3.65469 16.2152 3.65469 15.8079C3.65469 15.4006 3.3245 15.0704 2.91719 15.0704C2.50988 15.0704 2.17969 15.4006 2.17969 15.8079C2.17969 16.2152 2.50988 16.5454 2.91719 16.5454Z" fill="#FFA805"/>
<path d="M2.96869 16.5149C3.36992 16.5149 3.69519 16.1896 3.69519 15.7884C3.69519 15.3872 3.36992 15.0619 2.96869 15.0619C2.56745 15.0619 2.24219 15.3872 2.24219 15.7884C2.24219 16.1896 2.56745 16.5149 2.96869 16.5149Z" fill="#FFA906"/>
<path d="M3.01969 16.4844C3.41457 16.4844 3.73469 16.1643 3.73469 15.7694C3.73469 15.3746 3.41457 15.0544 3.01969 15.0544C2.6248 15.0544 2.30469 15.3746 2.30469 15.7694C2.30469 16.1643 2.6248 16.4844 3.01969 16.4844Z" fill="#FFAA07"/>
<path d="M3.06728 16.4539C3.45609 16.4539 3.77128 16.1387 3.77128 15.7499C3.77128 15.3611 3.45609 15.0459 3.06728 15.0459C2.67847 15.0459 2.36328 15.3611 2.36328 15.7499C2.36328 16.1387 2.67847 16.4539 3.06728 16.4539Z" fill="#FFAB08"/>
<path d="M3.11828 16.4235C3.50074 16.4235 3.81078 16.1134 3.81078 15.731C3.81078 15.3485 3.50074 15.0385 3.11828 15.0385C2.73582 15.0385 2.42578 15.3485 2.42578 15.731C2.42578 16.1134 2.73582 16.4235 3.11828 16.4235Z" fill="#FFAD0A"/>
<path d="M3.16587 16.3934C3.54226 16.3934 3.84737 16.0883 3.84737 15.7119C3.84737 15.3355 3.54226 15.0304 3.16587 15.0304C2.78949 15.0304 2.48438 15.3355 2.48438 15.7119C2.48438 16.0883 2.78949 16.3934 3.16587 16.3934Z" fill="#FFAE0B"/>
<path d="M3.21687 16.3625C3.58691 16.3625 3.88687 16.0625 3.88687 15.6925C3.88687 15.3224 3.58691 15.0225 3.21687 15.0225C2.84684 15.0225 2.54688 15.3224 2.54688 15.6925C2.54688 16.0625 2.84684 16.3625 3.21687 16.3625Z" fill="#FFAF0C"/>
<path d="M3.26788 16.3319C3.63155 16.3319 3.92638 16.0371 3.92638 15.6734C3.92638 15.3097 3.63155 15.0149 3.26788 15.0149C2.9042 15.0149 2.60938 15.3097 2.60938 15.6734C2.60938 16.0371 2.9042 16.3319 3.26788 16.3319Z" fill="#FFB00D"/>
<path d="M3.31547 16.3015C3.67307 16.3015 3.96297 16.0116 3.96297 15.654C3.96297 15.2964 3.67307 15.0065 3.31547 15.0065C2.95786 15.0065 2.66797 15.2964 2.66797 15.654C2.66797 16.0116 2.95786 16.3015 3.31547 16.3015Z" fill="#FFB10E"/>
<path d="M3.36647 16.2709C3.71772 16.2709 4.00247 15.9862 4.00247 15.6349C4.00247 15.2836 3.71772 14.9989 3.36647 14.9989C3.01522 14.9989 2.73047 15.2836 2.73047 15.6349C2.73047 15.9862 3.01522 16.2709 3.36647 16.2709Z" fill="#FFB30F"/>
<path d="M3.41797 16.241C3.76315 16.241 4.04297 15.9611 4.04297 15.616C4.04297 15.2708 3.76315 14.991 3.41797 14.991C3.07279 14.991 2.79297 15.2708 2.79297 15.616C2.79297 15.9611 3.07279 16.241 3.41797 16.241Z" fill="#FFB410"/>
<path d="M3.46506 16.2099C3.80389 16.2099 4.07856 15.9352 4.07856 15.5964C4.07856 15.2576 3.80389 14.9829 3.46506 14.9829C3.12624 14.9829 2.85156 15.2576 2.85156 15.5964C2.85156 15.9352 3.12624 16.2099 3.46506 16.2099Z" fill="#FFB511"/>
<path d="M3.51656 16.18C3.84931 16.18 4.11906 15.9102 4.11906 15.5775C4.11906 15.2447 3.84931 14.975 3.51656 14.975C3.18381 14.975 2.91406 15.2447 2.91406 15.5775C2.91406 15.9102 3.18381 16.18 3.51656 16.18Z" fill="#FFB612"/>
<path d="M3.56366 16.1489C3.89006 16.1489 4.15466 15.8843 4.15466 15.5579C4.15466 15.2315 3.89006 14.9669 3.56366 14.9669C3.23726 14.9669 2.97266 15.2315 2.97266 15.5579C2.97266 15.8843 3.23726 16.1489 3.56366 16.1489Z" fill="#FFB713"/>
<path d="M3.61516 16.119C3.93548 16.119 4.19516 15.8593 4.19516 15.539C4.19516 15.2187 3.93548 14.959 3.61516 14.959C3.29483 14.959 3.03516 15.2187 3.03516 15.539C3.03516 15.8593 3.29483 16.119 3.61516 16.119Z" fill="#FFB814"/>
<path d="M3.66616 16.0884C3.98013 16.0884 4.23466 15.8339 4.23466 15.5199C4.23466 15.2059 3.98013 14.9514 3.66616 14.9514C3.35218 14.9514 3.09766 15.2059 3.09766 15.5199C3.09766 15.8339 3.35218 16.0884 3.66616 16.0884Z" fill="#FFBA15"/>
<path d="M3.71375 16.058C4.02165 16.058 4.27125 15.8084 4.27125 15.5005C4.27125 15.1926 4.02165 14.943 3.71375 14.943C3.40585 14.943 3.15625 15.1926 3.15625 15.5005C3.15625 15.8084 3.40585 16.058 3.71375 16.058Z" fill="#FFBB16"/>
<path d="M3.76475 16.0274C4.0663 16.0274 4.31075 15.783 4.31075 15.4814C4.31075 15.1799 4.0663 14.9354 3.76475 14.9354C3.4632 14.9354 3.21875 15.1799 3.21875 15.4814C3.21875 15.783 3.4632 16.0274 3.76475 16.0274Z" fill="#FFBC17"/>
<path d="M3.81625 15.9975C4.11172 15.9975 4.35125 15.758 4.35125 15.4625C4.35125 15.167 4.11172 14.9275 3.81625 14.9275C3.52078 14.9275 3.28125 15.167 3.28125 15.4625C3.28125 15.758 3.52078 15.9975 3.81625 15.9975Z" fill="#FFBD18"/>
<path d="M3.86334 15.9664C4.15246 15.9664 4.38684 15.7321 4.38684 15.4429C4.38684 15.1538 4.15246 14.9194 3.86334 14.9194C3.57422 14.9194 3.33984 15.1538 3.33984 15.4429C3.33984 15.7321 3.57422 15.9664 3.86334 15.9664Z" fill="#FFBE19"/>
<path d="M3.91484 15.9365C4.19789 15.9365 4.42734 15.707 4.42734 15.424C4.42734 15.141 4.19789 14.9115 3.91484 14.9115C3.6318 14.9115 3.40234 15.141 3.40234 15.424C3.40234 15.707 3.6318 15.9365 3.91484 15.9365Z" fill="#FFC01B"/>
<path d="M3.96584 15.9054C4.24254 15.9054 4.46684 15.6811 4.46684 15.4044C4.46684 15.1277 4.24254 14.9034 3.96584 14.9034C3.68915 14.9034 3.46484 15.1277 3.46484 15.4044C3.46484 15.6811 3.68915 15.9054 3.96584 15.9054Z" fill="#FFC11C"/>
<path d="M4.01344 15.8755C4.28406 15.8755 4.50344 15.6561 4.50344 15.3855C4.50344 15.1149 4.28406 14.8955 4.01344 14.8955C3.74282 14.8955 3.52344 15.1149 3.52344 15.3855C3.52344 15.6561 3.74282 15.8755 4.01344 15.8755Z" fill="#FFC21D"/>
<path d="M4.06444 15.8449C4.32871 15.8449 4.54294 15.6307 4.54294 15.3664C4.54294 15.1022 4.32871 14.8879 4.06444 14.8879C3.80017 14.8879 3.58594 15.1022 3.58594 15.3664C3.58594 15.6307 3.80017 15.8449 4.06444 15.8449Z" fill="#FFC31E"/>
<path d="M4.11153 15.8139C4.36945 15.8139 4.57853 15.6048 4.57853 15.3469C4.57853 15.089 4.36945 14.8799 4.11153 14.8799C3.85361 14.8799 3.64453 15.089 3.64453 15.3469C3.64453 15.6048 3.85361 15.8139 4.11153 15.8139Z" fill="#FFC41F"/>
<path d="M4.16303 15.7839C4.41487 15.7839 4.61903 15.5798 4.61903 15.3279C4.61903 15.0761 4.41487 14.8719 4.16303 14.8719C3.91119 14.8719 3.70703 15.0761 3.70703 15.3279C3.70703 15.5798 3.91119 15.7839 4.16303 15.7839Z" fill="#FFC620"/>
<path d="M4.21403 15.7529C4.45952 15.7529 4.65853 15.5539 4.65853 15.3084C4.65853 15.0629 4.45952 14.8639 4.21403 14.8639C3.96854 14.8639 3.76953 15.0629 3.76953 15.3084C3.76953 15.5539 3.96854 15.7529 4.21403 15.7529Z" fill="#FFC721"/>
<path d="M4.26162 15.723C4.50104 15.723 4.69512 15.5289 4.69512 15.2895C4.69512 15.05 4.50104 14.856 4.26162 14.856C4.02221 14.856 3.82812 15.05 3.82812 15.2895C3.82812 15.5289 4.02221 15.723 4.26162 15.723Z" fill="#FFC822"/>
<path d="M4.31263 15.6924C4.54569 15.6924 4.73462 15.5035 4.73462 15.2704C4.73462 15.0373 4.54569 14.8484 4.31263 14.8484C4.07956 14.8484 3.89062 15.0373 3.89062 15.2704C3.89062 15.5035 4.07956 15.6924 4.31263 15.6924Z" fill="#FFC923"/>
<path d="M4.36022 15.662C4.58721 15.662 4.77122 15.478 4.77122 15.251C4.77122 15.024 4.58721 14.84 4.36022 14.84C4.13323 14.84 3.94922 15.024 3.94922 15.251C3.94922 15.478 4.13323 15.662 4.36022 15.662Z" fill="#FFCA24"/>
<path d="M4.41122 15.6315C4.63186 15.6315 4.81072 15.4527 4.81072 15.232C4.81072 15.0114 4.63186 14.8325 4.41122 14.8325C4.19058 14.8325 4.01172 15.0114 4.01172 15.232C4.01172 15.4527 4.19058 15.6315 4.41122 15.6315Z" fill="#FFCB25"/>
<path d="M4.46272 15.601C4.67728 15.601 4.85122 15.427 4.85122 15.2125C4.85122 14.9979 4.67728 14.824 4.46272 14.824C4.24816 14.824 4.07422 14.9979 4.07422 15.2125C4.07422 15.427 4.24816 15.601 4.46272 15.601Z" fill="#FFCD26"/>
<path d="M4.50981 15.5704C4.71802 15.5704 4.88681 15.4016 4.88681 15.1934C4.88681 14.9852 4.71802 14.8164 4.50981 14.8164C4.3016 14.8164 4.13281 14.9852 4.13281 15.1934C4.13281 15.4016 4.3016 15.5704 4.50981 15.5704Z" fill="#FFCE27"/>
<path d="M4.56131 15.5405C4.76345 15.5405 4.92731 15.3766 4.92731 15.1745C4.92731 14.9723 4.76345 14.8085 4.56131 14.8085C4.35918 14.8085 4.19531 14.9723 4.19531 15.1745C4.19531 15.3766 4.35918 15.5405 4.56131 15.5405Z" fill="#FFCF28"/>
<path d="M4.61231 15.5094C4.8081 15.5094 4.96681 15.3507 4.96681 15.1549C4.96681 14.9591 4.8081 14.8004 4.61231 14.8004C4.41653 14.8004 4.25781 14.9591 4.25781 15.1549C4.25781 15.3507 4.41653 15.5094 4.61231 15.5094Z" fill="#FFD029"/>
<path d="M4.65991 15.4795C4.84962 15.4795 5.00341 15.3257 5.00341 15.136C5.00341 14.9463 4.84962 14.7925 4.65991 14.7925C4.4702 14.7925 4.31641 14.9463 4.31641 15.136C4.31641 15.3257 4.4702 15.4795 4.65991 15.4795Z" fill="#FFD12A"/>
<path d="M4.71091 15.4484C4.89426 15.4484 5.04291 15.2998 5.04291 15.1164C5.04291 14.9331 4.89426 14.7844 4.71091 14.7844C4.52755 14.7844 4.37891 14.9331 4.37891 15.1164C4.37891 15.2998 4.52755 15.4484 4.71091 15.4484Z" fill="#FFD32C"/>
<path d="M4.76241 15.4185C4.93969 15.4185 5.08341 15.2748 5.08341 15.0975C5.08341 14.9202 4.93969 14.7765 4.76241 14.7765C4.58512 14.7765 4.44141 14.9202 4.44141 15.0975C4.44141 15.2748 4.58512 15.4185 4.76241 15.4185Z" fill="#FFD42D"/>
<path d="M4.8095 15.3879C4.98043 15.3879 5.119 15.2494 5.119 15.0784C5.119 14.9075 4.98043 14.7689 4.8095 14.7689C4.63857 14.7689 4.5 14.9075 4.5 15.0784C4.5 15.2494 4.63857 15.3879 4.8095 15.3879Z" fill="#FFD52E"/>
<path d="M4.861 15.3575C5.02586 15.3575 5.1595 15.2239 5.1595 15.059C5.1595 14.8941 5.02586 14.7605 4.861 14.7605C4.69614 14.7605 4.5625 14.8941 4.5625 15.059C4.5625 15.2239 4.69614 15.3575 4.861 15.3575Z" fill="#FFD62F"/>
<path d="M4.90809 15.3269C5.0666 15.3269 5.1951 15.1984 5.1951 15.0399C5.1951 14.8814 5.0666 14.7529 4.90809 14.7529C4.74959 14.7529 4.62109 14.8814 4.62109 15.0399C4.62109 15.1984 4.74959 15.3269 4.90809 15.3269Z" fill="#FFD730"/>
<path d="M4.95959 15.2964C5.11202 15.2964 5.23559 15.1728 5.23559 15.0204C5.23559 14.868 5.11202 14.7444 4.95959 14.7444C4.80716 14.7444 4.68359 14.868 4.68359 15.0204C4.68359 15.1728 4.80716 15.2964 4.95959 15.2964Z" fill="#FFD831"/>
<path d="M5.01059 15.2659C5.15667 15.2659 5.27509 15.1475 5.27509 15.0014C5.27509 14.8554 5.15667 14.7369 5.01059 14.7369C4.86451 14.7369 4.74609 14.8554 4.74609 15.0014C4.74609 15.1475 4.86451 15.2659 5.01059 15.2659Z" fill="#FFDA32"/>
<path d="M5.06159 15.2355C5.20132 15.2355 5.31459 15.1222 5.31459 14.9825C5.31459 14.8428 5.20132 14.7295 5.06159 14.7295C4.92187 14.7295 4.80859 14.8428 4.80859 14.9825C4.80859 15.1222 4.92187 15.2355 5.06159 15.2355Z" fill="#FFDB33"/>
<path d="M5.10919 15.2049C5.24284 15.2049 5.35119 15.0966 5.35119 14.9629C5.35119 14.8293 5.24284 14.7209 5.10919 14.7209C4.97553 14.7209 4.86719 14.8293 4.86719 14.9629C4.86719 15.0966 4.97553 15.2049 5.10919 15.2049Z" fill="#FFDC34"/>
<path d="M4.66509 4.69799C5.10361 4.69799 5.45909 4.3425 5.45909 3.90399C5.45909 3.46547 5.10361 3.10999 4.66509 3.10999C4.22658 3.10999 3.87109 3.46547 3.87109 3.90399C3.87109 4.3425 4.22658 4.69799 4.66509 4.69799Z" fill="#FFA200"/>
<path d="M4.71219 4.72845C5.14435 4.72845 5.49469 4.37812 5.49469 3.94595C5.49469 3.51379 5.14435 3.16345 4.71219 3.16345C4.28002 3.16345 3.92969 3.51379 3.92969 3.94595C3.92969 4.37812 4.28002 4.72845 4.71219 4.72845Z" fill="#FFA301"/>
<path d="M4.76369 4.75943C5.18978 4.75943 5.53519 4.41402 5.53519 3.98793C5.53519 3.56184 5.18978 3.21643 4.76369 3.21643C4.3376 3.21643 3.99219 3.56184 3.99219 3.98793C3.99219 4.41402 4.3376 4.75943 4.76369 4.75943Z" fill="#FFA402"/>
<path d="M4.81469 4.79002C5.23442 4.79002 5.57469 4.44976 5.57469 4.03002C5.57469 3.61028 5.23442 3.27002 4.81469 3.27002C4.39495 3.27002 4.05469 3.61028 4.05469 4.03002C4.05469 4.44976 4.39495 4.79002 4.81469 4.79002Z" fill="#FFA603"/>
<path d="M4.86619 4.821C5.27985 4.821 5.61519 4.48566 5.61519 4.072C5.61519 3.65834 5.27985 3.323 4.86619 3.323C4.45253 3.323 4.11719 3.65834 4.11719 4.072C4.11719 4.48566 4.45253 4.821 4.86619 4.821Z" fill="#FFA704"/>
<path d="M4.91328 4.85146C5.32059 4.85146 5.65078 4.52127 5.65078 4.11396C5.65078 3.70665 5.32059 3.37646 4.91328 3.37646C4.50597 3.37646 4.17578 3.70665 4.17578 4.11396C4.17578 4.52127 4.50597 4.85146 4.91328 4.85146Z" fill="#FFA805"/>
<path d="M4.96478 4.88244C5.36602 4.88244 5.69128 4.55718 5.69128 4.15594C5.69128 3.75471 5.36602 3.42944 4.96478 3.42944C4.56355 3.42944 4.23828 3.75471 4.23828 4.15594C4.23828 4.55718 4.56355 4.88244 4.96478 4.88244Z" fill="#FFA906"/>
<path d="M5.01578 4.91303C5.41067 4.91303 5.73078 4.59292 5.73078 4.19803C5.73078 3.80315 5.41067 3.48303 5.01578 3.48303C4.6209 3.48303 4.30078 3.80315 4.30078 4.19803C4.30078 4.59292 4.6209 4.91303 5.01578 4.91303Z" fill="#FFAA07"/>
<path d="M5.06337 4.94401C5.45218 4.94401 5.76737 4.62882 5.76737 4.24001C5.76737 3.8512 5.45218 3.53601 5.06337 3.53601C4.67457 3.53601 4.35938 3.8512 4.35938 4.24001C4.35938 4.62882 4.67457 4.94401 5.06337 4.94401Z" fill="#FFAB08"/>
<path d="M5.11437 4.97448C5.49683 4.97448 5.80688 4.66443 5.80688 4.28198C5.80688 3.89952 5.49683 3.58948 5.11437 3.58948C4.73192 3.58948 4.42188 3.89952 4.42188 4.28198C4.42188 4.66443 4.73192 4.97448 5.11437 4.97448Z" fill="#FFAD0A"/>
<path d="M5.16197 5.00546C5.53835 5.00546 5.84347 4.70034 5.84347 4.32396C5.84347 3.94757 5.53835 3.64246 5.16197 3.64246C4.78559 3.64246 4.48047 3.94757 4.48047 4.32396C4.48047 4.70034 4.78559 5.00546 5.16197 5.00546Z" fill="#FFAE0B"/>
<path d="M5.21297 5.03592C5.583 5.03592 5.88297 4.73595 5.88297 4.36592C5.88297 3.99589 5.583 3.69592 5.21297 3.69592C4.84294 3.69592 4.54297 3.99589 4.54297 4.36592C4.54297 4.73595 4.84294 5.03592 5.21297 5.03592Z" fill="#FFAF0C"/>
<path d="M5.26397 5.06651C5.62765 5.06651 5.92247 4.77169 5.92247 4.40801C5.92247 4.04433 5.62765 3.74951 5.26397 3.74951C4.90029 3.74951 4.60547 4.04433 4.60547 4.40801C4.60547 4.77169 4.90029 5.06651 5.26397 5.06651Z" fill="#FFB00D"/>
<path d="M5.31156 5.09749C5.66917 5.09749 5.95906 4.80759 5.95906 4.44999C5.95906 4.09239 5.66917 3.80249 5.31156 3.80249C4.95396 3.80249 4.66406 4.09239 4.66406 4.44999C4.66406 4.80759 4.95396 5.09749 5.31156 5.09749Z" fill="#FFB10E"/>
<path d="M5.36256 5.12796C5.71382 5.12796 5.99856 4.84321 5.99856 4.49196C5.99856 4.1407 5.71382 3.85596 5.36256 3.85596C5.01131 3.85596 4.72656 4.1407 4.72656 4.49196C4.72656 4.84321 5.01131 5.12796 5.36256 5.12796Z" fill="#FFB30F"/>
<path d="M5.41016 5.15894C5.75533 5.15894 6.03516 4.87911 6.03516 4.53394C6.03516 4.18876 5.75533 3.90894 5.41016 3.90894C5.06498 3.90894 4.78516 4.18876 4.78516 4.53394C4.78516 4.87911 5.06498 5.15894 5.41016 5.15894Z" fill="#FFB410"/>
<path d="M5.46116 5.18952C5.79998 5.18952 6.07466 4.91485 6.07466 4.57602C6.07466 4.2372 5.79998 3.96252 5.46116 3.96252C5.12233 3.96252 4.84766 4.2372 4.84766 4.57602C4.84766 4.91485 5.12233 5.18952 5.46116 5.18952Z" fill="#FFB511"/>
<path d="M5.51266 5.22099C5.84541 5.22099 6.11516 4.95124 6.11516 4.61849C6.11516 4.28574 5.84541 4.01599 5.51266 4.01599C5.1799 4.01599 4.91016 4.28574 4.91016 4.61849C4.91016 4.95124 5.1799 5.22099 5.51266 5.22099Z" fill="#FFB612"/>
<path d="M5.56366 5.25146C5.89006 5.25146 6.15466 4.98686 6.15466 4.66046C6.15466 4.33406 5.89006 4.06946 5.56366 4.06946C5.23726 4.06946 4.97266 4.33406 4.97266 4.66046C4.97266 4.98686 5.23726 5.25146 5.56366 5.25146Z" fill="#FFB713"/>
<path d="M5.61125 5.28244C5.93157 5.28244 6.19125 5.02276 6.19125 4.70244C6.19125 4.38211 5.93157 4.12244 5.61125 4.12244C5.29092 4.12244 5.03125 4.38211 5.03125 4.70244C5.03125 5.02276 5.29092 5.28244 5.61125 5.28244Z" fill="#FFB814"/>
<path d="M5.66225 5.31302C5.97622 5.31302 6.23075 5.0585 6.23075 4.74453C6.23075 4.43055 5.97622 4.17603 5.66225 4.17603C5.34828 4.17603 5.09375 4.43055 5.09375 4.74453C5.09375 5.0585 5.34828 5.31302 5.66225 5.31302Z" fill="#FFBA15"/>
<path d="M5.70984 5.344C6.01774 5.344 6.26734 5.0944 6.26734 4.7865C6.26734 4.47861 6.01774 4.229 5.70984 4.229C5.40194 4.229 5.15234 4.47861 5.15234 4.7865C5.15234 5.0944 5.40194 5.344 5.70984 5.344Z" fill="#FFBB16"/>
<path d="M5.76084 5.37447C6.06239 5.37447 6.30684 5.13002 6.30684 4.82847C6.30684 4.52692 6.06239 4.28247 5.76084 4.28247C5.4593 4.28247 5.21484 4.52692 5.21484 4.82847C5.21484 5.13002 5.4593 5.37447 5.76084 5.37447Z" fill="#FFBC17"/>
<path d="M5.81234 5.40545C6.10782 5.40545 6.34734 5.16592 6.34734 4.87045C6.34734 4.57498 6.10782 4.33545 5.81234 4.33545C5.51687 4.33545 5.27734 4.57498 5.27734 4.87045C5.27734 5.16592 5.51687 5.40545 5.81234 5.40545Z" fill="#FFBD18"/>
<path d="M5.85944 5.43592C6.14856 5.43592 6.38294 5.20154 6.38294 4.91242C6.38294 4.62329 6.14856 4.38892 5.85944 4.38892C5.57032 4.38892 5.33594 4.62329 5.33594 4.91242C5.33594 5.20154 5.57032 5.43592 5.85944 5.43592Z" fill="#FFBE19"/>
<path d="M5.91094 5.46702C6.19398 5.46702 6.42344 5.23756 6.42344 4.95452C6.42344 4.67147 6.19398 4.44202 5.91094 4.44202C5.62789 4.44202 5.39844 4.67147 5.39844 4.95452C5.39844 5.23756 5.62789 5.46702 5.91094 5.46702Z" fill="#FFC01B"/>
<path d="M5.96194 5.49748C6.23863 5.49748 6.46294 5.27318 6.46294 4.99648C6.46294 4.71979 6.23863 4.49548 5.96194 4.49548C5.68524 4.49548 5.46094 4.71979 5.46094 4.99648C5.46094 5.27318 5.68524 5.49748 5.96194 5.49748Z" fill="#FFC11C"/>
<path d="M6.00953 5.52846C6.28015 5.52846 6.49953 5.30908 6.49953 5.03846C6.49953 4.76784 6.28015 4.54846 6.00953 4.54846C5.73891 4.54846 5.51953 4.76784 5.51953 5.03846C5.51953 5.30908 5.73891 5.52846 6.00953 5.52846Z" fill="#FFC21D"/>
<path d="M6.06053 5.55905C6.3248 5.55905 6.53903 5.34482 6.53903 5.08055C6.53903 4.81628 6.3248 4.60205 6.06053 4.60205C5.79626 4.60205 5.58203 4.81628 5.58203 5.08055C5.58203 5.34482 5.79626 5.55905 6.06053 5.55905Z" fill="#FFC31E"/>
<path d="M6.10763 5.58952C6.36554 5.58952 6.57463 5.38043 6.57463 5.12252C6.57463 4.8646 6.36554 4.65552 6.10763 4.65552C5.84971 4.65552 5.64062 4.8646 5.64062 5.12252C5.64062 5.38043 5.84971 5.58952 6.10763 5.58952Z" fill="#FFC41F"/>
<path d="M6.15913 5.6205C6.41097 5.6205 6.61513 5.41634 6.61513 5.1645C6.61513 4.91265 6.41097 4.7085 6.15913 4.7085C5.90728 4.7085 5.70312 4.91265 5.70312 5.1645C5.70312 5.41634 5.90728 5.6205 6.15913 5.6205Z" fill="#FFC620"/>
<path d="M6.21012 5.65096C6.45562 5.65096 6.65462 5.45195 6.65462 5.20646C6.65462 4.96097 6.45562 4.76196 6.21012 4.76196C5.96463 4.76196 5.76562 4.96097 5.76562 5.20646C5.76562 5.45195 5.96463 5.65096 6.21012 5.65096Z" fill="#FFC721"/>
<path d="M6.25772 5.68194C6.49713 5.68194 6.69122 5.48786 6.69122 5.24844C6.69122 5.00903 6.49713 4.81494 6.25772 4.81494C6.0183 4.81494 5.82422 5.00903 5.82422 5.24844C5.82422 5.48786 6.0183 5.68194 6.25772 5.68194Z" fill="#FFC822"/>
<path d="M6.30872 5.71253C6.54178 5.71253 6.73072 5.52359 6.73072 5.29053C6.73072 5.05747 6.54178 4.86853 6.30872 4.86853C6.07565 4.86853 5.88672 5.05747 5.88672 5.29053C5.88672 5.52359 6.07565 5.71253 6.30872 5.71253Z" fill="#FFC923"/>
<path d="M6.35631 5.74351C6.5833 5.74351 6.76731 5.5595 6.76731 5.33251C6.76731 5.10552 6.5833 4.92151 6.35631 4.92151C6.12932 4.92151 5.94531 5.10552 5.94531 5.33251C5.94531 5.5595 6.12932 5.74351 6.35631 5.74351Z" fill="#FFCA24"/>
<path d="M6.40731 5.77446C6.62795 5.77446 6.80681 5.5956 6.80681 5.37496C6.80681 5.15433 6.62795 4.97546 6.40731 4.97546C6.18667 4.97546 6.00781 5.15433 6.00781 5.37496C6.00781 5.5956 6.18667 5.77446 6.40731 5.77446Z" fill="#FFCB25"/>
<path d="M6.45881 5.80544C6.67337 5.80544 6.84731 5.6315 6.84731 5.41694C6.84731 5.20238 6.67337 5.02844 6.45881 5.02844C6.24425 5.02844 6.07031 5.20238 6.07031 5.41694C6.07031 5.6315 6.24425 5.80544 6.45881 5.80544Z" fill="#FFCD26"/>
<path d="M6.50591 5.83603C6.71412 5.83603 6.88291 5.66724 6.88291 5.45903C6.88291 5.25082 6.71412 5.08203 6.50591 5.08203C6.29769 5.08203 6.12891 5.25082 6.12891 5.45903C6.12891 5.66724 6.29769 5.83603 6.50591 5.83603Z" fill="#FFCE27"/>
<path d="M6.55741 5.86701C6.75954 5.86701 6.92341 5.70315 6.92341 5.50101C6.92341 5.29887 6.75954 5.13501 6.55741 5.13501C6.35527 5.13501 6.19141 5.29887 6.19141 5.50101C6.19141 5.70315 6.35527 5.86701 6.55741 5.86701Z" fill="#FFCF28"/>
<path d="M6.60841 5.89748C6.80419 5.89748 6.96291 5.73876 6.96291 5.54298C6.96291 5.34719 6.80419 5.18848 6.60841 5.18848C6.41262 5.18848 6.25391 5.34719 6.25391 5.54298C6.25391 5.73876 6.41262 5.89748 6.60841 5.89748Z" fill="#FFD029"/>
<path d="M6.656 5.92846C6.84571 5.92846 6.9995 5.77466 6.9995 5.58496C6.9995 5.39525 6.84571 5.24146 6.656 5.24146C6.46629 5.24146 6.3125 5.39525 6.3125 5.58496C6.3125 5.77466 6.46629 5.92846 6.656 5.92846Z" fill="#FFD12A"/>
<path d="M6.707 5.95904C6.89036 5.95904 7.039 5.8104 7.039 5.62704C7.039 5.44369 6.89036 5.29504 6.707 5.29504C6.52364 5.29504 6.375 5.44369 6.375 5.62704C6.375 5.8104 6.52364 5.95904 6.707 5.95904Z" fill="#FFD32C"/>
<path d="M6.7585 5.99002C6.93578 5.99002 7.0795 5.84631 7.0795 5.66902C7.0795 5.49174 6.93578 5.34802 6.7585 5.34802C6.58122 5.34802 6.4375 5.49174 6.4375 5.66902C6.4375 5.84631 6.58122 5.99002 6.7585 5.99002Z" fill="#FFD42D"/>
<path d="M6.80559 6.02049C6.97653 6.02049 7.11509 5.88192 7.11509 5.71099C7.11509 5.54006 6.97653 5.40149 6.80559 5.40149C6.63466 5.40149 6.49609 5.54006 6.49609 5.71099C6.49609 5.88192 6.63466 6.02049 6.80559 6.02049Z" fill="#FFD52E"/>
<path d="M6.85709 6.05147C7.02195 6.05147 7.15559 5.91782 7.15559 5.75297C7.15559 5.58811 7.02195 5.45447 6.85709 5.45447C6.69224 5.45447 6.55859 5.58811 6.55859 5.75297C6.55859 5.91782 6.69224 6.05147 6.85709 6.05147Z" fill="#FFD62F"/>
<path d="M6.90419 6.08193C7.06269 6.08193 7.19119 5.95344 7.19119 5.79493C7.19119 5.63643 7.06269 5.50793 6.90419 5.50793C6.74568 5.50793 6.61719 5.63643 6.61719 5.79493C6.61719 5.95344 6.74568 6.08193 6.90419 6.08193Z" fill="#FFD730"/>
<path d="M6.95569 6.11303C7.10812 6.11303 7.23169 5.98947 7.23169 5.83703C7.23169 5.6846 7.10812 5.56104 6.95569 5.56104C6.80326 5.56104 6.67969 5.6846 6.67969 5.83703C6.67969 5.98947 6.80326 6.11303 6.95569 6.11303Z" fill="#FFD831"/>
<path d="M7.00669 6.1435C7.15277 6.1435 7.27119 6.02508 7.27119 5.879C7.27119 5.73292 7.15277 5.6145 7.00669 5.6145C6.86061 5.6145 6.74219 5.73292 6.74219 5.879C6.74219 6.02508 6.86061 6.1435 7.00669 6.1435Z" fill="#FFDA32"/>
<path d="M7.05769 6.17397C7.19741 6.17397 7.31069 6.0607 7.31069 5.92097C7.31069 5.78124 7.19741 5.66797 7.05769 5.66797C6.91796 5.66797 6.80469 5.78124 6.80469 5.92097C6.80469 6.0607 6.91796 6.17397 7.05769 6.17397Z" fill="#FFDB33"/>
<path d="M7.10528 6.20495C7.23893 6.20495 7.34728 6.0966 7.34728 5.96295C7.34728 5.82929 7.23893 5.72095 7.10528 5.72095C6.97163 5.72095 6.86328 5.82929 6.86328 5.96295C6.86328 6.0966 6.97163 6.20495 7.10528 6.20495Z" fill="#FFDC34"/>
</svg>
