<svg width="40" height="24" viewBox="0 0 40 24" fill="none" xmlns="http://www.w3.org/2000/svg">
<path d="M2.282 0H37.718C38.9832 0 40 0.998066 40 2.23985V21.7602C40 23.0019 38.9832 24 37.718 24H2.282C1.01685 24 0 23.0019 0 21.7602V2.23985C0 0.998066 1.01685 0 2.282 0Z" fill="#8DC640"/>
<path d="M31.471 11.6093C31.3104 11.7144 31.0749 11.7774 30.7538 11.7774H30.6147H30.4327L30.6789 10.4852H30.8073H30.9144C31.182 10.4852 31.3747 10.5272 31.5031 10.6112C31.6101 10.6743 31.7279 10.8109 31.7279 11.063C31.7279 11.3677 31.5887 11.5253 31.471 11.6093ZM12.557 13.2273H10.1058L10.2664 12.3868H11.8077L11.979 11.4412H10.4483L10.5982 10.6112H13.0494L12.557 13.2273ZM32.7876 9.87579C32.4236 9.63415 31.8777 9.50807 31.1606 9.50807H29.2874L28.5916 13.2168H26.1404L26.301 12.3763H27.7781L27.9494 11.4307H26.4722L26.6328 10.5902H28.1527L28.3561 9.49757H25.2627L24.599 13.0172H23.4644L24.128 9.49757H22.5117L21.8481 13.0172H20.7456L21.4092 9.49757H19.7929L19.0972 13.2063H16.6245L16.7851 12.3658H18.273L18.4442 11.4202H16.9564L17.1169 10.5797H18.6583L18.8617 9.48706H9.21738L8.67147 12.4288L7.57966 9.48706H5.89914L5 14.32H6.6056L7.1515 11.2941L8.2112 14.32H13.9592L14.655 10.6112H15.5541L14.8584 14.32H29.9724L30.4113 11.977L31.1178 14.32H32.7234L31.9848 12.4078L32.156 12.3763C32.5307 12.3027 32.8197 12.1346 33.0124 11.8825C33.2157 11.6303 33.3121 11.3046 33.3121 10.9159C33.3014 10.4431 33.1408 10.1174 32.7876 9.87579Z" fill="white"/>
<path d="M34.1148 13.7533L34.3289 13.7428C34.3717 13.7428 34.4145 13.7323 34.4359 13.7218C34.4573 13.7113 34.4787 13.6903 34.4894 13.6693C34.5001 13.6483 34.5108 13.6273 34.5108 13.5957C34.5108 13.5642 34.4894 13.5327 34.468 13.5117C34.4359 13.4907 34.3931 13.4802 34.3396 13.4802L34.0934 13.4907L34.1148 13.7533ZM34.0291 14.1736L33.9863 13.4171L34.3289 13.3961C34.3931 13.3961 34.4466 13.3961 34.4894 13.4066C34.5215 13.4171 34.5536 13.4381 34.575 13.4697C34.5965 13.5012 34.6072 13.5432 34.6179 13.5852C34.6179 13.6378 34.6072 13.6798 34.575 13.7218C34.5429 13.7638 34.4894 13.7849 34.4145 13.7954C34.4466 13.8059 34.468 13.8164 34.4787 13.8269C34.5108 13.8479 34.5429 13.8794 34.5643 13.9214L34.7035 14.1211L34.575 14.1316L34.468 13.9845C34.4359 13.9424 34.4145 13.9109 34.3931 13.8794C34.3717 13.8584 34.3503 13.8374 34.3396 13.8269C34.3289 13.8164 34.3074 13.8164 34.2967 13.8059C34.286 13.8059 34.2646 13.8059 34.2432 13.8059L34.1255 13.8164L34.1469 14.1526L34.0291 14.1736Z" fill="white"/>
<path d="M33.697 13.8055C33.6863 13.6479 33.7398 13.5009 33.8469 13.3853C33.9539 13.2697 34.1038 13.1962 34.2643 13.1962C34.5962 13.1752 34.8745 13.4273 34.8852 13.753C34.8852 13.7635 34.8852 13.774 34.8852 13.7845C34.8852 14.0892 34.639 14.3519 34.3179 14.3729C33.9967 14.3834 33.7077 14.1312 33.697 13.8055ZM34.2536 13.0701C34.061 13.0806 33.8897 13.1647 33.7612 13.3012C33.6328 13.4378 33.5686 13.6269 33.5793 13.8055C33.6007 14.1943 33.9432 14.499 34.3393 14.4779C34.7353 14.4569 35.0457 14.1207 35.0243 13.732C34.9922 13.3538 34.6497 13.0596 34.2536 13.0701Z" fill="white"/>
</svg>
