<svg width="40" height="24" viewBox="0 0 40 24" fill="none" xmlns="http://www.w3.org/2000/svg">
<path d="M2.282 0H37.718C38.9832 0 40 0.998066 40 2.23985V21.7602C40 23.0019 38.9832 24 37.718 24H2.282C1.01685 24 0 23.0019 0 21.7602V2.23985C0 0.998066 1.01685 0 2.282 0Z" fill="url(#paint0_linear_1373_32819)"/>
<path fill-rule="evenodd" clip-rule="evenodd" d="M25.6776 9.25908C26.2652 9.25908 26.744 8.78916 26.744 8.21243C26.744 7.6357 26.2652 7.16577 25.6776 7.16577C25.0901 7.16577 24.6113 7.6357 24.6113 8.21243C24.6113 8.78916 25.0901 9.25908 25.6776 9.25908ZM17.5059 9.81445C17.4624 9.93193 17.1142 10.8931 16.2763 11.8864V7.6357L14.0457 8.07359V15.7847H16.2763V13.403C16.9183 14.3535 17.2447 15.7847 17.2447 15.7847H19.9215C19.6604 14.706 18.4961 12.7195 18.4961 12.7195C19.5298 11.4272 19.9868 10.0494 20.063 9.82513H17.5059V9.81445ZM23.3817 9.73969C21.3796 9.80377 20.3676 10.6795 20.3676 12.4311V15.7847H22.5439V13.0505C22.5439 12.0039 22.6853 11.5553 23.9475 11.5126V9.77173C23.7408 9.72901 23.3817 9.73969 23.3817 9.73969ZM10.3026 10.6689C10.0305 10.6475 9.39944 10.6155 9.39944 10.0494C9.39944 9.37657 10.3135 9.37657 10.6508 9.37657C11.2492 9.37657 12.0327 9.54745 12.5876 9.71833C12.5876 9.71833 12.8923 9.82513 13.1643 9.93193L13.1861 9.94261V8.09495L13.1534 8.08427C12.5006 7.85998 11.7389 7.64638 10.3243 7.64638C7.88695 7.64638 7.02734 9.04548 7.02734 10.231C7.02734 10.9145 7.33202 12.5379 10.1176 12.7301C10.357 12.7408 10.9772 12.7835 10.9772 13.3603C10.9772 13.8409 10.4658 14.1186 9.5953 14.1186C8.64864 14.1186 7.72374 13.8836 7.1688 13.6593V15.5497C8.00665 15.7633 8.94243 15.8701 10.0523 15.8701C12.4353 15.8701 13.5016 14.5458 13.5016 13.2428C13.5016 11.7689 12.3047 10.797 10.3026 10.6689ZM24.6004 15.7847H26.7658V9.82513H24.6004V15.7847ZM30.8353 8.02018V15.7847H33.0007V7.6357L30.8353 8.02018ZM27.6798 8.02018L29.8451 7.6357V15.7847H27.6798V8.02018Z" fill="white"/>
<defs>
<linearGradient id="paint0_linear_1373_32819" x1="0" y1="12.0024" x2="40.0068" y2="12.0024" gradientUnits="userSpaceOnUse">
<stop stop-color="#6B195F"/>
<stop offset="1" stop-color="#4C255B"/>
</linearGradient>
</defs>
</svg>
