<svg width="40" height="24" viewBox="0 0 40 24" fill="none" xmlns="http://www.w3.org/2000/svg">
<path d="M2.282 0H37.718C38.9832 0 40 0.998066 40 2.23985V21.7602C40 23.0019 38.9832 24 37.718 24H2.282C1.01685 24 0 23.0019 0 21.7602V2.23985C0 0.998066 1.01685 0 2.282 0Z" fill="#00579F"/>
<path d="M18.2077 15.9825H16.0078L17.3697 7.65381H19.5696L18.2077 15.9825Z" fill="white"/>
<path d="M26.1701 7.80812C25.751 7.65389 25.0701 7.44824 24.1797 7.44824C22.0321 7.44824 20.4608 8.5793 20.4608 10.2245C20.4608 11.4069 21.5607 12.0753 22.3988 12.4866C23.2368 12.8979 23.5511 13.1549 23.5511 13.5148C23.5511 14.0803 22.8702 14.3374 22.2416 14.3374C21.3512 14.3374 20.8798 14.1832 20.1989 13.8747L19.8846 13.7205L19.5703 15.5713C20.0941 15.7769 21.0369 15.9826 22.0321 16.034C24.3368 16.034 25.8558 14.9029 25.8558 13.2063C25.8558 12.2809 25.2796 11.5098 24.0225 10.9442C23.2368 10.5843 22.7654 10.3273 22.7654 9.916C22.7654 9.55612 23.1845 9.19624 24.0225 9.19624C24.7558 9.19624 25.2796 9.35047 25.6463 9.50471L25.8558 9.60753L26.1701 7.80812Z" fill="white"/>
<path d="M29.1039 13.0006C29.261 12.5379 29.9943 10.6871 29.9943 10.6871C29.9943 10.6871 30.1514 10.173 30.3086 9.86451L30.4657 10.5843C30.4657 10.5843 30.8847 12.5893 30.9895 13.0006C30.5705 13.0006 29.5229 13.0006 29.1039 13.0006ZM31.7752 7.65381H30.0991C29.5753 7.65381 29.1562 7.80804 28.9467 8.32216L25.6992 15.9825H28.0039C28.0039 15.9825 28.3705 14.9542 28.4753 14.7486C28.7372 14.7486 30.9895 14.7486 31.3038 14.7486C31.3562 15.0571 31.5657 15.9825 31.5657 15.9825H33.6085L31.7752 7.65381Z" fill="white"/>
<path d="M14.1216 7.65381L11.9741 13.3605L11.7646 12.2294C11.3455 10.8413 10.0884 9.4018 8.72656 8.68204L10.717 15.9825H13.0217L16.4787 7.65381H14.1216Z" fill="white"/>
<path d="M9.98525 7.65381H6.42347L6.37109 7.80804C9.14719 8.47639 10.9805 10.173 11.7138 12.178L10.9281 8.32216C10.8757 7.80804 10.4567 7.65381 9.98525 7.65381Z" fill="#FAA61A"/>
</svg>
