<svg width="40" height="24" viewBox="0 0 40 24" fill="none" xmlns="http://www.w3.org/2000/svg">
<path d="M2.282 0H37.718C38.9832 0 40 0.998066 40 2.23985V21.7602C40 23.0019 38.9832 24 37.718 24H2.282C1.01685 24 0 23.0019 0 21.7602V2.23985C0 0.998066 1.01685 0 2.282 0Z" fill="#00DDD4"/>
<path d="M9.97449 8.97168C10.4002 8.97168 10.7903 8.64673 10.8495 8.24054C10.9086 7.83435 10.6248 7.5094 10.1991 7.5094C9.77349 7.5094 9.3833 7.83435 9.32418 8.24054C9.26507 8.64673 9.54884 8.97168 9.97449 8.97168Z" fill="white"/>
<path d="M37.1962 9.38922C36.4986 9.35441 35.5763 10.19 35.5763 10.19L35.2807 9.47046H34.4885L34.1102 11.6175C34.0865 11.7683 34.0037 11.896 33.8855 11.9888L32.8332 12.8012C32.8332 12.8012 32.3957 13.1262 31.8045 13.5091C31.5326 13.6368 31.3079 13.6948 31.0833 13.6948C30.5985 13.6948 30.2911 13.5091 30.1492 13.1958C30.1255 13.1378 30.1019 13.0797 30.0901 13.0101L32.8095 11.2113C33.1997 10.9443 33.1997 10.573 33.1406 10.3873C32.9632 9.81862 32.443 9.37762 31.568 9.37762C29.9363 9.37762 28.8249 10.7355 28.8249 12.6736C28.8249 12.8012 28.8367 12.9289 28.8486 13.0565L28.08 13.5904C27.9263 13.6832 27.7135 13.7645 27.5834 13.7645C27.3469 13.7645 27.2523 13.5904 27.3233 13.2074L28.3283 7.68323H27.0632L26.5547 10.4337C26.5311 10.5498 26.472 10.6542 26.3892 10.7471L24.994 12.1861C25.0295 11.954 25.0531 11.6987 25.0531 11.4318C25.0531 10.2712 24.4974 9.40083 23.5751 9.40083C22.6883 9.40083 22.0144 10.1436 22.0144 10.1436L21.6597 9.48207H20.8675L20.43 11.9076C20.4063 12.012 20.3591 12.1165 20.2881 12.1977L19.4841 13.1262C19.2594 13.3583 19.023 13.66 18.9047 13.66C18.6919 13.6948 18.5973 13.6136 18.6682 13.2306L18.9875 11.4782C19.2358 10.0855 18.8101 9.38922 17.5923 9.38922C16.871 9.38922 16.0197 10.19 16.0197 10.19C15.8424 9.66775 15.393 9.38922 14.7191 9.38922C13.986 9.38922 13.182 10.2248 13.182 10.2248L12.8509 9.47046H12.0587L11.6449 11.7683C11.6212 11.8728 11.574 11.9772 11.503 12.0585L10.5808 13.1262C10.3561 13.3583 10.1196 13.66 10.0014 13.66C9.78856 13.6948 9.69396 13.6136 9.76491 13.2306L10.4625 9.47046H9.23284L9.03183 10.573C9.00818 10.7122 8.93724 10.8515 8.84265 10.9676L6.99813 13.0681C6.51336 13.5672 5.92217 13.6484 5.7921 13.66H4.47966L7.45926 10.3525L7.61297 9.45886H3.78205L3.6047 10.4685H5.82757L2.95439 13.7761L2.8125 14.7161C2.8125 14.7161 5.49651 14.7277 5.5438 14.7161C6.336 14.7161 7.03361 14.0314 7.31738 13.7529L8.74806 12.0933L8.48794 13.4859C8.3224 14.3912 8.67712 14.8206 9.44566 14.809C9.91862 14.7973 10.2379 14.4956 10.5571 14.1823L11.4202 13.1842L11.1365 14.7857H12.4016L12.9573 11.6523C13.0283 11.2693 13.5367 10.6078 14.0688 10.6078C14.6363 10.6078 14.8964 10.8747 14.7664 11.6175L14.1988 14.7857H15.4522L16.067 11.4086C16.1025 11.1881 16.5163 10.5498 17.0839 10.5498C17.675 10.5498 17.8642 10.8631 17.7342 11.6059L17.3794 13.4859C17.2139 14.3912 17.5686 14.8206 18.3372 14.809C18.8101 14.7973 19.1294 14.4956 19.4486 14.1823L20.1935 13.3235L19.9334 14.7973L19.626 16.5033H20.8911L21.305 14.1823C21.4823 14.4028 21.7306 14.5768 22.038 14.6697C22.109 14.6929 22.1799 14.7045 22.2509 14.7161C23.0667 14.7509 23.7998 14.3679 24.4501 13.7064L26.2946 11.838L25.999 13.4743C25.8335 14.3796 26.1882 14.7973 26.9449 14.7973C27.4415 14.7973 27.9027 14.5536 28.3874 14.2403L29.0377 13.7877C29.0496 13.8109 29.0614 13.8341 29.0732 13.8573C29.3688 14.4144 29.9009 14.7857 30.6931 14.7857C31.5326 14.7857 32.3484 14.0082 32.8214 13.6832C32.9396 13.602 33.4007 13.2422 33.8973 12.8476L33.5544 14.7973H34.8196L35.3753 11.6639C35.4463 11.2809 35.9547 10.6194 36.4867 10.6194C36.6878 10.6194 36.8533 10.6542 36.9833 10.7355L37.1962 9.38922ZM21.4705 13.1958L21.7661 11.5478C21.8962 11.1532 22.3573 10.631 22.8539 10.6078C23.0431 10.5962 23.2677 10.6078 23.4687 10.7703C23.6461 10.9676 23.7407 11.2693 23.7407 11.6407C23.7407 12.8128 23.1613 13.6368 22.3336 13.6368C21.9198 13.6252 21.6006 13.4279 21.4705 13.1958ZM30.1255 11.6639C30.2674 11.014 30.7995 10.4569 31.4025 10.4569C31.7454 10.4569 31.9819 10.7006 31.8991 10.9792L30.0309 12.2442C30.0546 11.9192 30.1255 11.6639 30.1255 11.6639Z" fill="white"/>
</svg>
