<svg width="29" height="29" viewBox="0 0 29 29" fill="none" xmlns="http://www.w3.org/2000/svg">
<path d="M25.8353 10.664C26.2573 11.8915 26.4683 13.1958 26.4683 14.5C26.4683 21.0979 21.0979 26.4683 14.5 26.4683C7.90212 26.4683 2.53175 21.0979 2.53175 14.5C2.53175 7.90212 7.90212 2.53175 14.5 2.53175C15.8234 2.53175 17.1085 2.74272 18.336 3.16468V0.517857C17.0893 0.172619 15.8042 0 14.5 0C6.50198 0 0 6.50198 0 14.5C0 22.498 6.50198 29 14.5 29C22.498 29 29 22.498 29 14.5C29 13.1958 28.8274 11.9107 28.4821 10.664H25.8353Z" fill="#878EA8"/>
<path d="M25.1065 3.89353V1.11244H23.1118V3.89353H20.3499V5.88824H23.1118V8.66932H25.1065V5.88824H27.8876V3.89353H25.1065Z" fill="#878EA8"/>
<path d="M8.99537 20.0814V11.7957H7.71032V9.91602L9.53241 8.93785H11.9874V20.0814H8.99537Z" fill="#878EA8"/>
<path d="M21.1938 11.7189C21.1938 13.1382 20.7718 13.5794 19.8512 14.3274V14.3849C20.8294 14.9603 21.328 15.6508 21.328 16.9167C21.328 19.1991 19.9663 20.254 17.5496 20.254C15.3247 20.254 13.7903 19.2183 13.7903 17.0318C13.7903 15.7659 14.3082 14.9987 15.2288 14.5V14.4233C14.4041 13.6945 13.8862 13.1574 13.8862 11.6806C13.8862 9.85848 15.2097 8.74605 17.5496 8.74605C19.9279 8.74605 21.1938 9.87766 21.1938 11.7189ZM18.4702 17.0318C18.4702 16.3988 18.0866 16.1111 17.4153 15.6316C16.9934 16.0152 16.7057 16.3221 16.7057 16.8975C16.7057 17.5304 16.9742 17.9332 17.6263 17.9332C18.2017 17.9524 18.4702 17.6263 18.4702 17.0318ZM16.7441 12.045C16.7441 12.6779 17.1277 12.9464 17.7222 13.3684C18.1634 12.9848 18.5086 12.6779 18.5086 12.1601C18.5086 11.5463 18.2017 11.1819 17.588 11.1819C17.0126 11.2011 16.7441 11.4888 16.7441 12.045Z" fill="#878EA8"/>
</svg>
