<svg width="49" height="49" viewBox="0 0 49 49" fill="none" xmlns="http://www.w3.org/2000/svg">
<path d="M24.2564 48.5127C37.6528 48.5127 48.5127 37.6528 48.5127 24.2564C48.5127 10.8599 37.6528 0 24.2564 0C10.8599 0 0 10.8599 0 24.2564C0 37.6528 10.8599 48.5127 24.2564 48.5127Z" fill="#F5F5F5"/>
<path d="M9.58984 20.7344L14.8717 12.5952L15.5872 13.0597L10.3054 21.1941L9.58984 20.7344Z" fill="#263238"/>
<path d="M5.8125 30.2334L6.62751 29.707L11.9008 37.8511L11.0907 38.3775L5.8125 30.2334Z" fill="#263238"/>
<path d="M34.7656 11.813L35.5758 11.2866L40.9437 19.5107L40.1287 20.042L34.7656 11.813Z" fill="#263238"/>
<path d="M7.69531 19.5591L12.9771 11.4199L13.6878 11.8796L8.40602 20.0188L7.69531 19.5591Z" fill="#263238"/>
<path d="M35.7109 17.4645L36.4216 17L38.8667 20.7658L38.1511 21.2303L35.7109 17.4645Z" fill="#263238"/>
<path d="M39.3594 33.526L41.8044 29.7603L42.5151 30.2248L40.0701 33.9869L39.3594 33.526Z" fill="#263238"/>
<path d="M10.4766 33.3644L11.1873 32.9048L13.6323 36.6669L12.9216 37.1315L10.4766 33.3644Z" fill="#263238"/>
<path d="M39.4883 15.0583L40.199 14.5938L42.6574 18.3462L41.9467 18.8107L39.4883 15.0583Z" fill="#263238"/>
<path d="M35.6211 31.0715L38.0661 27.3057L38.7768 27.7702L36.3318 31.5323L35.6211 31.0715Z" fill="#263238"/>
<path d="M37.5195 32.2465L39.9731 28.4844L40.7832 29.0156L38.3333 32.7777L37.5195 32.2465Z" fill="#263238"/>
<path d="M32.9258 13.0597L33.6365 12.5952L36.0949 16.3477L35.3842 16.8122L32.9258 13.0597Z" fill="#263238"/>
<path d="M36.5117 37.8658L38.9325 34.0854L39.6481 34.5451L37.2224 38.3206L36.5117 37.8658Z" fill="#263238"/>
<path d="M7.70312 28.9443L8.51814 28.418L10.9438 32.1935L10.1288 32.7198L7.70312 28.9443Z" fill="#263238"/>
<path d="M36.707 10.6378L37.4177 10.1685L39.881 13.9209L39.1703 14.3854L36.707 10.6378Z" fill="#263238"/>
<path d="M32.7539 35.3779L35.2038 31.6206L36.0188 32.1518L33.5653 35.9091L32.7539 35.3779Z" fill="#263238"/>
<path d="M34.6055 36.6754L37.036 32.9048L37.851 33.4311L35.4205 37.2018L34.6055 36.6754Z" fill="#263238"/>
<path d="M5.76953 18.3608L11.1423 10.1367L11.9573 10.6679L6.58454 18.8921L5.76953 18.3608Z" fill="#263238"/>
<path d="M9.52734 27.713L10.2429 27.2485L15.5162 35.3926L14.8055 35.8571L9.52734 27.713Z" fill="#263238"/>
<path d="M20.0105 28.4792C22.3439 28.4792 24.2553 26.5678 24.2553 24.2344C24.2553 21.9009 26.1667 19.9895 28.5002 19.9895C30.8337 19.9895 32.7451 21.9009 32.7451 24.2344C32.7451 19.5662 28.9235 15.7446 24.2553 15.7446C19.5872 15.7446 15.7656 19.5662 15.7656 24.2344C15.7656 26.569 17.677 28.4792 20.0105 28.4792Z" fill="#F44336"/>
<path d="M28.5002 19.9902C26.1667 19.9902 24.2553 21.9016 24.2553 24.2351C24.2553 26.5686 22.3439 28.48 20.0105 28.48C17.677 28.48 15.7656 26.5686 15.7656 24.2351C15.7656 28.9032 19.5872 32.7248 24.2553 32.7248C28.9235 32.7248 32.7451 28.9032 32.7451 24.2351C32.7451 21.9016 30.8337 19.9902 28.5002 19.9902Z" fill="#3949AB"/>
</svg>
