<svg width="32" height="32" viewBox="0 0 32 32" fill="none" xmlns="http://www.w3.org/2000/svg">
<path d="M16.0013 29.3333C23.3651 29.3333 29.3346 23.3638 29.3346 16C29.3346 8.63619 23.3651 2.66666 16.0013 2.66666C8.63751 2.66666 2.66797 8.63619 2.66797 16C2.66797 23.3638 8.63751 29.3333 16.0013 29.3333Z" fill="#F5F5F5"/>
<path d="M7.94141 14.064L10.8447 9.59L11.2381 9.84533L8.33474 14.3167L7.94141 14.064Z" fill="#263238"/>
<path d="M5.86328 19.2853L6.31128 18.996L9.20995 23.4727L8.76461 23.762L5.86328 19.2853Z" fill="#263238"/>
<path d="M21.7773 9.16L22.2227 8.87067L25.1733 13.3913L24.7253 13.6833L21.7773 9.16Z" fill="#263238"/>
<path d="M6.89453 13.418L9.79787 8.944L10.1885 9.19667L7.2852 13.6707L6.89453 13.418Z" fill="#263238"/>
<path d="M22.2969 12.2667L22.6875 12.0113L24.0315 14.0813L23.6382 14.3367L22.2969 12.2667Z" fill="#263238"/>
<path d="M24.3008 21.0953L25.6448 19.0253L26.0354 19.2807L24.6914 21.3487L24.3008 21.0953Z" fill="#263238"/>
<path d="M8.42578 21.0067L8.81645 20.754L10.1604 22.822L9.76978 23.0773L8.42578 21.0067Z" fill="#263238"/>
<path d="M24.3711 10.944L24.7618 10.6887L26.1131 12.7513L25.7224 13.0067L24.3711 10.944Z" fill="#263238"/>
<path d="M22.2461 19.746L23.5901 17.676L23.9808 17.9313L22.6368 19.9993L22.2461 19.746Z" fill="#263238"/>
<path d="M23.293 20.392L24.6416 18.324L25.087 18.616L23.7403 20.684L23.293 20.392Z" fill="#263238"/>
<path d="M20.7656 9.84533L21.1563 9.59L22.5076 11.6527L22.117 11.908L20.7656 9.84533Z" fill="#263238"/>
<path d="M22.7383 23.4807L24.069 21.4026L24.4623 21.6553L23.129 23.7307L22.7383 23.4807Z" fill="#263238"/>
<path d="M6.90234 18.5767L7.35034 18.2873L8.68368 20.3627L8.23568 20.652L6.90234 18.5767Z" fill="#263238"/>
<path d="M22.8438 8.51401L23.2344 8.25601L24.5884 10.3187L24.1978 10.574L22.8438 8.51401Z" fill="#263238"/>
<path d="M20.6719 22.1133L22.0185 20.048L22.4665 20.34L21.1179 22.4053L20.6719 22.1133Z" fill="#263238"/>
<path d="M21.6914 22.8267L23.0274 20.754L23.4754 21.0433L22.1394 23.116L21.6914 22.8267Z" fill="#263238"/>
<path d="M5.83984 12.7593L8.79318 8.23868L9.24118 8.53068L6.28784 13.0513L5.83984 12.7593Z" fill="#263238"/>
<path d="M7.90234 17.9L8.29568 17.6447L11.1943 22.1213L10.8037 22.3767L7.90234 17.9Z" fill="#263238"/>
<path d="M13.6654 18.3213C14.948 18.3213 15.9987 17.2707 15.9987 15.988C15.9987 14.7053 17.0494 13.6547 18.332 13.6547C19.6147 13.6547 20.6654 14.7053 20.6654 15.988C20.6654 13.422 18.5647 11.3214 15.9987 11.3214C13.4327 11.3214 11.332 13.422 11.332 15.988C11.332 17.2713 12.3827 18.3213 13.6654 18.3213Z" fill="#F44336"/>
<path d="M18.332 13.6547C17.0494 13.6547 15.9987 14.7053 15.9987 15.988C15.9987 17.2707 14.948 18.3213 13.6654 18.3213C12.3827 18.3213 11.332 17.2707 11.332 15.988C11.332 18.554 13.4327 20.6547 15.9987 20.6547C18.5647 20.6547 20.6654 18.554 20.6654 15.988C20.6654 14.7053 19.6147 13.6547 18.332 13.6547Z" fill="#3949AB"/>
</svg>
