<svg width="167" height="30" viewBox="0 0 167 30" fill="none" xmlns="http://www.w3.org/2000/svg">
<path d="M25.1064 23.6463H33.7764L12.299 2.16882H3.62891L25.1064 23.6463Z" fill="#7476ED"/>
<path d="M16.7539 2.16882L37.4578 22.8727V2.16882H31.8549V8.70542L25.3183 2.16882L16.7539 2.16882Z" fill="#E56F8C"/>
<path d="M0 2.88782V23.6462H5.60282V17.1096L12.1394 23.6462H20.7584L0 2.88782Z" fill="#64C2DB"/>
<path d="M61.4637 10.8907H62.9277V13.8187H61.4637V20.0844H57.794V5.24961H61.4637V10.8907ZM47.8001 5.40576H56.1349V8.33368C56.1349 10.5849 55.79 12.5564 55.1004 14.2481C54.4237 15.9268 53.4672 17.2216 52.231 18.1325C51.0078 19.0434 49.5959 19.4988 47.9953 19.4988L47.6049 16.5709C48.3076 16.5709 49.0233 16.3237 49.752 15.8292C50.4938 15.3347 51.1054 14.5409 51.5869 13.4478H47.9953V10.5199H52.3286C52.4197 9.89524 52.4652 9.16651 52.4652 8.33368H47.8001V5.40576ZM74.0921 5.21057H77.7617V20.0844H74.0921V5.21057ZM70.1882 8.93879C70.1882 10.4873 70.3183 11.8212 70.5785 12.9403C70.8388 14.0464 71.1967 14.8987 71.6521 15.4973C72.1076 16.0829 72.6281 16.4082 73.2137 16.4733L72.4329 19.4988C71.7302 19.4468 71.0275 19.193 70.3248 18.7376C69.6221 18.2821 69.004 17.6119 68.4704 16.7271C67.9239 17.6119 67.2993 18.2821 66.5966 18.7376C65.8939 19.193 65.1912 19.4468 64.4885 19.4988L63.7077 16.4733C64.7487 16.3822 65.51 15.712 65.9915 14.4628C66.486 13.2136 66.7332 11.3722 66.7332 8.93879V8.37272H64.0981V5.4448H72.8038V8.37272H70.1882V8.93879ZM84.1507 10.3247V5.4448H80.5005V13.2526H93.7738V10.3247H84.1507ZM88.972 16.5709V14.2286H85.3023V16.5709H80.1101V19.4988H94.1642V16.5709H88.972ZM116.058 5.40576V14.209H102.746V5.40576H106.416V6.88924H112.389V5.40576H116.058ZM112.389 11.2811V9.81716H106.416V11.2811H112.389ZM111.237 16.5709H116.449V19.4988H102.355V16.5709H107.567V14.7946H111.237V16.5709ZM128.976 5.21057V10.8907H126.634V13.8187H128.976V20.0844H132.646V5.21057H128.976ZM118.787 19.4988H127.493V16.5709H122.457V5.40576H118.787V19.4988ZM142.017 10.8517C141.301 11.8147 140.403 12.5889 139.323 13.1745C138.256 13.7601 137.072 14.1049 135.77 14.209L134.99 11.4763C135.979 11.4113 136.857 11.1055 137.625 10.5589C138.393 10.0124 138.998 9.28363 139.44 8.37272C139.896 7.4488 140.143 6.40776 140.182 5.24961H143.851C143.891 6.40776 144.131 7.4488 144.574 8.37272C145.029 9.28363 145.641 10.0124 146.409 10.5589C147.176 11.1055 148.055 11.4113 149.044 11.4763L148.263 14.209C146.962 14.1049 145.771 13.7601 144.691 13.1745C143.624 12.5889 142.732 11.8147 142.017 10.8517ZM134.99 19.4988V16.5709H149.044V19.4988H134.99Z" fill="white"/>
</svg>
