<svg width="20" height="20" viewBox="0 0 20 20" fill="none" xmlns="http://www.w3.org/2000/svg">
<path d="M9.62005 1.47094L7.18963 6.54218L1.61588 7.28677C1.26546 7.33343 1.12505 7.7651 1.3813 8.00885L5.45338 11.8872L4.4388 17.4184C4.37505 17.7663 4.74213 18.033 5.05338 17.8651L10 15.1909L14.9471 17.8651C15.2584 18.0334 15.6255 17.7663 15.5617 17.4184L14.5467 11.8876L18.6188 8.00927C18.8746 7.76552 18.7346 7.33385 18.3842 7.28677L12.81 6.5426L10.38 1.47094C10.2271 1.15219 9.77296 1.15219 9.62005 1.47094Z" fill="#FFDE36"/>
<path d="M9.61766 1.54132L7.20849 6.5684L1.68307 7.30632C1.33557 7.35257 1.19641 7.7809 1.45057 8.02257L5.48724 11.8672L4.48141 17.3505C4.41808 17.6951 4.78224 17.9597 5.09058 17.793L9.99433 15.1422L14.8985 17.793C15.2068 17.9597 15.571 17.6951 15.5077 17.3505L14.5018 11.8672L18.5385 8.02257C18.7922 7.7809 18.6531 7.35299 18.306 7.30632L12.7806 6.5684L10.371 1.54132C10.2193 1.22549 9.76933 1.22549 9.61766 1.54132Z" fill="#FFDD35"/>
<path d="M9.62301 1.61165L7.2351 6.59456L1.75801 7.32623C1.41343 7.37206 1.27593 7.79665 1.52718 8.03623L5.52843 11.8475L4.53134 17.2825C4.46884 17.6241 4.82968 17.8862 5.1351 17.7212L9.99635 15.0933L14.8572 17.7212C15.163 17.8866 15.5238 17.6241 15.4609 17.2825L14.4638 11.8475L18.4651 8.03623C18.7168 7.79665 18.5788 7.37248 18.2343 7.32623L12.7572 6.59498L10.3697 1.61165C10.2193 1.29831 9.77343 1.29831 9.62301 1.61165Z" fill="#FFDC34"/>
<path d="M9.62875 1.68215L7.26167 6.62132L1.83292 7.34632C1.49167 7.39174 1.355 7.81257 1.60417 8.05007L5.57 11.8276L4.58209 17.2142C4.52 17.553 4.8775 17.813 5.18042 17.6492L9.99875 15.0447L14.8167 17.6492C15.1196 17.813 15.4775 17.553 15.415 17.2142L14.4267 11.8272L18.3925 8.04965C18.6417 7.81215 18.5054 7.39174 18.1638 7.3459L12.735 6.6209L10.3688 1.68215C10.22 1.37174 9.7775 1.37174 9.62875 1.68215Z" fill="#FFDB33"/>
<path d="M9.63027 1.7526L7.28444 6.6476L1.90402 7.36594C1.56569 7.41094 1.43027 7.82802 1.67735 8.06344L5.60777 11.8072L4.6286 17.1459C4.56694 17.4818 4.92152 17.7393 5.22194 17.5768L9.99694 14.9959L14.7719 17.5772C15.0724 17.7397 15.4265 17.4818 15.3653 17.1464L14.3857 11.8072L18.3161 8.06344C18.5632 7.82802 18.4278 7.41135 18.0894 7.36594L12.7094 6.6476L10.3636 1.7526C10.2161 1.44469 9.77777 1.44469 9.63027 1.7526Z" fill="#FFDA32"/>
<path d="M9.63569 1.82293L7.31111 6.67376L1.97903 7.38584C1.64361 7.43043 1.50945 7.84376 1.75445 8.07709L5.64945 11.7871L4.67903 17.0779C4.6182 17.4104 4.96945 17.6658 5.26695 17.505L9.99903 14.9471L14.7311 17.505C15.0286 17.6658 15.3799 17.4104 15.319 17.0779L14.3486 11.7871L18.2436 8.07709C18.4886 7.84376 18.3544 7.43084 18.019 7.38584L12.6869 6.67376L10.3624 1.82293C10.2161 1.51793 9.78194 1.51793 9.63569 1.82293Z" fill="#FFD932"/>
<path d="M9.63693 1.89343L7.33318 6.70051L2.04985 7.40593C1.71776 7.4501 1.58485 7.85968 1.82735 8.09051L5.68735 11.7668L4.72568 17.0097C4.66526 17.3393 5.01318 17.5922 5.30818 17.433L9.99693 14.898L14.6861 17.433C14.9811 17.5926 15.329 17.3393 15.2686 17.0097L14.3069 11.7668L18.1669 8.09051C18.4094 7.85926 18.2765 7.4501 17.9444 7.40593L12.6611 6.70051L10.3569 1.89343C10.2119 1.59135 9.78193 1.59135 9.63693 1.89343Z" fill="#FFD831"/>
<path d="M9.63845 1.96388L7.35595 6.7268L2.12095 7.42555C1.79178 7.4693 1.66011 7.87513 1.90053 8.10388L5.72511 11.7464L4.77178 16.9418C4.71178 17.2685 5.05678 17.5189 5.34886 17.361L9.99511 14.8493L14.6414 17.361C14.9334 17.5189 15.2784 17.2685 15.2184 16.9418L14.2655 11.7468L18.0901 8.1043C18.3305 7.87513 18.1989 7.46972 17.8697 7.42597L12.6347 6.7268L10.3518 1.96388C10.2084 1.6643 9.78178 1.6643 9.63845 1.96388Z" fill="#FFD730"/>
<path d="M9.64429 2.03433L7.38304 6.75308L2.19596 7.44558C1.86971 7.48933 1.73929 7.89099 1.97762 8.11766L5.76679 11.7264L4.82262 16.8735C4.76346 17.1972 5.10512 17.4456 5.39429 17.2889L9.99762 14.8006L14.601 17.2889C14.8905 17.4456 15.2322 17.1972 15.1726 16.8735L14.2285 11.7268L18.0176 8.11808C18.256 7.89099 18.1251 7.48933 17.7993 7.44599L12.6126 6.75349L10.351 2.03433C10.2089 1.73766 9.78637 1.73766 9.64429 2.03433Z" fill="#FFD62F"/>
<path d="M9.64961 2.10466L7.4092 6.77924L2.27086 7.46549C1.94795 7.50883 1.81836 7.90674 2.05461 8.13133L5.80836 11.7067L4.87295 16.8055C4.8142 17.1259 5.15253 17.3722 5.43961 17.2172L9.99961 14.7517L14.56 17.2167C14.8467 17.3717 15.1854 17.1259 15.1267 16.8051L14.1913 11.7063L17.945 8.13091C18.1809 7.90591 18.0517 7.50799 17.7288 7.46508L12.59 6.77924L10.3496 2.10466C10.2088 1.81049 9.79045 1.81049 9.64961 2.10466Z" fill="#FFD52E"/>
<path d="M9.65113 2.17516L7.43196 6.806L2.34196 7.48516C2.02196 7.52808 1.89363 7.92225 2.1278 8.14475L5.84613 11.6864L4.91946 16.7372C4.86113 17.0547 5.19655 17.2985 5.48071 17.1447L9.9978 14.7031L14.5149 17.1452C14.799 17.2985 15.1345 17.0552 15.0761 16.7377L14.1495 11.6868L17.8678 8.14516C18.1015 7.92266 17.9736 7.52808 17.6536 7.48558L12.5636 6.806L10.3445 2.17516C10.2049 1.88391 9.79071 1.88391 9.65113 2.17516Z" fill="#FFD42D"/>
<path d="M9.65258 2.24549L7.45424 6.83216L2.41299 7.50508C2.09591 7.54758 1.96924 7.93799 2.20049 8.15841L5.88341 11.6663L4.96591 16.6692C4.90841 16.9838 5.24049 17.2251 5.52174 17.073L9.99591 14.6542L14.4701 17.073C14.7513 17.2251 15.0834 16.9838 15.0259 16.6692L14.1084 11.6663L17.7913 8.15841C18.023 7.93799 17.8959 7.54716 17.5788 7.50508L12.5376 6.83216L10.3392 2.24549C10.2013 1.95674 9.7905 1.95674 9.65258 2.24549Z" fill="#FFD32C"/>
<path d="M9.65749 2.31544L7.48082 6.85836L2.4879 7.52502C2.17415 7.56711 2.04832 7.95378 2.27749 8.17211L5.92499 11.6463L5.01624 16.6009C4.95915 16.9125 5.2879 17.1513 5.56665 17.0009L9.9979 14.6054L14.4292 17.0009C14.7079 17.1513 15.0367 16.9125 14.9796 16.6009L14.0708 11.6463L17.7183 8.17211C17.9475 7.95378 17.8221 7.56711 17.5079 7.52502L12.515 6.85836L10.3383 2.31544C10.2012 2.03003 9.79457 2.03003 9.65749 2.31544Z" fill="#FFD22B"/>
<path d="M9.65942 2.38589L7.50359 6.88464L2.559 7.54505C2.24817 7.58672 2.12359 7.96964 2.35067 8.18589L5.96275 11.6263L5.06275 16.533C5.00609 16.8413 5.33192 17.0784 5.60775 16.9292L9.9965 14.5567L14.3848 16.9288C14.6607 17.078 14.9865 16.8413 14.9298 16.5326L14.0298 11.6259L17.6419 8.18547C17.869 7.96922 17.7444 7.5863 17.4336 7.54464L12.489 6.88422L10.3336 2.38589C10.1978 2.10339 9.79525 2.10339 9.65942 2.38589Z" fill="#FFD12A"/>
<path d="M9.66484 2.45634L7.53026 6.91092L2.63401 7.56467C2.3261 7.60592 2.20276 7.98509 2.42776 8.19926L6.00443 11.6059L5.11318 16.4647C5.05735 16.7701 5.37985 17.0047 5.65318 16.8568L9.9986 14.508L14.344 16.8572C14.6173 17.0047 14.9398 16.7705 14.884 16.4651L13.9928 11.6063L17.5694 8.19967C17.7944 7.98551 17.6711 7.60634 17.3632 7.56509L12.4669 6.91134L10.3323 2.45634C10.1982 2.17634 9.79901 2.17634 9.66484 2.45634Z" fill="#FFD02A"/>
<path d="M9.66618 2.52672L7.55243 6.93714L2.70493 7.58464C2.39993 7.62547 2.27826 8.00089 2.50076 8.21297L6.04243 11.5863L5.15993 16.3967C5.10451 16.6992 5.42368 16.9313 5.69451 16.7851L9.99659 14.4592L14.2991 16.7851C14.5695 16.9313 14.8891 16.6992 14.8337 16.3967L13.9512 11.5863L17.4928 8.21297C17.7153 8.00089 17.5937 7.62547 17.2887 7.58464L12.4408 6.93756L10.327 2.52672C10.1941 2.24964 9.79909 2.24964 9.66618 2.52672Z" fill="#FFCF29"/>
<path d="M9.6719 2.5971L7.5794 6.96377L2.78024 7.6046C2.47815 7.6446 2.35732 8.01669 2.57774 8.22627L6.08399 11.5659L5.21024 16.3284C5.15524 16.6279 5.47149 16.8575 5.7394 16.7129L9.99899 14.4104L14.2586 16.7129C14.5265 16.8575 14.8427 16.6279 14.7877 16.3284L13.914 11.5659L17.4202 8.22627C17.6407 8.01627 17.5198 7.6446 17.2182 7.60419L12.4186 6.96335L10.3261 2.59669C10.1944 2.32252 9.80357 2.32252 9.6719 2.5971Z" fill="#FFCE28"/>
<path d="M9.67344 2.66762L7.60219 6.99012L2.85094 7.62428C2.55219 7.66428 2.43261 8.0322 2.65094 8.24012L6.12177 11.5459L5.25677 16.2605C5.20219 16.5568 5.51552 16.7843 5.78052 16.641L9.99719 14.3618L14.2139 16.641C14.4789 16.7843 14.7922 16.5568 14.7376 16.2605L13.8726 11.5459L17.3434 8.24012C17.5618 8.0322 17.4422 7.66428 17.1434 7.62428L12.3926 6.99012L10.3209 2.66762C10.1905 2.39595 9.80385 2.39595 9.67344 2.66762Z" fill="#FFCD27"/>
<path d="M9.67886 2.73795L7.62845 7.01628L2.92595 7.6442C2.63011 7.68378 2.51178 8.04795 2.72803 8.25378L6.16345 11.5259L5.30761 16.1921C5.25386 16.4854 5.56345 16.7104 5.82595 16.5688L9.99928 14.3125L14.1726 16.5688C14.4351 16.7104 14.7447 16.4854 14.6909 16.1921L13.8351 11.5259L17.2705 8.25378C17.4864 8.04795 17.368 7.68378 17.0726 7.6442L12.3701 7.01628L10.3197 2.73795C10.1909 2.46878 9.80761 2.46878 9.67886 2.73795Z" fill="#FFCC26"/>
<path d="M9.684 2.80845L7.65484 7.04262L3.00067 7.66387C2.70817 7.70304 2.59109 8.06345 2.80484 8.2672L6.20484 11.5055L5.35775 16.1239C5.30442 16.4143 5.61109 16.6372 5.87067 16.4968L10.0011 14.2639L14.1315 16.4968C14.3911 16.6372 14.6978 16.4143 14.6444 16.1239L13.7973 11.5055L17.1973 8.2672C17.4111 8.06345 17.294 7.70304 17.0015 7.66387L12.3473 7.04262L10.3182 2.80845C10.1907 2.5422 9.8115 2.5422 9.684 2.80845Z" fill="#FFCB25"/>
<path d="M9.68191 2.8789L7.674 7.06932L3.06816 7.6839C2.77858 7.72265 2.66233 8.07932 2.874 8.28099L6.23858 11.4856L5.40025 16.056C5.34733 16.3435 5.65108 16.5639 5.90816 16.4247L9.99566 14.2152L14.0832 16.4247C14.3402 16.5635 14.6436 16.3431 14.5911 16.056L13.7527 11.4856L17.1173 8.28099C17.329 8.07932 17.2132 7.72265 16.9236 7.6839L12.3177 7.0689L10.3094 2.8789C10.1832 2.61515 9.80816 2.61515 9.68191 2.8789Z" fill="#FFCA24"/>
<path d="M9.68757 2.94928L7.70049 7.09553L3.14299 7.70386C2.85632 7.7422 2.74174 8.09511 2.9509 8.2947L6.28007 11.4655L5.45049 15.988C5.3984 16.2722 5.6984 16.4905 5.95299 16.353L9.99799 14.1664L14.0426 16.3526C14.2967 16.4901 14.5972 16.2718 14.5451 15.9876L13.7155 11.4651L17.0447 8.29428C17.2538 8.0947 17.1392 7.74178 16.8526 7.70345L12.2951 7.09511L10.308 2.94886C10.1834 2.68844 9.81257 2.68844 9.68757 2.94928Z" fill="#FFC923"/>
<path d="M9.69289 3.01966L7.72706 7.12174L3.21789 7.72383C2.93456 7.76174 2.82081 8.11091 3.02789 8.30841L6.32164 11.4459L5.50081 15.9201C5.44914 16.2013 5.74623 16.4172 5.99789 16.2813L9.99998 14.1176L14.0016 16.2809C14.2533 16.4167 14.5504 16.2009 14.4987 15.9197L13.6779 11.4455L16.9716 8.30799C17.1787 8.11091 17.0654 7.76133 16.7816 7.72341L12.2729 7.12133L10.3071 3.01924C10.1837 2.76174 9.81623 2.76174 9.69289 3.01966Z" fill="#FFC823"/>
<path d="M9.69441 3.09006L7.74983 7.14839L3.289 7.74339C3.00858 7.78089 2.89608 8.12631 3.10108 8.32131L6.35941 11.4251L5.54733 15.8513C5.49608 16.1296 5.79025 16.343 6.039 16.2084L9.99816 14.0688L13.9569 16.2088C14.2057 16.3434 14.4998 16.1296 14.4486 15.8517L13.6365 11.4255L16.8948 8.32173C17.0998 8.12673 16.9873 7.78089 16.7069 7.74381L12.2465 7.14839L10.3019 3.09006C10.1798 2.83464 9.81649 2.83464 9.69441 3.09006Z" fill="#FFC722"/>
<path d="M9.69533 3.16001L7.77158 7.17418L3.35991 7.76334C3.08241 7.80043 2.97158 8.14209 3.17408 8.33501L6.39741 11.405L5.59408 15.7833C5.54366 16.0588 5.8345 16.27 6.08033 16.1367L9.99616 14.02L13.912 16.1367C14.1582 16.2696 14.4491 16.0588 14.3982 15.7833L13.5949 11.405L16.8182 8.33501C17.0207 8.14209 16.9099 7.80043 16.6324 7.76334L12.2203 7.17418L10.2966 3.16001C10.1757 2.90793 9.81658 2.90793 9.69533 3.16001Z" fill="#FFC621"/>
<path d="M9.70107 3.23046L7.79857 7.20046L3.43482 7.78338C3.16065 7.82005 3.05065 8.15796 3.25107 8.3488L6.43899 11.385L5.64482 15.715C5.59482 15.9871 5.88232 16.1963 6.12607 16.0646L9.99857 13.9713L13.8715 16.0646C14.1148 16.1963 14.4023 15.9875 14.3527 15.715L13.5586 11.385L16.7465 8.3488C16.9469 8.15796 16.8369 7.82005 16.5627 7.78338L12.1986 7.20046L10.2961 3.23046C10.1761 2.98088 9.82107 2.98088 9.70107 3.23046Z" fill="#FFC520"/>
<path d="M9.70259 3.30085L7.82092 7.22669L3.50592 7.80335C3.23467 7.8396 3.12592 8.17377 3.32426 8.36252L6.47676 11.365L5.69134 15.6471C5.64176 15.9163 5.92634 16.1229 6.16717 15.9929L9.99676 13.9225L13.8263 15.9929C14.0672 16.1229 14.3513 15.9167 14.3022 15.6471L13.5168 11.365L16.6693 8.36252C16.8676 8.17377 16.7588 7.8396 16.4876 7.80335L12.1722 7.2271L10.2905 3.30127C10.1726 3.05419 9.82092 3.05419 9.70259 3.30085Z" fill="#FFC41F"/>
<path d="M9.70801 3.37131L7.8476 7.25339L3.58093 7.82297C3.3126 7.8588 3.2051 8.18922 3.40135 8.37589L6.51843 11.3446L5.74176 15.5788C5.69301 15.8451 5.97426 16.0492 6.21218 15.9205L9.99885 13.8738L13.7855 15.9209C14.0234 16.0496 14.3047 15.8455 14.2559 15.5792L13.4793 11.3451L16.5963 8.37631C16.7922 8.18964 16.6851 7.85922 16.4168 7.82339L12.1501 7.25381L10.2897 3.37172C10.1726 3.12714 9.8251 3.12714 9.70801 3.37131Z" fill="#FFC31E"/>
<path d="M9.71325 3.44174L7.87409 7.27966L3.65575 7.84299C3.39034 7.87841 3.2845 8.20507 3.47825 8.38966L6.55992 11.3247L5.792 15.5105C5.74367 15.7738 6.02159 15.9755 6.257 15.8484L10.0008 13.8251L13.7445 15.8488C13.9799 15.9759 14.2578 15.7742 14.2095 15.5109L13.4416 11.3251L16.5233 8.39007C16.717 8.20549 16.6108 7.87882 16.3458 7.84341L12.1274 7.28007L10.2883 3.44174C10.1724 3.20049 9.82909 3.20049 9.71325 3.44174Z" fill="#FFC21D"/>
<path d="M9.71077 3.51219L7.89243 7.30594L3.72285 7.86302C3.46077 7.89802 3.35577 8.22093 3.54743 8.40343L6.59368 11.3051L5.83452 15.443C5.7866 15.703 6.0616 15.903 6.2941 15.7772L9.99493 13.7764L13.6958 15.7768C13.9283 15.9026 14.2033 15.703 14.1553 15.4426L13.3962 11.3047L16.4424 8.40302C16.6341 8.22052 16.5291 7.8976 16.267 7.8626L12.097 7.30594L10.2787 3.51219C10.1649 3.27385 9.82493 3.27385 9.71077 3.51219Z" fill="#FFC11C"/>
<path d="M9.71661 3.58264L7.91952 7.33264L3.79786 7.88305C3.53869 7.91722 3.43494 8.2368 3.62452 8.4168L6.63536 11.2847L5.88494 15.3747C5.83786 15.6318 6.10952 15.8293 6.33952 15.7047L9.99744 13.7276L13.6554 15.7051C13.8854 15.8293 14.157 15.6322 14.1099 15.3751L13.3595 11.2851L16.3704 8.41722C16.5595 8.2368 16.4558 7.91764 16.1966 7.88305L12.0749 7.33264L10.2779 3.58264C10.1654 3.3468 9.82952 3.3468 9.71661 3.58264Z" fill="#FFC01B"/>
<path d="M9.72214 3.65295L7.94631 7.35878L3.87298 7.90253C3.61673 7.9367 3.51423 8.25212 3.70131 8.43045L6.67673 11.2646L5.93548 15.3067C5.88881 15.5609 6.15714 15.7559 6.38464 15.6329L9.99964 13.6784L13.6146 15.6325C13.8421 15.7554 14.1105 15.5604 14.0638 15.3063L13.3226 11.2642L16.298 8.43003C16.4851 8.2517 16.3826 7.93628 16.1263 7.90212L12.053 7.35837L10.2771 3.65253C10.1655 3.42003 9.83381 3.42003 9.72214 3.65295Z" fill="#FFC01B"/>
<path d="M9.72338 3.7234L7.96838 7.38507L3.94379 7.92257C3.69088 7.95632 3.58963 8.26798 3.77421 8.44423L6.71463 11.2446L5.98213 15.2384C5.93588 15.4896 6.20129 15.6821 6.42588 15.5609L9.99754 13.6296L13.5696 15.5605C13.7942 15.6817 14.0592 15.4892 14.0134 15.238L13.2809 11.2442L16.2213 8.44382C16.4063 8.26757 16.305 7.9559 16.0517 7.92215L12.0271 7.38465L10.2721 3.72299C10.1613 3.49299 9.83379 3.49298 9.72338 3.7234Z" fill="#FFBF1A"/>
<path d="M9.7288 3.79379L7.99505 7.41129L4.0188 7.94213C3.7688 7.97546 3.6688 8.28338 3.8513 8.45754L6.7563 11.2242L6.03255 15.17C5.98714 15.418 6.24922 15.6084 6.47089 15.4884L9.99963 13.5809L13.5288 15.4884C13.7509 15.6084 14.0126 15.418 13.9671 15.17L13.2434 11.2242L16.1484 8.45754C16.3309 8.28338 16.2309 7.97546 15.9809 7.94213L12.0046 7.41129L10.2705 3.79379C10.1617 3.56629 9.83755 3.56629 9.7288 3.79379Z" fill="#FFBE19"/>
<path d="M9.73074 3.86424L8.01824 7.43799L4.0899 7.96215C3.84282 7.99507 3.74407 8.29924 3.92449 8.47132L6.79407 11.2042L6.07907 15.1022C6.03407 15.3472 6.29282 15.5351 6.51199 15.4167L9.99824 13.5322L13.4841 15.4167C13.7032 15.5351 13.962 15.3472 13.917 15.1022L13.2024 11.2042L16.072 8.47132C16.2524 8.29965 16.1537 7.99507 15.9066 7.96215L11.9787 7.43757L10.2662 3.86382C10.1582 3.63924 9.83824 3.63924 9.73074 3.86424Z" fill="#FFBD18"/>
<path d="M9.73216 3.93468L8.04049 7.46426L4.16091 7.98218C3.91716 8.01468 3.81924 8.3151 3.99757 8.4851L6.83174 11.1847L6.12549 15.0343C6.08091 15.2763 6.33674 15.4622 6.55341 15.3451L9.99632 13.4834L13.4392 15.3447C13.6559 15.4618 13.9113 15.2759 13.8672 15.0338L13.1609 11.1843L15.9951 8.48468C16.1734 8.3151 16.0755 8.01426 15.8317 7.98176L11.9522 7.46385L10.2605 3.93426C10.1542 3.7126 9.83841 3.7126 9.73216 3.93468Z" fill="#FFBC17"/>
<path d="M9.73367 4.00465L8.06326 7.49006L4.23201 8.00173C3.99117 8.03381 3.89451 8.33048 4.07076 8.4984L6.86951 11.1642L6.17201 14.9659C6.12826 15.2051 6.38076 15.3884 6.59451 15.2726L9.99451 13.4347L13.3945 15.2726C13.6083 15.388 13.8608 15.2047 13.817 14.9659L13.1195 11.1642L15.9183 8.4984C16.0941 8.3309 15.9978 8.03423 15.757 8.00173L11.9258 7.49006L10.2553 4.00465C10.1503 3.78548 9.83867 3.78548 9.73367 4.00465Z" fill="#FFBB16"/>
<path d="M9.7424 4.07515L8.09324 7.51682L4.31074 8.02182C4.07282 8.05348 3.97782 8.3464 4.15157 8.51223L6.9149 11.1443L6.22615 14.8981C6.18282 15.1339 6.43199 15.3152 6.64324 15.201L10.0003 13.386L13.3574 15.201C13.5687 15.3152 13.8178 15.1339 13.7745 14.8981L13.0857 11.1443L15.8491 8.51223C16.0228 8.34682 15.9278 8.0539 15.6899 8.02182L11.9074 7.51682L10.2582 4.07515C10.1545 3.8589 9.84615 3.8589 9.7424 4.07515Z" fill="#FFBA15"/>
<path d="M9.74043 4.14547L8.1121 7.54297L4.37793 8.04172C4.14293 8.07297 4.04918 8.36214 4.22085 8.52589L6.94877 11.1242L6.26918 14.8296C6.22627 15.0626 6.47252 15.2413 6.68085 15.1288L9.99502 13.3371L13.3092 15.1288C13.5175 15.2413 13.7638 15.0626 13.7209 14.8296L13.0413 11.1242L15.7692 8.52589C15.9409 8.36256 15.8467 8.07339 15.6121 8.04172L11.8779 7.54297L10.2496 4.14547C10.1471 3.93214 9.84293 3.93214 9.74043 4.14547Z" fill="#FFB914"/>
<path d="M9.74196 4.216L8.13488 7.56933L4.44905 8.06141C4.21738 8.09224 4.12446 8.37766 4.29363 8.53891L6.98613 11.1035L6.3153 14.761C6.27321 14.991 6.51613 15.1672 6.72155 15.0564L9.99321 13.2885L13.2645 15.0568C13.4703 15.1681 13.7132 14.9914 13.6707 14.7614L12.9999 11.1039L15.6924 8.53933C15.8615 8.37808 15.769 8.09266 15.537 8.06183L11.8511 7.56974L10.244 4.21641C10.1432 4.00516 9.84321 4.00516 9.74196 4.216Z" fill="#FFB813"/>
<path d="M9.7513 4.28638L8.16546 7.59555L4.52796 8.08138C4.29921 8.1118 4.20755 8.39388 4.37463 8.55263L7.03171 11.0835L6.36963 14.693C6.32796 14.9201 6.56754 15.0943 6.77046 14.9843L9.99921 13.2397L13.2275 14.9847C13.4305 15.0943 13.67 14.9201 13.6284 14.6935L12.9663 11.0839L15.6234 8.55305C15.7905 8.39388 15.6988 8.11221 15.47 8.0818L11.8325 7.59596L10.2467 4.2868C10.1475 4.07846 9.85088 4.07846 9.7513 4.28638Z" fill="#FFB713"/>
<path d="M9.75305 4.35683L8.18805 7.62225L4.59888 8.10141C4.37305 8.13141 4.28305 8.40975 4.44763 8.56641L7.06971 11.0635L6.4168 14.6252C6.37555 14.8489 6.61221 15.021 6.81263 14.9127L9.99763 13.191L13.183 14.9131C13.3835 15.0214 13.6197 14.8493 13.5789 14.6256L12.9255 11.0639L15.5476 8.56683C15.7126 8.40975 15.6222 8.13183 15.3964 8.10183L11.8072 7.62266L10.2422 4.35725C10.1439 4.15141 9.85138 4.15141 9.75305 4.35683Z" fill="#FFB612"/>
<path d="M9.75795 4.42708L8.2142 7.64833L4.67379 8.12125C4.45129 8.15083 4.36212 8.42542 4.52462 8.58L7.11129 11.0437L6.4667 14.5571C6.42629 14.7779 6.65962 14.9475 6.85712 14.8408L9.9992 13.1421L13.1417 14.8408C13.3392 14.9475 13.5725 14.7783 13.5321 14.5571L12.8875 11.0437L15.4742 8.58C15.6367 8.425 15.5475 8.15083 15.325 8.12125L11.7846 7.64833L10.2409 4.42708C10.1434 4.22458 9.85504 4.22458 9.75795 4.42708Z" fill="#FFB511"/>
<path d="M9.75947 4.4976L8.23697 7.67468L4.74489 8.14093C4.5253 8.1701 4.43739 8.44093 4.5978 8.59343L7.14905 11.0234L6.51322 14.4888C6.47322 14.7068 6.70322 14.8738 6.89822 14.7684L9.99739 13.093L13.0966 14.7684C13.2916 14.8738 13.5216 14.7068 13.4816 14.4888L12.8457 11.0234L15.397 8.59343C15.5574 8.44051 15.4695 8.1701 15.2499 8.14093L11.7578 7.67468L10.2353 4.4976C10.1395 4.2976 9.8553 4.2976 9.75947 4.4976Z" fill="#FFB410"/>
<path d="M9.76141 4.5679L8.25974 7.70123L4.81599 8.16123C4.59932 8.18998 4.51266 8.45707 4.67099 8.60748L7.18682 11.0037L6.56016 14.4212C6.52057 14.6362 6.74766 14.8008 6.93974 14.6971L9.99599 13.0441L13.0522 14.6962C13.2443 14.8 13.4714 14.6354 13.4318 14.4204L12.8052 11.0029L15.321 8.60665C15.4793 8.45582 15.3927 8.18915 15.176 8.1604L11.7322 7.7004L10.2306 4.56707C10.1364 4.37082 9.85557 4.37082 9.76141 4.5679Z" fill="#FFB30F"/>
<path d="M9.76655 4.63836L8.28613 7.72753L4.89071 8.18086C4.67738 8.2092 4.59196 8.47253 4.7478 8.62086L7.22821 10.9834L6.6103 14.3525C6.57155 14.5642 6.7953 14.7271 6.98446 14.6246L9.9978 12.9954L13.0111 14.6246C13.2007 14.7271 13.4245 14.5646 13.3853 14.3525L12.7674 10.9834L15.2478 8.62086C15.4036 8.47211 15.3182 8.2092 15.1049 8.18086L11.7095 7.72753L10.229 4.63836C10.1361 4.4442 9.85946 4.4442 9.76655 4.63836Z" fill="#FFB20E"/>
<path d="M9.77197 4.70881L8.3128 7.75381L4.96572 8.2009C4.7553 8.22881 4.67114 8.4884 4.82489 8.63465L7.26989 10.9634L6.66072 14.2847C6.62239 14.4934 6.8428 14.6538 7.02989 14.5526L9.99989 12.9467L12.9703 14.5526C13.157 14.6534 13.3778 14.4934 13.3395 14.2847L12.7303 10.9634L15.1753 8.63465C15.3291 8.4884 15.2449 8.22881 15.0345 8.2009L11.6874 7.75381L10.2282 4.70881C10.1361 4.51715 9.86364 4.51715 9.77197 4.70881Z" fill="#FFB10D"/>
<path d="M9.77391 4.77932L8.33557 7.78015L5.03682 8.22057C4.82932 8.24807 4.74641 8.5039 4.89807 8.64807L7.30766 10.9431L6.70724 14.2164C6.66932 14.4222 6.88682 14.5801 7.07099 14.4806L9.99849 12.8981L12.926 14.4806C13.1102 14.5801 13.3272 14.4222 13.2897 14.2164L12.6893 10.9431L15.0989 8.64807C15.2506 8.5039 15.1672 8.24807 14.9602 8.22057L11.6614 7.78015L10.2231 4.77932C10.1327 4.59057 9.86432 4.59057 9.77391 4.77932Z" fill="#FFB00C"/>
<path d="M9.77491 4.84927L8.35782 7.80635L5.10782 8.24052C4.90366 8.2676 4.82157 8.51968 4.97116 8.66177L7.34532 10.9234L6.75366 14.1484C6.71657 14.3513 6.93074 14.5068 7.11199 14.4088L9.99616 12.8493L12.8807 14.4084C13.062 14.5063 13.2762 14.3509 13.2391 14.148L12.6474 10.923L15.0216 8.66135C15.1707 8.51927 15.0891 8.2676 14.8849 8.2401L11.6349 7.80593L10.2178 4.84885C10.1287 4.66343 9.86366 4.66343 9.77491 4.84927Z" fill="#FFAF0C"/>
<path d="M9.78045 4.91972L8.38461 7.83264L5.18295 8.26013C4.9817 8.28722 4.90086 8.53513 5.04795 8.67513L7.38711 10.9031L6.8042 14.0801C6.76753 14.2797 6.97836 14.4331 7.15711 14.3368L9.99878 12.8006L12.8404 14.3368C13.0192 14.4335 13.23 14.2801 13.1934 14.0801L12.6104 10.9031L14.9496 8.67513C15.0967 8.53513 15.0163 8.28722 14.8146 8.26013L11.6129 7.83264L10.2171 4.91972C10.1292 4.7368 9.86836 4.7368 9.78045 4.91972Z" fill="#FFAE0B"/>
<path d="M9.7822 4.99012L8.4072 7.85887L5.25386 8.2797C5.05553 8.30637 4.97636 8.55053 5.12095 8.68845L7.4247 10.8826L6.85053 14.0118C6.81428 14.2084 7.0222 14.3593 7.19803 14.2643L9.9972 12.7518L12.7959 14.2647C12.9718 14.3597 13.1797 14.2089 13.1434 14.0122L12.5693 10.883L14.873 8.68887C15.018 8.55095 14.9384 8.30678 14.7401 8.28012L11.5868 7.85928L10.2118 4.99054C10.1255 4.8097 9.86886 4.8097 9.7822 4.99012Z" fill="#FFAD0A"/>
<path d="M9.78762 5.06049L8.43387 7.88549L5.32887 8.30008C5.13345 8.32633 5.05554 8.56674 5.19804 8.70258L7.46637 10.863L6.90137 13.9438C6.86595 14.1376 7.07054 14.2863 7.24387 14.1926L9.99929 12.703L12.7547 14.1926C12.928 14.2863 13.1326 14.1376 13.0972 13.9438L12.5322 10.863L14.8005 8.70258C14.943 8.56674 14.8651 8.32633 14.6697 8.30008L11.5647 7.88549L10.211 5.06049C10.1255 4.88299 9.87304 4.88299 9.78762 5.06049Z" fill="#FFAC09"/>
<path d="M9.78904 5.13088L8.45654 7.91171L5.39987 8.31963C5.20779 8.34546 5.13071 8.58213 5.27112 8.71588L7.50404 10.8425L6.94779 13.8755C6.91279 14.0663 7.11404 14.2125 7.28487 14.1205L9.99737 12.6542L12.7099 14.1205C12.8803 14.2125 13.082 14.0663 13.047 13.8755L12.4907 10.8425L14.7236 8.71588C14.864 8.58213 14.787 8.34546 14.5949 8.31963L11.5382 7.91171L10.2057 5.13088C10.122 4.95629 9.87279 4.95629 9.78904 5.13088Z" fill="#FFAB08"/>
<path d="M9.79056 5.20128L8.47889 7.93794L5.47097 8.33961C5.28181 8.36503 5.20597 8.59794 5.34431 8.72961L7.54181 10.8225L6.99431 13.8075C6.95972 13.995 7.15806 14.1392 7.32597 14.0484L9.99556 12.6054L12.6651 14.0488C12.8331 14.1396 13.0314 13.9954 12.9968 13.8079L12.4493 10.8229L14.6468 8.73003C14.7851 8.59836 14.7093 8.36544 14.5201 8.34003L11.5122 7.93836L10.2006 5.20169C10.1181 5.02919 9.87306 5.02919 9.79056 5.20128Z" fill="#FFAA07"/>
<path d="M9.7958 5.27172L8.50538 7.96422L5.5458 8.35922C5.35955 8.38422 5.28538 8.61339 5.42121 8.74297L7.5833 10.8021L7.04455 13.7392C7.0108 13.9238 7.2058 14.0655 7.3708 13.9763L9.99746 12.5567L12.6241 13.9767C12.7891 14.0659 12.9841 13.9242 12.9504 13.7396L12.4116 10.8026L14.5737 8.74339C14.7095 8.6138 14.6354 8.38464 14.4491 8.35964L11.4895 7.96464L10.1991 5.27214C10.1179 5.10255 9.87705 5.10255 9.7958 5.27172Z" fill="#FFA906"/>
<path d="M9.80112 5.34209L8.53195 7.99084L5.6207 8.37959C5.43779 8.40418 5.36445 8.62959 5.4982 8.75709L7.62487 10.7829L7.09487 13.6717C7.06154 13.8533 7.2532 13.9925 7.4157 13.905L9.99945 12.5079L12.5832 13.9046C12.7457 13.9925 12.9374 13.8529 12.904 13.6713L12.374 10.7825L14.5007 8.75668C14.6345 8.62918 14.5611 8.40376 14.3782 8.37918L11.467 7.99043L10.1978 5.34168C10.1182 5.17543 9.8807 5.17543 9.80112 5.34209Z" fill="#FFA805"/>
<path d="M9.80306 5.41261L8.55472 8.01719L5.69181 8.39927C5.51181 8.42344 5.43972 8.64511 5.57139 8.77011L7.66264 10.7622L7.14139 13.603C7.10847 13.7818 7.29722 13.9189 7.45681 13.8322L9.99806 12.4589L12.5389 13.8322C12.6985 13.9184 12.8872 13.7814 12.8543 13.603L12.3331 10.7622L14.4243 8.77011C14.556 8.64469 14.4839 8.42302 14.3039 8.39927L11.441 8.01719L10.1926 5.41261C10.1147 5.24886 9.88139 5.24886 9.80306 5.41261Z" fill="#FFA704"/>
<path d="M9.80457 5.48294L8.57749 8.04335L5.76291 8.41919C5.58582 8.44294 5.51499 8.66085 5.64457 8.78377L7.70041 10.7421L7.18791 13.535C7.15582 13.7104 7.34124 13.8454 7.49832 13.7604L9.99624 12.41L12.4942 13.7604C12.6512 13.8454 12.8367 13.7104 12.8046 13.535L12.2921 10.7421L14.3479 8.78377C14.4771 8.66044 14.4062 8.44252 14.2296 8.41919L11.415 8.04335L10.1879 5.48294C10.1108 5.32169 9.88166 5.32169 9.80457 5.48294Z" fill="#FFA604"/>
<path d="M9.80941 5.55344L8.60358 8.07011L5.83774 8.43928C5.66399 8.46261 5.59441 8.67678 5.72108 8.79761L7.74191 10.7222L7.23858 13.4668C7.20691 13.6393 7.38899 13.7718 7.54358 13.6884L9.99774 12.3614L12.4527 13.6884C12.6069 13.7718 12.7894 13.6393 12.7577 13.4668L12.2544 10.7222L14.2752 8.79761C14.4023 8.67678 14.3327 8.46219 14.1586 8.43928L11.3927 8.07011L10.1869 5.55344C10.1102 5.39511 9.88524 5.39511 9.80941 5.55344Z" fill="#FFA503"/>
<path d="M9.81135 5.62389L8.62635 8.09639L5.90885 8.45931C5.73801 8.48223 5.66968 8.69264 5.79426 8.81139L7.77968 10.7022L7.2851 13.3989C7.25385 13.5685 7.43301 13.6985 7.58468 13.6164L9.99635 12.3126L12.408 13.6164C12.5597 13.6985 12.7388 13.5685 12.7076 13.3989L12.213 10.7022L14.1984 8.81139C14.3234 8.69264 14.2547 8.48181 14.0838 8.45931L11.3663 8.09639L10.1813 5.62389C10.1072 5.46806 9.88551 5.46806 9.81135 5.62389Z" fill="#FFA402"/>
<path d="M9.81677 5.69385L8.65302 8.12218L5.98385 8.47843C5.81594 8.50093 5.74885 8.7076 5.87135 8.82427L7.82135 10.6814L7.33552 13.3301C7.3051 13.4968 7.48094 13.6243 7.62969 13.5439L9.99844 12.2639L12.3672 13.5443C12.5159 13.6247 12.6922 13.4972 12.6614 13.3305L12.1755 10.6818L14.1255 8.82468C14.248 8.70802 14.1809 8.50135 14.013 8.47885L11.3439 8.1226L10.1801 5.69427C10.1072 5.54135 9.88969 5.54135 9.81677 5.69385Z" fill="#FFA301"/>
<path d="M9.81819 5.76418L8.67569 8.14835L6.05486 8.49835C5.89027 8.52043 5.82402 8.72335 5.94444 8.83793L7.85902 10.6613L7.38194 13.2617C7.35194 13.425 7.52444 13.5509 7.67069 13.4717L9.99694 12.215L12.3228 13.4725C12.469 13.5517 12.6415 13.4263 12.6115 13.2625L12.1344 10.6621L14.049 8.83877C14.1694 8.72418 14.1036 8.52127 13.9386 8.49918L11.3178 8.14918L10.1753 5.76502C10.1036 5.6146 9.89027 5.6146 9.81819 5.76418Z" fill="#FFA200"/>
<path d="M15.9742 3.91519C16.3396 3.91519 16.6358 3.61895 16.6358 3.25352C16.6358 2.8881 16.3396 2.59186 15.9742 2.59186C15.6087 2.59186 15.3125 2.8881 15.3125 3.25352C15.3125 3.61895 15.6087 3.91519 15.9742 3.91519Z" fill="#FFA200"/>
<path d="M15.9321 3.94388C16.2915 3.94388 16.5829 3.65249 16.5829 3.29305C16.5829 2.9336 16.2915 2.64221 15.9321 2.64221C15.5726 2.64221 15.2812 2.9336 15.2812 3.29305C15.2812 3.65249 15.5726 3.94388 15.9321 3.94388Z" fill="#FFA301"/>
<path d="M15.8939 3.97305C16.2474 3.97305 16.5339 3.68652 16.5339 3.33305C16.5339 2.97959 16.2474 2.69305 15.8939 2.69305C15.5404 2.69305 15.2539 2.97959 15.2539 3.33305C15.2539 3.68652 15.5404 3.97305 15.8939 3.97305Z" fill="#FFA502"/>
<path d="M15.8522 4.00264C16.1999 4.00264 16.4818 3.72076 16.4818 3.37305C16.4818 3.02534 16.1999 2.74347 15.8522 2.74347C15.5045 2.74347 15.2227 3.02534 15.2227 3.37305C15.2227 3.72076 15.5045 4.00264 15.8522 4.00264Z" fill="#FFA604"/>
<path d="M15.8141 4.03187C16.1558 4.03187 16.4328 3.75485 16.4328 3.41312C16.4328 3.0714 16.1558 2.79437 15.8141 2.79437C15.4723 2.79437 15.1953 3.0714 15.1953 3.41312C15.1953 3.75485 15.4723 4.03187 15.8141 4.03187Z" fill="#FFA705"/>
<path d="M15.772 4.06062C16.1077 4.06062 16.3799 3.78845 16.3799 3.4527C16.3799 3.11696 16.1077 2.84479 15.772 2.84479C15.4362 2.84479 15.1641 3.11696 15.1641 3.4527C15.1641 3.78845 15.4362 4.06062 15.772 4.06062Z" fill="#FFA906"/>
<path d="M15.7342 4.09026C16.0642 4.09026 16.3317 3.82275 16.3317 3.49276C16.3317 3.16277 16.0642 2.89526 15.7342 2.89526C15.4042 2.89526 15.1367 3.16277 15.1367 3.49276C15.1367 3.82275 15.4042 4.09026 15.7342 4.09026Z" fill="#FFAA07"/>
<path d="M15.6921 4.11944C16.0161 4.11944 16.2788 3.85678 16.2788 3.53277C16.2788 3.20877 16.0161 2.94611 15.6921 2.94611C15.3681 2.94611 15.1055 3.20877 15.1055 3.53277C15.1055 3.85678 15.3681 4.11944 15.6921 4.11944Z" fill="#FFAB08"/>
<path d="M15.654 4.14855C15.972 4.14855 16.2298 3.89074 16.2298 3.57272C16.2298 3.2547 15.972 2.99689 15.654 2.99689C15.3359 2.99689 15.0781 3.2547 15.0781 3.57272C15.0781 3.89074 15.3359 4.14855 15.654 4.14855Z" fill="#FFAD0A"/>
<path d="M15.6123 4.17814C15.9246 4.17814 16.1777 3.92499 16.1777 3.61272C16.1777 3.30045 15.9246 3.0473 15.6123 3.0473C15.3 3.0473 15.0469 3.30045 15.0469 3.61272C15.0469 3.92499 15.3 4.17814 15.6123 4.17814Z" fill="#FFAE0B"/>
<path d="M15.5741 4.20688C15.8804 4.20688 16.1287 3.95859 16.1287 3.6523C16.1287 3.34601 15.8804 3.09772 15.5741 3.09772C15.2678 3.09772 15.0195 3.34601 15.0195 3.6523C15.0195 3.95859 15.2678 4.20688 15.5741 4.20688Z" fill="#FFAF0C"/>
<path d="M15.532 4.236C15.8323 4.236 16.0758 3.99255 16.0758 3.69225C16.0758 3.39194 15.8323 3.1485 15.532 3.1485C15.2317 3.1485 14.9883 3.39194 14.9883 3.69225C14.9883 3.99255 15.2317 4.236 15.532 4.236Z" fill="#FFB10D"/>
<path d="M15.4943 4.26558C15.7888 4.26558 16.0276 4.0268 16.0276 3.73225C16.0276 3.43769 15.7888 3.19891 15.4943 3.19891C15.1997 3.19891 14.9609 3.43769 14.9609 3.73225C14.9609 4.0268 15.1997 4.26558 15.4943 4.26558Z" fill="#FFB20F"/>
<path d="M15.4522 4.29482C15.7408 4.29482 15.9747 4.06089 15.9747 3.77232C15.9747 3.48375 15.7408 3.24982 15.4522 3.24982C15.1636 3.24982 14.9297 3.48375 14.9297 3.77232C14.9297 4.06089 15.1636 4.29482 15.4522 4.29482Z" fill="#FFB410"/>
<path d="M15.4101 4.32387C15.6927 4.32387 15.9218 4.09479 15.9218 3.8122C15.9218 3.52962 15.6927 3.30054 15.4101 3.30054C15.1275 3.30054 14.8984 3.52962 14.8984 3.8122C14.8984 4.09479 15.1275 4.32387 15.4101 4.32387Z" fill="#FFB511"/>
<path d="M15.3723 4.35321C15.6492 4.35321 15.8736 4.12879 15.8736 3.85196C15.8736 3.57513 15.6492 3.35071 15.3723 3.35071C15.0955 3.35071 14.8711 3.57513 14.8711 3.85196C14.8711 4.12879 15.0955 4.35321 15.3723 4.35321Z" fill="#FFB612"/>
<path d="M15.3303 4.38226C15.6011 4.38226 15.8207 4.16269 15.8207 3.89184C15.8207 3.621 15.6011 3.40143 15.3303 3.40143C15.0594 3.40143 14.8398 3.621 14.8398 3.89184C14.8398 4.16269 15.0594 4.38226 15.3303 4.38226Z" fill="#FFB813"/>
<path d="M15.2921 4.41138C15.557 4.41138 15.7717 4.19666 15.7717 3.93179C15.7717 3.66693 15.557 3.45221 15.2921 3.45221C15.0272 3.45221 14.8125 3.66693 14.8125 3.93179C14.8125 4.19666 15.0272 4.41138 15.2921 4.41138Z" fill="#FFB915"/>
<path d="M15.2504 4.44108C15.5095 4.44108 15.7196 4.23103 15.7196 3.97191C15.7196 3.7128 15.5095 3.50275 15.2504 3.50275C14.9913 3.50275 14.7812 3.7128 14.7812 3.97191C14.7812 4.23103 14.9913 4.44108 15.2504 4.44108Z" fill="#FFBA16"/>
<path d="M15.2122 4.46983C15.4654 4.46983 15.6706 4.26463 15.6706 4.01149C15.6706 3.75836 15.4654 3.55316 15.2122 3.55316C14.9591 3.55316 14.7539 3.75836 14.7539 4.01149C14.7539 4.26463 14.9591 4.46983 15.2122 4.46983Z" fill="#FFBC17"/>
<path d="M15.1741 4.49894C15.4212 4.49894 15.6216 4.29859 15.6216 4.05144C15.6216 3.8043 15.4212 3.60394 15.1741 3.60394C14.9269 3.60394 14.7266 3.8043 14.7266 4.05144C14.7266 4.29859 14.9269 4.49894 15.1741 4.49894Z" fill="#FFBD18"/>
<path d="M15.1324 4.52852C15.3738 4.52852 15.5695 4.33284 15.5695 4.09144C15.5695 3.85005 15.3738 3.65436 15.1324 3.65436C14.891 3.65436 14.6953 3.85005 14.6953 4.09144C14.6953 4.33284 14.891 4.52852 15.1324 4.52852Z" fill="#FFBE19"/>
<path d="M15.0903 4.55764C15.3257 4.55764 15.5166 4.3668 15.5166 4.13139C15.5166 3.89598 15.3257 3.70514 15.0903 3.70514C14.8549 3.70514 14.6641 3.89598 14.6641 4.13139C14.6641 4.3668 14.8549 4.55764 15.0903 4.55764Z" fill="#FFC01B"/>
<path d="M15.0521 4.58682C15.2816 4.58682 15.4675 4.40083 15.4675 4.1714C15.4675 3.94197 15.2816 3.75598 15.0521 3.75598C14.8227 3.75598 14.6367 3.94197 14.6367 4.1714C14.6367 4.40083 14.8227 4.58682 15.0521 4.58682Z" fill="#FFC11C"/>
<path d="M15.0144 4.61603C15.2381 4.61603 15.4194 4.43471 15.4194 4.21103C15.4194 3.98735 15.2381 3.80603 15.0144 3.80603C14.7907 3.80603 14.6094 3.98735 14.6094 4.21103C14.6094 4.43471 14.7907 4.61603 15.0144 4.61603Z" fill="#FFC21D"/>
<path d="M14.9762 4.64508C15.1939 4.64508 15.3704 4.46861 15.3704 4.25092C15.3704 4.03322 15.1939 3.85675 14.9762 3.85675C14.7585 3.85675 14.582 4.03322 14.582 4.25092C14.582 4.46861 14.7585 4.64508 14.9762 4.64508Z" fill="#FFC41E"/>
<path d="M14.9341 4.67432C15.1458 4.67432 15.3174 4.5027 15.3174 4.29099C15.3174 4.07928 15.1458 3.90765 14.9341 3.90765C14.7224 3.90765 14.5508 4.07928 14.5508 4.29099C14.5508 4.5027 14.7224 4.67432 14.9341 4.67432Z" fill="#FFC51F"/>
<path d="M14.8964 4.7039C15.1023 4.7039 15.2693 4.53694 15.2693 4.33099C15.2693 4.12503 15.1023 3.95807 14.8964 3.95807C14.6904 3.95807 14.5234 4.12503 14.5234 4.33099C14.5234 4.53694 14.6904 4.7039 14.8964 4.7039Z" fill="#FFC621"/>
<path d="M14.8582 4.73314C15.0581 4.73314 15.2203 4.57103 15.2203 4.37106C15.2203 4.17108 15.0581 4.00897 14.8582 4.00897C14.6582 4.00897 14.4961 4.17108 14.4961 4.37106C14.4961 4.57103 14.6582 4.73314 14.8582 4.73314Z" fill="#FFC822"/>
<path d="M14.8161 4.76189C15.0101 4.76189 15.1673 4.60463 15.1673 4.41064C15.1673 4.21665 15.0101 4.05939 14.8161 4.05939C14.6221 4.05939 14.4648 4.21665 14.4648 4.41064C14.4648 4.60463 14.6221 4.76189 14.8161 4.76189Z" fill="#FFC923"/>
<path d="M14.7783 4.79147C14.9666 4.79147 15.1192 4.63887 15.1192 4.45064C15.1192 4.2624 14.9666 4.1098 14.7783 4.1098C14.5901 4.1098 14.4375 4.2624 14.4375 4.45064C14.4375 4.63887 14.5901 4.79147 14.7783 4.79147Z" fill="#FFCA24"/>
<path d="M14.7362 4.82071C14.9185 4.82071 15.0662 4.67296 15.0662 4.49071C15.0662 4.30845 14.9185 4.16071 14.7362 4.16071C14.554 4.16071 14.4062 4.30845 14.4062 4.49071C14.4062 4.67296 14.554 4.82071 14.7362 4.82071Z" fill="#FFCC25"/>
<path d="M14.6981 4.84976C14.8743 4.84976 15.0172 4.70686 15.0172 4.53059C15.0172 4.35432 14.8743 4.21143 14.6981 4.21143C14.5218 4.21143 14.3789 4.35432 14.3789 4.53059C14.3789 4.70686 14.5218 4.84976 14.6981 4.84976Z" fill="#FFCD27"/>
<path d="M14.6564 4.87897C14.8269 4.87897 14.9652 4.74074 14.9652 4.57022C14.9652 4.39971 14.8269 4.26147 14.6564 4.26147C14.4859 4.26147 14.3477 4.39971 14.3477 4.57022C14.3477 4.74074 14.4859 4.87897 14.6564 4.87897Z" fill="#FFCF28"/>
<path d="M14.6182 4.90803C14.7828 4.90803 14.9161 4.77465 14.9161 4.61011C14.9161 4.44558 14.7828 4.31219 14.6182 4.31219C14.4537 4.31219 14.3203 4.44558 14.3203 4.61011C14.3203 4.77465 14.4537 4.90803 14.6182 4.90803Z" fill="#FFD029"/>
<path d="M14.5761 4.93726C14.7347 4.93726 14.8632 4.80873 14.8632 4.65018C14.8632 4.49163 14.7347 4.3631 14.5761 4.3631C14.4176 4.3631 14.2891 4.49163 14.2891 4.65018C14.2891 4.80873 14.4176 4.93726 14.5761 4.93726Z" fill="#FFD12A"/>
<path d="M14.5384 4.96685C14.6912 4.96685 14.8151 4.84298 14.8151 4.69018C14.8151 4.53738 14.6912 4.41351 14.5384 4.41351C14.3856 4.41351 14.2617 4.53738 14.2617 4.69018C14.2617 4.84298 14.3856 4.96685 14.5384 4.96685Z" fill="#FFD32C"/>
<path d="M14.4963 4.99596C14.6431 4.99596 14.7621 4.87694 14.7621 4.73013C14.7621 4.58331 14.6431 4.46429 14.4963 4.46429C14.3495 4.46429 14.2305 4.58331 14.2305 4.73013C14.2305 4.87694 14.3495 4.99596 14.4963 4.99596Z" fill="#FFD42D"/>
<path d="M14.4581 5.02471C14.599 5.02471 14.7131 4.91054 14.7131 4.76971C14.7131 4.62888 14.599 4.51471 14.4581 4.51471C14.3173 4.51471 14.2031 4.62888 14.2031 4.76971C14.2031 4.91054 14.3173 5.02471 14.4581 5.02471Z" fill="#FFD52E"/>
<path d="M14.4165 5.05441C14.5515 5.05441 14.661 4.94491 14.661 4.80983C14.661 4.67475 14.5515 4.56525 14.4165 4.56525C14.2814 4.56525 14.1719 4.67475 14.1719 4.80983C14.1719 4.94491 14.2814 5.05441 14.4165 5.05441Z" fill="#FFD72F"/>
<path d="M14.3783 5.08353C14.5074 5.08353 14.612 4.97887 14.612 4.84978C14.612 4.72068 14.5074 4.61603 14.3783 4.61603C14.2492 4.61603 14.1445 4.72068 14.1445 4.84978C14.1445 4.97887 14.2492 5.08353 14.3783 5.08353Z" fill="#FFD830"/>
<path d="M14.3362 5.1127C14.4593 5.1127 14.5591 5.0129 14.5591 4.88979C14.5591 4.76667 14.4593 4.66687 14.3362 4.66687C14.2131 4.66687 14.1133 4.76667 14.1133 4.88979C14.1133 5.0129 14.2131 5.1127 14.3362 5.1127Z" fill="#FFD932"/>
<path d="M14.2984 5.14235C14.4158 5.14235 14.5109 5.04721 14.5109 4.92985C14.5109 4.81249 14.4158 4.71735 14.2984 4.71735C14.1811 4.71735 14.0859 4.81249 14.0859 4.92985C14.0859 5.04721 14.1811 5.14235 14.2984 5.14235Z" fill="#FFDB33"/>
<path d="M14.2564 5.17097C14.3677 5.17097 14.458 5.08068 14.458 4.9693C14.458 4.85793 14.3677 4.76764 14.2564 4.76764C14.145 4.76764 14.0547 4.85793 14.0547 4.9693C14.0547 5.08068 14.145 5.17097 14.2564 5.17097Z" fill="#FFDC34"/>
<path d="M18.0523 13.9152C18.4177 13.9152 18.714 13.619 18.714 13.2535C18.714 12.8881 18.4177 12.5919 18.0523 12.5919C17.6869 12.5919 17.3906 12.8881 17.3906 13.2535C17.3906 13.619 17.6869 13.9152 18.0523 13.9152Z" fill="#FFA200"/>
<path d="M18.0119 13.8905C18.3722 13.8905 18.6644 13.5984 18.6644 13.238C18.6644 12.8776 18.3722 12.5855 18.0119 12.5855C17.6515 12.5855 17.3594 12.8776 17.3594 13.238C17.3594 13.5984 17.6515 13.8905 18.0119 13.8905Z" fill="#FFA301"/>
<path d="M17.968 13.8665C18.3235 13.8665 18.6117 13.5783 18.6117 13.2227C18.6117 12.8672 18.3235 12.579 17.968 12.579C17.6124 12.579 17.3242 12.8672 17.3242 13.2227C17.3242 13.5783 17.6124 13.8665 17.968 13.8665Z" fill="#FFA402"/>
<path d="M17.9315 13.8418C18.2819 13.8418 18.566 13.5577 18.566 13.2072C18.566 12.8567 18.2819 12.5726 17.9315 12.5726C17.581 12.5726 17.2969 12.8567 17.2969 13.2072C17.2969 13.5577 17.581 13.8418 17.9315 13.8418Z" fill="#FFA503"/>
<path d="M17.8871 13.8172C18.2325 13.8172 18.5126 13.5372 18.5126 13.1918C18.5126 12.8464 18.2325 12.5664 17.8871 12.5664C17.5417 12.5664 17.2617 12.8464 17.2617 13.1918C17.2617 13.5372 17.5417 13.8172 17.8871 13.8172Z" fill="#FFA704"/>
<path d="M17.8432 13.793C18.1838 13.793 18.4599 13.5169 18.4599 13.1763C18.4599 12.8357 18.1838 12.5596 17.8432 12.5596C17.5027 12.5596 17.2266 12.8357 17.2266 13.1763C17.2266 13.5169 17.5027 13.793 17.8432 13.793Z" fill="#FFA805"/>
<path d="M17.7989 13.7685C18.1344 13.7685 18.4064 13.4965 18.4064 13.161C18.4064 12.8255 18.1344 12.5535 17.7989 12.5535C17.4634 12.5535 17.1914 12.8255 17.1914 13.161C17.1914 13.4965 17.4634 13.7685 17.7989 13.7685Z" fill="#FFA906"/>
<path d="M17.7585 13.7438C18.0889 13.7438 18.3568 13.476 18.3568 13.1455C18.3568 12.8151 18.0889 12.5472 17.7585 12.5472C17.428 12.5472 17.1602 12.8151 17.1602 13.1455C17.1602 13.476 17.428 13.7438 17.7585 13.7438Z" fill="#FFAA07"/>
<path d="M17.7146 13.7197C18.0402 13.7197 18.3042 13.4557 18.3042 13.1301C18.3042 12.8045 18.0402 12.5405 17.7146 12.5405C17.389 12.5405 17.125 12.8045 17.125 13.1301C17.125 13.4557 17.389 13.7197 17.7146 13.7197Z" fill="#FFAB08"/>
<path d="M17.6781 13.6956C17.9986 13.6956 18.2585 13.4357 18.2585 13.1151C18.2585 12.7946 17.9986 12.5347 17.6781 12.5347C17.3575 12.5347 17.0977 12.7946 17.0977 13.1151C17.0977 13.4357 17.3575 13.6956 17.6781 13.6956Z" fill="#FFAC09"/>
<path d="M17.6338 13.6709C17.9492 13.6709 18.205 13.4152 18.205 13.0997C18.205 12.7842 17.9492 12.5284 17.6338 12.5284C17.3183 12.5284 17.0625 12.7842 17.0625 13.0997C17.0625 13.4152 17.3183 13.6709 17.6338 13.6709Z" fill="#FFAD0A"/>
<path d="M17.5938 13.6469C17.9044 13.6469 18.1562 13.395 18.1562 13.0844C18.1562 12.7737 17.9044 12.5219 17.5938 12.5219C17.2831 12.5219 17.0312 12.7737 17.0312 13.0844C17.0312 13.395 17.2831 13.6469 17.5938 13.6469Z" fill="#FFAF0B"/>
<path d="M17.5533 13.6222C17.8589 13.6222 18.1067 13.3745 18.1067 13.0689C18.1067 12.7633 17.8589 12.5156 17.5533 12.5156C17.2477 12.5156 17 12.7633 17 13.0689C17 13.3745 17.2477 13.6222 17.5533 13.6222Z" fill="#FFB00C"/>
<path d="M17.509 13.5977C17.8095 13.5977 18.0532 13.354 18.0532 13.0535C18.0532 12.753 17.8095 12.5093 17.509 12.5093C17.2085 12.5093 16.9648 12.753 16.9648 13.0535C16.9648 13.354 17.2085 13.5977 17.509 13.5977Z" fill="#FFB10D"/>
<path d="M17.469 13.5735C17.7647 13.5735 18.0044 13.3338 18.0044 13.0381C18.0044 12.7424 17.7647 12.5027 17.469 12.5027C17.1733 12.5027 16.9336 12.7424 16.9336 13.0381C16.9336 13.3338 17.1733 13.5735 17.469 13.5735Z" fill="#FFB20E"/>
<path d="M17.4247 13.549C17.7153 13.549 17.9509 13.3133 17.9509 13.0227C17.9509 12.7321 17.7153 12.4965 17.4247 12.4965C17.134 12.4965 16.8984 12.7321 16.8984 13.0227C16.8984 13.3133 17.134 13.549 17.4247 13.549Z" fill="#FFB30F"/>
<path d="M17.3882 13.5243C17.6738 13.5243 17.9053 13.2928 17.9053 13.0072C17.9053 12.7216 17.6738 12.4901 17.3882 12.4901C17.1026 12.4901 16.8711 12.7216 16.8711 13.0072C16.8711 13.2928 17.1026 13.5243 17.3882 13.5243Z" fill="#FFB410"/>
<path d="M17.3404 13.5001C17.6211 13.5001 17.8487 13.2725 17.8487 12.9918C17.8487 12.711 17.6211 12.4835 17.3404 12.4835C17.0596 12.4835 16.832 12.711 16.832 12.9918C16.832 13.2725 17.0596 13.5001 17.3404 13.5001Z" fill="#FFB511"/>
<path d="M17.3039 13.476C17.5795 13.476 17.803 13.2525 17.803 12.9768C17.803 12.7011 17.5795 12.4777 17.3039 12.4777C17.0282 12.4777 16.8047 12.7011 16.8047 12.9768C16.8047 13.2525 17.0282 13.476 17.3039 13.476Z" fill="#FFB612"/>
<path d="M17.2599 13.4518C17.5308 13.4518 17.7504 13.2323 17.7504 12.9614C17.7504 12.6906 17.5308 12.471 17.2599 12.471C16.9891 12.471 16.7695 12.6906 16.7695 12.9614C16.7695 13.2323 16.9891 13.4518 17.2599 13.4518Z" fill="#FFB813"/>
<path d="M17.2156 13.4272C17.4814 13.4272 17.6969 13.2117 17.6969 12.9459C17.6969 12.6801 17.4814 12.4647 17.2156 12.4647C16.9498 12.4647 16.7344 12.6801 16.7344 12.9459C16.7344 13.2117 16.9498 13.4272 17.2156 13.4272Z" fill="#FFB914"/>
<path d="M17.1713 13.4026C17.432 13.4026 17.6434 13.1912 17.6434 12.9305C17.6434 12.6698 17.432 12.4584 17.1713 12.4584C16.9106 12.4584 16.6992 12.6698 16.6992 12.9305C16.6992 13.1912 16.9106 13.4026 17.1713 13.4026Z" fill="#FFBA15"/>
<path d="M17.1352 13.3786C17.3911 13.3786 17.5985 13.1711 17.5985 12.9152C17.5985 12.6593 17.3911 12.4519 17.1352 12.4519C16.8793 12.4519 16.6719 12.6593 16.6719 12.9152C16.6719 13.1711 16.8793 13.3786 17.1352 13.3786Z" fill="#FFBB16"/>
<path d="M17.0909 13.3539C17.3417 13.3539 17.5451 13.1506 17.5451 12.8997C17.5451 12.6489 17.3417 12.4456 17.0909 12.4456C16.8401 12.4456 16.6367 12.6489 16.6367 12.8997C16.6367 13.1506 16.8401 13.3539 17.0909 13.3539Z" fill="#FFBC17"/>
<path d="M17.0505 13.3292C17.2962 13.3292 17.4955 13.13 17.4955 12.8842C17.4955 12.6384 17.2962 12.4392 17.0505 12.4392C16.8047 12.4392 16.6055 12.6384 16.6055 12.8842C16.6055 13.13 16.8047 13.3292 17.0505 13.3292Z" fill="#FFBD18"/>
<path d="M17.0066 13.3052C17.2475 13.3052 17.4428 13.1099 17.4428 12.8689C17.4428 12.628 17.2475 12.4327 17.0066 12.4327C16.7656 12.4327 16.5703 12.628 16.5703 12.8689C16.5703 13.1099 16.7656 13.3052 17.0066 13.3052Z" fill="#FFBE19"/>
<path d="M16.9661 13.2806C17.202 13.2806 17.3932 13.0894 17.3932 12.8535C17.3932 12.6177 17.202 12.4265 16.9661 12.4265C16.7303 12.4265 16.5391 12.6177 16.5391 12.8535C16.5391 13.0894 16.7303 13.2806 16.9661 13.2806Z" fill="#FFC01B"/>
<path d="M16.9218 13.2564C17.1526 13.2564 17.3397 13.0693 17.3397 12.8384C17.3397 12.6076 17.1526 12.4205 16.9218 12.4205C16.691 12.4205 16.5039 12.6076 16.5039 12.8384C16.5039 13.0693 16.691 13.2564 16.9218 13.2564Z" fill="#FFC11C"/>
<path d="M16.8818 13.2322C17.1078 13.2322 17.291 13.049 17.291 12.823C17.291 12.5971 17.1078 12.4139 16.8818 12.4139C16.6558 12.4139 16.4727 12.5971 16.4727 12.823C16.4727 13.049 16.6558 13.2322 16.8818 13.2322Z" fill="#FFC21D"/>
<path d="M16.8414 13.2076C17.0623 13.2076 17.2414 13.0285 17.2414 12.8076C17.2414 12.5867 17.0623 12.4076 16.8414 12.4076C16.6205 12.4076 16.4414 12.5867 16.4414 12.8076C16.4414 13.0285 16.6205 13.2076 16.8414 13.2076Z" fill="#FFC31E"/>
<path d="M16.7971 13.1832C17.0129 13.1832 17.1879 13.0082 17.1879 12.7923C17.1879 12.5765 17.0129 12.4015 16.7971 12.4015C16.5812 12.4015 16.4062 12.5765 16.4062 12.7923C16.4062 13.0082 16.5812 13.1832 16.7971 13.1832Z" fill="#FFC41F"/>
<path d="M16.7571 13.1589C16.9681 13.1589 17.1392 12.9878 17.1392 12.7768C17.1392 12.5658 16.9681 12.3947 16.7571 12.3947C16.5461 12.3947 16.375 12.5658 16.375 12.7768C16.375 12.9878 16.5461 13.1589 16.7571 13.1589Z" fill="#FFC520"/>
<path d="M16.7167 13.1343C16.9226 13.1343 17.0896 12.9674 17.0896 12.7614C17.0896 12.5554 16.9226 12.3885 16.7167 12.3885C16.5107 12.3885 16.3438 12.5554 16.3438 12.7614C16.3438 12.9674 16.5107 13.1343 16.7167 13.1343Z" fill="#FFC621"/>
<path d="M16.6728 13.1102C16.8739 13.1102 17.0369 12.9471 17.0369 12.746C17.0369 12.5449 16.8739 12.3818 16.6728 12.3818C16.4716 12.3818 16.3086 12.5449 16.3086 12.746C16.3086 12.9471 16.4716 13.1102 16.6728 13.1102Z" fill="#FFC822"/>
<path d="M16.6284 13.0856C16.8245 13.0856 16.9834 12.9267 16.9834 12.7306C16.9834 12.5345 16.8245 12.3756 16.6284 12.3756C16.4324 12.3756 16.2734 12.5345 16.2734 12.7306C16.2734 12.9267 16.4324 13.0856 16.6284 13.0856Z" fill="#FFC923"/>
<path d="M16.5919 13.0615C16.7829 13.0615 16.9378 12.9066 16.9378 12.7156C16.9378 12.5246 16.7829 12.3698 16.5919 12.3698C16.4009 12.3698 16.2461 12.5246 16.2461 12.7156C16.2461 12.9066 16.4009 13.0615 16.5919 13.0615Z" fill="#FFCA24"/>
<path d="M16.548 13.0372C16.7342 13.0372 16.8851 12.8863 16.8851 12.7001C16.8851 12.514 16.7342 12.363 16.548 12.363C16.3619 12.363 16.2109 12.514 16.2109 12.7001C16.2109 12.8863 16.3619 13.0372 16.548 13.0372Z" fill="#FFCB25"/>
<path d="M16.5076 13.0126C16.6887 13.0126 16.8355 12.8658 16.8355 12.6847C16.8355 12.5036 16.6887 12.3568 16.5076 12.3568C16.3265 12.3568 16.1797 12.5036 16.1797 12.6847C16.1797 12.8658 16.3265 13.0126 16.5076 13.0126Z" fill="#FFCC26"/>
<path d="M16.4633 12.9881C16.6393 12.9881 16.782 12.8454 16.782 12.6693C16.782 12.4933 16.6393 12.3506 16.4633 12.3506C16.2872 12.3506 16.1445 12.4933 16.1445 12.6693C16.1445 12.8454 16.2872 12.9881 16.4633 12.9881Z" fill="#FFCD27"/>
<path d="M16.4233 12.9639C16.5945 12.9639 16.7333 12.8251 16.7333 12.6539C16.7333 12.4827 16.5945 12.3439 16.4233 12.3439C16.2521 12.3439 16.1133 12.4827 16.1133 12.6539C16.1133 12.8251 16.2521 12.9639 16.4233 12.9639Z" fill="#FFCE28"/>
<path d="M16.379 12.9393C16.5451 12.9393 16.6798 12.8046 16.6798 12.6384C16.6798 12.4723 16.5451 12.3376 16.379 12.3376C16.2128 12.3376 16.0781 12.4723 16.0781 12.6384C16.0781 12.8046 16.2128 12.9393 16.379 12.9393Z" fill="#FFCF29"/>
<path d="M16.3385 12.9147C16.4996 12.9147 16.6302 12.7841 16.6302 12.623C16.6302 12.4619 16.4996 12.3314 16.3385 12.3314C16.1775 12.3314 16.0469 12.4619 16.0469 12.623C16.0469 12.7841 16.1775 12.9147 16.3385 12.9147Z" fill="#FFD12A"/>
<path d="M16.2985 12.8905C16.4548 12.8905 16.5815 12.7639 16.5815 12.6076C16.5815 12.4514 16.4548 12.3247 16.2985 12.3247C16.1423 12.3247 16.0156 12.4514 16.0156 12.6076C16.0156 12.7639 16.1423 12.8905 16.2985 12.8905Z" fill="#FFD22B"/>
<path d="M16.2581 12.866C16.4093 12.866 16.5319 12.7434 16.5319 12.5922C16.5319 12.441 16.4093 12.3185 16.2581 12.3185C16.1069 12.3185 15.9844 12.441 15.9844 12.5922C15.9844 12.7434 16.1069 12.866 16.2581 12.866Z" fill="#FFD32C"/>
<path d="M16.2138 12.8418C16.3599 12.8418 16.4784 12.7233 16.4784 12.5772C16.4784 12.4311 16.3599 12.3126 16.2138 12.3126C16.0677 12.3126 15.9492 12.4311 15.9492 12.5772C15.9492 12.7233 16.0677 12.8418 16.2138 12.8418Z" fill="#FFD42D"/>
<path d="M16.1699 12.8176C16.3112 12.8176 16.4257 12.7031 16.4257 12.5618C16.4257 12.4205 16.3112 12.306 16.1699 12.306C16.0286 12.306 15.9141 12.4205 15.9141 12.5618C15.9141 12.7031 16.0286 12.8176 16.1699 12.8176Z" fill="#FFD52E"/>
<path d="M16.1256 12.7931C16.2618 12.7931 16.3722 12.6826 16.3722 12.5464C16.3722 12.4102 16.2618 12.2997 16.1256 12.2997C15.9893 12.2997 15.8789 12.4102 15.8789 12.5464C15.8789 12.6826 15.9893 12.7931 16.1256 12.7931Z" fill="#FFD62F"/>
<path d="M16.0856 12.7689C16.217 12.7689 16.3235 12.6624 16.3235 12.531C16.3235 12.3996 16.217 12.2931 16.0856 12.2931C15.9542 12.2931 15.8477 12.3996 15.8477 12.531C15.8477 12.6624 15.9542 12.7689 16.0856 12.7689Z" fill="#FFD730"/>
<path d="M16.0452 12.7442C16.1715 12.7442 16.2739 12.6418 16.2739 12.5155C16.2739 12.3892 16.1715 12.2867 16.0452 12.2867C15.9188 12.2867 15.8164 12.3892 15.8164 12.5155C15.8164 12.6418 15.9188 12.7442 16.0452 12.7442Z" fill="#FFD931"/>
<path d="M16.0047 12.7197C16.126 12.7197 16.2243 12.6214 16.2243 12.5001C16.2243 12.3788 16.126 12.2805 16.0047 12.2805C15.8835 12.2805 15.7852 12.3788 15.7852 12.5001C15.7852 12.6214 15.8835 12.7197 16.0047 12.7197Z" fill="#FFDA32"/>
<path d="M15.9608 12.6957C16.0773 12.6957 16.1717 12.6013 16.1717 12.4848C16.1717 12.3684 16.0773 12.274 15.9608 12.274C15.8444 12.274 15.75 12.3684 15.75 12.4848C15.75 12.6013 15.8444 12.6957 15.9608 12.6957Z" fill="#FFDB33"/>
<path d="M15.9204 12.671C16.0318 12.671 16.1221 12.5807 16.1221 12.4693C16.1221 12.3579 16.0318 12.2676 15.9204 12.2676C15.809 12.2676 15.7188 12.3579 15.7188 12.4693C15.7188 12.5807 15.809 12.671 15.9204 12.671Z" fill="#FFDC34"/>
<path d="M9.9976 19.3318C10.363 19.3318 10.6593 19.0356 10.6593 18.6701C10.6593 18.3047 10.363 18.0085 9.9976 18.0085C9.63218 18.0085 9.33594 18.3047 9.33594 18.6701C9.33594 19.0356 9.63218 19.3318 9.9976 19.3318Z" fill="#FFA200"/>
<path d="M10.001 19.2802C10.3618 19.2802 10.6543 18.9877 10.6543 18.6268C10.6543 18.266 10.3618 17.9735 10.001 17.9735C9.64016 17.9735 9.34766 18.266 9.34766 18.6268C9.34766 18.9877 9.64016 19.2802 10.001 19.2802Z" fill="#FFA301"/>
<path d="M9.99698 19.2293C10.3534 19.2293 10.6424 18.9403 10.6424 18.5839C10.6424 18.2274 10.3534 17.9385 9.99698 17.9385C9.64053 17.9385 9.35156 18.2274 9.35156 18.5839C9.35156 18.9403 9.64053 19.2293 9.99698 19.2293Z" fill="#FFA402"/>
<path d="M10.0008 19.1783C10.3529 19.1783 10.6383 18.8929 10.6383 18.5408C10.6383 18.1887 10.3529 17.9033 10.0008 17.9033C9.6487 17.9033 9.36328 18.1887 9.36328 18.5408C9.36328 18.8929 9.6487 19.1783 10.0008 19.1783Z" fill="#FFA503"/>
<path d="M9.99635 19.1271C10.3438 19.1271 10.6255 18.8454 10.6255 18.4979C10.6255 18.1505 10.3438 17.8688 9.99635 17.8688C9.64887 17.8688 9.36719 18.1505 9.36719 18.4979C9.36719 18.8454 9.64887 19.1271 9.99635 19.1271Z" fill="#FFA604"/>
<path d="M9.99625 19.0764C10.3394 19.0764 10.6175 18.7982 10.6175 18.4551C10.6175 18.112 10.3394 17.8339 9.99625 17.8339C9.65314 17.8339 9.375 18.112 9.375 18.4551C9.375 18.7982 9.65314 19.0764 9.99625 19.0764Z" fill="#FFA705"/>
<path d="M9.99615 19.025C10.3349 19.025 10.6095 18.7504 10.6095 18.4117C10.6095 18.0729 10.3349 17.7983 9.99615 17.7983C9.65741 17.7983 9.38281 18.0729 9.38281 18.4117C9.38281 18.7504 9.65741 19.025 9.99615 19.025Z" fill="#FFA805"/>
<path d="M9.99563 18.9738C10.3298 18.9738 10.6006 18.7029 10.6006 18.3688C10.6006 18.0347 10.3298 17.7638 9.99563 17.7638C9.66149 17.7638 9.39062 18.0347 9.39062 18.3688C9.39062 18.7029 9.66149 18.9738 9.99563 18.9738Z" fill="#FFA906"/>
<path d="M9.99943 18.9229C10.3292 18.9229 10.5965 18.6556 10.5965 18.3258C10.5965 17.9961 10.3292 17.7288 9.99943 17.7288C9.66967 17.7288 9.40234 17.9961 9.40234 18.3258C9.40234 18.6556 9.66967 18.9229 9.99943 18.9229Z" fill="#FFAA07"/>
<path d="M9.99542 18.8722C10.3208 18.8722 10.5846 18.6084 10.5846 18.283C10.5846 17.9576 10.3208 17.6938 9.99542 17.6938C9.67003 17.6938 9.40625 17.9576 9.40625 18.283C9.40625 18.6084 9.67003 18.8722 9.99542 18.8722Z" fill="#FFAB08"/>
<path d="M9.9988 18.8208C10.3196 18.8208 10.5796 18.5608 10.5796 18.24C10.5796 17.9192 10.3196 17.6592 9.9988 17.6592C9.67802 17.6592 9.41797 17.9192 9.41797 18.24C9.41797 18.5608 9.67802 18.8208 9.9988 18.8208Z" fill="#FFAC09"/>
<path d="M9.9987 18.77C10.3151 18.77 10.5716 18.5135 10.5716 18.1971C10.5716 17.8806 10.3151 17.6241 9.9987 17.6241C9.68229 17.6241 9.42578 17.8806 9.42578 18.1971C9.42578 18.5135 9.68229 18.77 9.9987 18.77Z" fill="#FFAD0A"/>
<path d="M9.99818 18.7184C10.31 18.7184 10.5628 18.4656 10.5628 18.1538C10.5628 17.842 10.31 17.5892 9.99818 17.5892C9.68637 17.5892 9.43359 17.842 9.43359 18.1538C9.43359 18.4656 9.68637 18.7184 9.99818 18.7184Z" fill="#FFAE0B"/>
<path d="M9.99417 18.6675C10.3016 18.6675 10.5508 18.4183 10.5508 18.1109C10.5508 17.8034 10.3016 17.5542 9.99417 17.5542C9.68673 17.5542 9.4375 17.8034 9.4375 18.1109C9.4375 18.4183 9.68673 18.6675 9.99417 18.6675Z" fill="#FFAF0C"/>
<path d="M9.99797 18.6167C10.301 18.6167 10.5467 18.371 10.5467 18.068C10.5467 17.7649 10.301 17.5192 9.99797 17.5192C9.6949 17.5192 9.44922 17.7649 9.44922 18.068C9.44922 18.371 9.6949 18.6167 9.99797 18.6167Z" fill="#FFB00D"/>
<path d="M9.99745 18.5655C10.2959 18.5655 10.5379 18.3235 10.5379 18.025C10.5379 17.7266 10.2959 17.4846 9.99745 17.4846C9.69898 17.4846 9.45703 17.7266 9.45703 18.025C9.45703 18.3235 9.69898 18.5655 9.99745 18.5655Z" fill="#FFB10E"/>
<path d="M9.99734 18.5147C10.2914 18.5147 10.5298 18.2763 10.5298 17.9822C10.5298 17.6881 10.2914 17.4497 9.99734 17.4497C9.70325 17.4497 9.46484 17.6881 9.46484 17.9822C9.46484 18.2763 9.70325 18.5147 9.99734 18.5147Z" fill="#FFB20F"/>
<path d="M9.99724 18.4638C10.287 18.4638 10.5218 18.229 10.5218 17.9393C10.5218 17.6495 10.287 17.4147 9.99724 17.4147C9.70752 17.4147 9.47266 17.6495 9.47266 17.9393C9.47266 18.229 9.70752 18.4638 9.99724 18.4638Z" fill="#FFB310"/>
<path d="M10.0006 18.4123C10.2857 18.4123 10.5169 18.1811 10.5169 17.896C10.5169 17.6109 10.2857 17.3798 10.0006 17.3798C9.71551 17.3798 9.48438 17.6109 9.48438 17.896C9.48438 18.1811 9.71551 18.4123 10.0006 18.4123Z" fill="#FFB410"/>
<path d="M10.0005 18.3614C10.2813 18.3614 10.5089 18.1338 10.5089 17.8531C10.5089 17.5723 10.2813 17.3447 10.0005 17.3447C9.71978 17.3447 9.49219 17.5723 9.49219 17.8531C9.49219 18.1338 9.71978 18.3614 10.0005 18.3614Z" fill="#FFB511"/>
<path d="M9.99609 18.3101C10.2722 18.3101 10.4961 18.0862 10.4961 17.8101C10.4961 17.5339 10.2722 17.3101 9.99609 17.3101C9.71995 17.3101 9.49609 17.5339 9.49609 17.8101C9.49609 18.0862 9.71995 18.3101 9.99609 18.3101Z" fill="#FFB612"/>
<path d="M9.99599 18.2593C10.2678 18.2593 10.4881 18.039 10.4881 17.7672C10.4881 17.4955 10.2678 17.2751 9.99599 17.2751C9.72422 17.2751 9.50391 17.4955 9.50391 17.7672C9.50391 18.039 9.72422 18.2593 9.99599 18.2593Z" fill="#FFB713"/>
<path d="M9.99588 18.2084C10.2633 18.2084 10.4801 17.9917 10.4801 17.7243C10.4801 17.4569 10.2633 17.2401 9.99588 17.2401C9.72849 17.2401 9.51172 17.4569 9.51172 17.7243C9.51172 17.9917 9.72849 18.2084 9.99588 18.2084Z" fill="#FFB814"/>
<path d="M9.99536 18.1567C10.2582 18.1567 10.4712 17.9437 10.4712 17.6809C10.4712 17.4181 10.2582 17.2051 9.99536 17.2051C9.73257 17.2051 9.51953 17.4181 9.51953 17.6809C9.51953 17.9437 9.73257 18.1567 9.99536 18.1567Z" fill="#FFB915"/>
<path d="M9.99917 18.106C10.2576 18.106 10.4671 17.8965 10.4671 17.6381C10.4671 17.3797 10.2576 17.1702 9.99917 17.1702C9.74074 17.1702 9.53125 17.3797 9.53125 17.6381C9.53125 17.8965 9.74074 18.106 9.99917 18.106Z" fill="#FFBA16"/>
<path d="M9.99906 18.0551C10.2531 18.0551 10.4591 17.8492 10.4591 17.5951C10.4591 17.3411 10.2531 17.1351 9.99906 17.1351C9.74501 17.1351 9.53906 17.3411 9.53906 17.5951C9.53906 17.8492 9.74501 18.0551 9.99906 18.0551Z" fill="#FFBB17"/>
<path d="M10.0024 18.0039C10.2519 18.0039 10.4541 17.8017 10.4541 17.5523C10.4541 17.3028 10.2519 17.1006 10.0024 17.1006C9.753 17.1006 9.55078 17.3028 9.55078 17.5523C9.55078 17.8017 9.753 18.0039 10.0024 18.0039Z" fill="#FFBC18"/>
<path d="M9.99844 17.9529C10.2435 17.9529 10.4422 17.7543 10.4422 17.5092C10.4422 17.2641 10.2435 17.0654 9.99844 17.0654C9.75336 17.0654 9.55469 17.2641 9.55469 17.5092C9.55469 17.7543 9.75336 17.9529 9.99844 17.9529Z" fill="#FFBD19"/>
<path d="M9.99443 17.9021C10.2351 17.9021 10.4303 17.7069 10.4303 17.4662C10.4303 17.2255 10.2351 17.0304 9.99443 17.0304C9.75372 17.0304 9.55859 17.2255 9.55859 17.4662C9.55859 17.7069 9.75372 17.9021 9.99443 17.9021Z" fill="#FFBE1A"/>
<path d="M9.99781 17.8505C10.2339 17.8505 10.4253 17.6591 10.4253 17.423C10.4253 17.1869 10.2339 16.9955 9.99781 16.9955C9.76171 16.9955 9.57031 17.1869 9.57031 17.423C9.57031 17.6591 9.76171 17.8505 9.99781 17.8505Z" fill="#FFC01A"/>
<path d="M9.99771 17.7996C10.2294 17.7996 10.4173 17.6118 10.4173 17.38C10.4173 17.1483 10.2294 16.9604 9.99771 16.9604C9.76598 16.9604 9.57812 17.1483 9.57812 17.38C9.57812 17.6118 9.76598 17.7996 9.99771 17.7996Z" fill="#FFC11B"/>
<path d="M9.99719 17.7484C10.2243 17.7484 10.4084 17.5643 10.4084 17.3372C10.4084 17.11 10.2243 16.9259 9.99719 16.9259C9.77006 16.9259 9.58594 17.11 9.58594 17.3372C9.58594 17.5643 9.77006 17.7484 9.99719 17.7484Z" fill="#FFC21C"/>
<path d="M9.99708 17.6975C10.2198 17.6975 10.4004 17.517 10.4004 17.2942C10.4004 17.0714 10.2198 16.8909 9.99708 16.8909C9.77433 16.8909 9.59375 17.0714 9.59375 17.2942C9.59375 17.517 9.77433 17.6975 9.99708 17.6975Z" fill="#FFC31D"/>
<path d="M10.0009 17.6468C10.2193 17.6468 10.3963 17.4698 10.3963 17.2514C10.3963 17.033 10.2193 16.856 10.0009 16.856C9.7825 16.856 9.60547 17.033 9.60547 17.2514C9.60547 17.4698 9.7825 17.6468 10.0009 17.6468Z" fill="#FFC41E"/>
<path d="M9.99646 17.5951C10.2102 17.5951 10.3835 17.4218 10.3835 17.208C10.3835 16.9942 10.2102 16.8209 9.99646 16.8209C9.78268 16.8209 9.60938 16.9942 9.60938 17.208C9.60938 17.4218 9.78268 17.5951 9.99646 17.5951Z" fill="#FFC51F"/>
<path d="M9.99635 17.5443C10.2058 17.5443 10.3755 17.3746 10.3755 17.1652C10.3755 16.9558 10.2058 16.786 9.99635 16.786C9.78695 16.786 9.61719 16.9558 9.61719 17.1652C9.61719 17.3746 9.78695 17.5443 9.99635 17.5443Z" fill="#FFC620"/>
<path d="M9.99625 17.4935C10.2013 17.4935 10.3675 17.3273 10.3675 17.1222C10.3675 16.9172 10.2013 16.751 9.99625 16.751C9.79121 16.751 9.625 16.9172 9.625 17.1222C9.625 17.3273 9.79121 17.4935 9.99625 17.4935Z" fill="#FFC721"/>
<path d="M9.99573 17.4421C10.1962 17.4421 10.3586 17.2797 10.3586 17.0792C10.3586 16.8788 10.1962 16.7163 9.99573 16.7163C9.7953 16.7163 9.63281 16.8788 9.63281 17.0792C9.63281 17.2797 9.7953 17.4421 9.99573 17.4421Z" fill="#FFC822"/>
<path d="M9.99563 17.3913C10.1917 17.3913 10.3506 17.2323 10.3506 17.0363C10.3506 16.8402 10.1917 16.6813 9.99563 16.6813C9.79956 16.6813 9.64062 16.8402 9.64062 17.0363C9.64062 17.2323 9.79956 17.3913 9.99563 17.3913Z" fill="#FFC923"/>
<path d="M9.99943 17.3405C10.1911 17.3405 10.3465 17.1851 10.3465 16.9934C10.3465 16.8018 10.1911 16.6464 9.99943 16.6464C9.80774 16.6464 9.65234 16.8018 9.65234 16.9934C9.65234 17.1851 9.80774 17.3405 9.99943 17.3405Z" fill="#FFCA24"/>
<path d="M9.99891 17.2888C10.186 17.2888 10.3377 17.1372 10.3377 16.9501C10.3377 16.763 10.186 16.6113 9.99891 16.6113C9.81182 16.6113 9.66016 16.763 9.66016 16.9501C9.66016 17.1372 9.81182 17.2888 9.99891 17.2888Z" fill="#FFCB24"/>
<path d="M9.9988 17.2381C10.1815 17.2381 10.3296 17.09 10.3296 16.9072C10.3296 16.7245 10.1815 16.5764 9.9988 16.5764C9.81609 16.5764 9.66797 16.7245 9.66797 16.9072C9.66797 17.09 9.81609 17.2381 9.9988 17.2381Z" fill="#FFCC25"/>
<path d="M9.99828 17.1869C10.1764 17.1869 10.3208 17.0425 10.3208 16.8644C10.3208 16.6863 10.1764 16.5419 9.99828 16.5419C9.82017 16.5419 9.67578 16.6863 9.67578 16.8644C9.67578 17.0425 9.82017 17.1869 9.99828 17.1869Z" fill="#FFCD26"/>
<path d="M9.99818 17.136C10.1719 17.136 10.3128 16.9952 10.3128 16.8214C10.3128 16.6477 10.1719 16.5068 9.99818 16.5068C9.82444 16.5068 9.68359 16.6477 9.68359 16.8214C9.68359 16.9952 9.82444 17.136 9.99818 17.136Z" fill="#FFCE27"/>
<path d="M9.99807 17.085C10.1674 17.085 10.3047 16.9477 10.3047 16.7783C10.3047 16.609 10.1674 16.4717 9.99807 16.4717C9.82871 16.4717 9.69141 16.609 9.69141 16.7783C9.69141 16.9477 9.82871 17.085 9.99807 17.085Z" fill="#FFCF28"/>
<path d="M9.99365 17.0333C10.1584 17.0333 10.292 16.8997 10.292 16.735C10.292 16.5702 10.1584 16.4366 9.99365 16.4366C9.82888 16.4366 9.69531 16.5702 9.69531 16.735C9.69531 16.8997 9.82888 17.0333 9.99365 17.0333Z" fill="#FFD029"/>
<path d="M9.99745 16.9826C10.1578 16.9826 10.2879 16.8525 10.2879 16.6921C10.2879 16.5318 10.1578 16.4017 9.99745 16.4017C9.83706 16.4017 9.70703 16.5318 9.70703 16.6921C9.70703 16.8525 9.83706 16.9826 9.99745 16.9826Z" fill="#FFD12A"/>
<path d="M9.99734 16.9317C10.1534 16.9317 10.2798 16.8052 10.2798 16.6492C10.2798 16.4932 10.1534 16.3667 9.99734 16.3667C9.84132 16.3667 9.71484 16.4932 9.71484 16.6492C9.71484 16.8052 9.84132 16.9317 9.99734 16.9317Z" fill="#FFD22B"/>
<path d="M9.99682 16.8806C10.1482 16.8806 10.271 16.7579 10.271 16.6064C10.271 16.455 10.1482 16.3323 9.99682 16.3323C9.84541 16.3323 9.72266 16.455 9.72266 16.6064C9.72266 16.7579 9.84541 16.8806 9.99682 16.8806Z" fill="#FFD32C"/>
<path d="M9.99672 16.8296C10.1438 16.8296 10.263 16.7104 10.263 16.5634C10.263 16.4163 10.1438 16.2971 9.99672 16.2971C9.84967 16.2971 9.73047 16.4163 9.73047 16.5634C9.73047 16.7104 9.84967 16.8296 9.99672 16.8296Z" fill="#FFD42D"/>
<path d="M10.0001 16.7784C10.1425 16.7784 10.258 16.6629 10.258 16.5205C10.258 16.378 10.1425 16.2626 10.0001 16.2626C9.85766 16.2626 9.74219 16.378 9.74219 16.5205C9.74219 16.6629 9.85766 16.7784 10.0001 16.7784Z" fill="#FFD52E"/>
<path d="M9.99609 16.7272C10.1342 16.7272 10.2461 16.6152 10.2461 16.4772C10.2461 16.3391 10.1342 16.2272 9.99609 16.2272C9.85802 16.2272 9.74609 16.3391 9.74609 16.4772C9.74609 16.6152 9.85802 16.7272 9.99609 16.7272Z" fill="#FFD62F"/>
<path d="M9.99599 16.6763C10.1297 16.6763 10.2381 16.5679 10.2381 16.4342C10.2381 16.3005 10.1297 16.1921 9.99599 16.1921C9.86229 16.1921 9.75391 16.3005 9.75391 16.4342C9.75391 16.5679 9.86229 16.6763 9.99599 16.6763Z" fill="#FFD72F"/>
<path d="M9.99547 16.625C10.1246 16.625 10.2292 16.5204 10.2292 16.3913C10.2292 16.2622 10.1246 16.1575 9.99547 16.1575C9.86637 16.1575 9.76172 16.2622 9.76172 16.3913C9.76172 16.5204 9.86637 16.625 9.99547 16.625Z" fill="#FFD830"/>
<path d="M9.99927 16.5742C10.124 16.5742 10.2251 16.4731 10.2251 16.3484C10.2251 16.2237 10.124 16.1226 9.99927 16.1226C9.87455 16.1226 9.77344 16.2237 9.77344 16.3484C9.77344 16.4731 9.87455 16.5742 9.99927 16.5742Z" fill="#FFD931"/>
<path d="M9.99526 16.5234C10.1156 16.5234 10.2132 16.4258 10.2132 16.3054C10.2132 16.1851 10.1156 16.0875 9.99526 16.0875C9.87491 16.0875 9.77734 16.1851 9.77734 16.3054C9.77734 16.4258 9.87491 16.5234 9.99526 16.5234Z" fill="#FFDA32"/>
<path d="M9.99865 16.4721C10.1144 16.4721 10.2082 16.3783 10.2082 16.2626C10.2082 16.1468 10.1144 16.053 9.99865 16.053C9.8829 16.053 9.78906 16.1468 9.78906 16.2626C9.78906 16.3783 9.8829 16.4721 9.99865 16.4721Z" fill="#FFDB33"/>
<path d="M9.99854 16.4209C10.1099 16.4209 10.2002 16.3306 10.2002 16.2192C10.2002 16.1079 10.1099 16.0176 9.99854 16.0176C9.88716 16.0176 9.79688 16.1079 9.79688 16.2192C9.79688 16.3306 9.88716 16.4209 9.99854 16.4209Z" fill="#FFDC34"/>
<path d="M2.22026 13.9152C2.58569 13.9152 2.88193 13.619 2.88193 13.2535C2.88193 12.8881 2.58569 12.5919 2.22026 12.5919C1.85483 12.5919 1.55859 12.8881 1.55859 13.2535C1.55859 13.619 1.85483 13.9152 2.22026 13.9152Z" fill="#FFA200"/>
<path d="M2.26146 13.8892C2.62159 13.8892 2.91354 13.5973 2.91354 13.2372C2.91354 12.877 2.62159 12.5851 2.26146 12.5851C1.90132 12.5851 1.60938 12.877 1.60938 13.2372C1.60938 13.5973 1.90132 13.8892 2.26146 13.8892Z" fill="#FFA301"/>
<path d="M2.29917 13.8644C2.65424 13.8644 2.94208 13.5765 2.94208 13.2215C2.94208 12.8664 2.65424 12.5786 2.29917 12.5786C1.94409 12.5786 1.65625 12.8664 1.65625 13.2215C1.65625 13.5765 1.94409 13.8644 2.29917 13.8644Z" fill="#FFA402"/>
<path d="M2.34818 13.8384C2.69796 13.8384 2.98151 13.5549 2.98151 13.2051C2.98151 12.8553 2.69796 12.5718 2.34818 12.5718C1.9984 12.5718 1.71484 12.8553 1.71484 13.2051C1.71484 13.5549 1.9984 13.8384 2.34818 13.8384Z" fill="#FFA603"/>
<path d="M2.38979 13.8136C2.73451 13.8136 3.01396 13.5341 3.01396 13.1894C3.01396 12.8447 2.73451 12.5652 2.38979 12.5652C2.04507 12.5652 1.76562 12.8447 1.76562 13.1894C1.76562 13.5341 2.04507 13.8136 2.38979 13.8136Z" fill="#FFA704"/>
<path d="M2.42708 13.7881C2.76651 13.7881 3.04167 13.5129 3.04167 13.1735C3.04167 12.8341 2.76651 12.5589 2.42708 12.5589C2.08766 12.5589 1.8125 12.8341 1.8125 13.1735C1.8125 13.5129 2.08766 13.7881 2.42708 13.7881Z" fill="#FFA805"/>
<path d="M2.4687 13.7627C2.80306 13.7627 3.07411 13.4916 3.07411 13.1572C3.07411 12.8229 2.80306 12.5518 2.4687 12.5518C2.13434 12.5518 1.86328 12.8229 1.86328 13.1572C1.86328 13.4916 2.13434 13.7627 2.4687 13.7627Z" fill="#FFA906"/>
<path d="M2.5099 13.7373C2.83897 13.7373 3.10573 13.4705 3.10573 13.1414C3.10573 12.8124 2.83897 12.5456 2.5099 12.5456C2.18083 12.5456 1.91406 12.8124 1.91406 13.1414C1.91406 13.4705 2.18083 13.7373 2.5099 13.7373Z" fill="#FFAA07"/>
<path d="M2.55151 13.7117C2.87552 13.7117 3.13818 13.4491 3.13818 13.1251C3.13818 12.8011 2.87552 12.5384 2.55151 12.5384C2.2275 12.5384 1.96484 12.8011 1.96484 13.1251C1.96484 13.4491 2.2275 13.7117 2.55151 13.7117Z" fill="#FFAB08"/>
<path d="M2.59661 13.6865C2.91533 13.6865 3.1737 13.4281 3.1737 13.1094C3.1737 12.7907 2.91533 12.5323 2.59661 12.5323C2.2779 12.5323 2.01953 12.7907 2.01953 13.1094C2.01953 13.4281 2.2779 13.6865 2.59661 13.6865Z" fill="#FFAD0A"/>
<path d="M2.63432 13.6613C2.94797 13.6613 3.20224 13.4071 3.20224 13.0934C3.20224 12.7798 2.94797 12.5255 2.63432 12.5255C2.32067 12.5255 2.06641 12.7798 2.06641 13.0934C2.06641 13.4071 2.32067 13.6613 2.63432 13.6613Z" fill="#FFAE0B"/>
<path d="M2.67552 13.6355C2.98388 13.6355 3.23385 13.3856 3.23385 13.0772C3.23385 12.7688 2.98388 12.5189 2.67552 12.5189C2.36716 12.5189 2.11719 12.7688 2.11719 13.0772C2.11719 13.3856 2.36716 13.6355 2.67552 13.6355Z" fill="#FFAF0C"/>
<path d="M2.71672 13.6101C3.01979 13.6101 3.26547 13.3644 3.26547 13.0614C3.26547 12.7583 3.01979 12.5126 2.71672 12.5126C2.41365 12.5126 2.16797 12.7583 2.16797 13.0614C2.16797 13.3644 2.41365 13.6101 2.71672 13.6101Z" fill="#FFB00D"/>
<path d="M2.75833 13.5847C3.05634 13.5847 3.29792 13.3431 3.29792 13.0451C3.29792 12.7471 3.05634 12.5056 2.75833 12.5056C2.46033 12.5056 2.21875 12.7471 2.21875 13.0451C2.21875 13.3431 2.46033 13.5847 2.75833 13.5847Z" fill="#FFB10E"/>
<path d="M2.80344 13.5592C3.09615 13.5592 3.33344 13.3219 3.33344 13.0292C3.33344 12.7365 3.09615 12.4992 2.80344 12.4992C2.51073 12.4992 2.27344 12.7365 2.27344 13.0292C2.27344 13.3219 2.51073 13.5592 2.80344 13.5592Z" fill="#FFB30F"/>
<path d="M2.84505 13.5343C3.1327 13.5343 3.36589 13.3012 3.36589 13.0135C3.36589 12.7259 3.1327 12.4927 2.84505 12.4927C2.5574 12.4927 2.32422 12.7259 2.32422 13.0135C2.32422 13.3012 2.5574 13.5343 2.84505 13.5343Z" fill="#FFB410"/>
<path d="M2.88234 13.5084C3.1647 13.5084 3.39359 13.2795 3.39359 12.9972C3.39359 12.7148 3.1647 12.4859 2.88234 12.4859C2.59999 12.4859 2.37109 12.7148 2.37109 12.9972C2.37109 13.2795 2.59999 13.5084 2.88234 13.5084Z" fill="#FFB511"/>
<path d="M2.92786 13.4835C3.20516 13.4835 3.42995 13.2587 3.42995 12.9815C3.42995 12.7042 3.20516 12.4794 2.92786 12.4794C2.65057 12.4794 2.42578 12.7042 2.42578 12.9815C2.42578 13.2587 2.65057 13.4835 2.92786 13.4835Z" fill="#FFB612"/>
<path d="M2.96516 13.4576C3.23716 13.4576 3.45766 13.2371 3.45766 12.9651C3.45766 12.6931 3.23716 12.4726 2.96516 12.4726C2.69316 12.4726 2.47266 12.6931 2.47266 12.9651C2.47266 13.2371 2.69316 13.4576 2.96516 13.4576Z" fill="#FFB713"/>
<path d="M3.01068 13.4326C3.27761 13.4326 3.49401 13.2162 3.49401 12.9493C3.49401 12.6823 3.27761 12.4659 3.01068 12.4659C2.74374 12.4659 2.52734 12.6823 2.52734 12.9493C2.52734 13.2162 2.74374 13.4326 3.01068 13.4326Z" fill="#FFB814"/>
<path d="M3.05187 13.4072C3.31352 13.4072 3.52562 13.1951 3.52562 12.9335C3.52562 12.6718 3.31352 12.4597 3.05187 12.4597C2.79023 12.4597 2.57812 12.6718 2.57812 12.9335C2.57812 13.1951 2.79023 13.4072 3.05187 13.4072Z" fill="#FFBA15"/>
<path d="M3.08958 13.3818C3.34617 13.3818 3.55417 13.1738 3.55417 12.9172C3.55417 12.6606 3.34617 12.4526 3.08958 12.4526C2.833 12.4526 2.625 12.6606 2.625 12.9172C2.625 13.1738 2.833 13.3818 3.08958 13.3818Z" fill="#FFBB16"/>
<path d="M3.13469 13.3563C3.38598 13.3563 3.58969 13.1526 3.58969 12.9013C3.58969 12.65 3.38598 12.4463 3.13469 12.4463C2.8834 12.4463 2.67969 12.65 2.67969 12.9013C2.67969 13.1526 2.8834 13.3563 3.13469 13.3563Z" fill="#FFBC17"/>
<path d="M3.1763 13.3314C3.42253 13.3314 3.62214 13.1318 3.62214 12.8856C3.62214 12.6394 3.42253 12.4398 3.1763 12.4398C2.93008 12.4398 2.73047 12.6394 2.73047 12.8856C2.73047 13.1318 2.93008 13.3314 3.1763 13.3314Z" fill="#FFBD18"/>
<path d="M3.21359 13.3055C3.45453 13.3055 3.64984 13.1102 3.64984 12.8692C3.64984 12.6283 3.45453 12.433 3.21359 12.433C2.97266 12.433 2.77734 12.6283 2.77734 12.8692C2.77734 13.1102 2.97266 13.3055 3.21359 13.3055Z" fill="#FFBE19"/>
<path d="M3.25911 13.2806C3.49499 13.2806 3.6862 13.0894 3.6862 12.8535C3.6862 12.6177 3.49499 12.4265 3.25911 12.4265C3.02324 12.4265 2.83203 12.6177 2.83203 12.8535C2.83203 13.0894 3.02324 13.2806 3.25911 13.2806Z" fill="#FFC01B"/>
<path d="M3.30031 13.2547C3.53089 13.2547 3.71781 13.0678 3.71781 12.8372C3.71781 12.6066 3.53089 12.4197 3.30031 12.4197C3.06973 12.4197 2.88281 12.6066 2.88281 12.8372C2.88281 13.0678 3.06973 13.2547 3.30031 13.2547Z" fill="#FFC11C"/>
<path d="M3.34193 13.2298C3.56744 13.2298 3.75026 13.047 3.75026 12.8215C3.75026 12.596 3.56744 12.4131 3.34193 12.4131C3.11641 12.4131 2.93359 12.596 2.93359 12.8215C2.93359 13.047 3.11641 13.2298 3.34193 13.2298Z" fill="#FFC21D"/>
<path d="M3.38312 13.2043C3.60335 13.2043 3.78187 13.0258 3.78187 12.8055C3.78187 12.5853 3.60335 12.4068 3.38312 12.4068C3.1629 12.4068 2.98438 12.5853 2.98438 12.8055C2.98438 13.0258 3.1629 13.2043 3.38312 13.2043Z" fill="#FFC31E"/>
<path d="M3.42042 13.1784C3.63535 13.1784 3.80958 13.0042 3.80958 12.7893C3.80958 12.5743 3.63535 12.4001 3.42042 12.4001C3.20549 12.4001 3.03125 12.5743 3.03125 12.7893C3.03125 13.0042 3.20549 13.1784 3.42042 13.1784Z" fill="#FFC41F"/>
<path d="M3.46594 13.1535C3.67581 13.1535 3.84594 12.9834 3.84594 12.7735C3.84594 12.5636 3.67581 12.3935 3.46594 12.3935C3.25607 12.3935 3.08594 12.5636 3.08594 12.7735C3.08594 12.9834 3.25607 13.1535 3.46594 13.1535Z" fill="#FFC620"/>
<path d="M3.50714 13.1276C3.71171 13.1276 3.87755 12.9618 3.87755 12.7572C3.87755 12.5526 3.71171 12.3868 3.50714 12.3868C3.30256 12.3868 3.13672 12.5526 3.13672 12.7572C3.13672 12.9618 3.30256 13.1276 3.50714 13.1276Z" fill="#FFC721"/>
<path d="M3.54875 13.1026C3.74826 13.1026 3.91 12.9409 3.91 12.7414C3.91 12.5419 3.74826 12.3801 3.54875 12.3801C3.34924 12.3801 3.1875 12.5419 3.1875 12.7414C3.1875 12.9409 3.34924 13.1026 3.54875 13.1026Z" fill="#FFC822"/>
<path d="M3.58995 13.0772C3.78417 13.0772 3.94161 12.9198 3.94161 12.7256C3.94161 12.5313 3.78417 12.3739 3.58995 12.3739C3.39573 12.3739 3.23828 12.5313 3.23828 12.7256C3.23828 12.9198 3.39573 13.0772 3.58995 13.0772Z" fill="#FFC923"/>
<path d="M3.62766 13.0518C3.81681 13.0518 3.97016 12.8985 3.97016 12.7093C3.97016 12.5202 3.81681 12.3668 3.62766 12.3668C3.4385 12.3668 3.28516 12.5202 3.28516 12.7093C3.28516 12.8985 3.4385 13.0518 3.62766 13.0518Z" fill="#FFCA24"/>
<path d="M3.67276 13.0264C3.85663 13.0264 4.00568 12.8774 4.00568 12.6935C4.00568 12.5096 3.85663 12.3606 3.67276 12.3606C3.4889 12.3606 3.33984 12.5096 3.33984 12.6935C3.33984 12.8774 3.4889 13.0264 3.67276 13.0264Z" fill="#FFCB25"/>
<path d="M3.71438 13.001C3.89318 13.001 4.03813 12.8561 4.03813 12.6773C4.03813 12.4985 3.89318 12.3535 3.71438 12.3535C3.53557 12.3535 3.39062 12.4985 3.39062 12.6773C3.39062 12.8561 3.53557 13.001 3.71438 13.001Z" fill="#FFCD26"/>
<path d="M3.75557 12.9755C3.92908 12.9755 4.06974 12.8348 4.06974 12.6613C4.06974 12.4878 3.92908 12.3472 3.75557 12.3472C3.58206 12.3472 3.44141 12.4878 3.44141 12.6613C3.44141 12.8348 3.58206 12.9755 3.75557 12.9755Z" fill="#FFCE27"/>
<path d="M3.79719 12.9506C3.96563 12.9506 4.10219 12.8141 4.10219 12.6456C4.10219 12.4772 3.96563 12.3406 3.79719 12.3406C3.62874 12.3406 3.49219 12.4772 3.49219 12.6456C3.49219 12.8141 3.62874 12.9506 3.79719 12.9506Z" fill="#FFCF28"/>
<path d="M3.83839 12.9247C4.00154 12.9247 4.1338 12.7924 4.1338 12.6293C4.1338 12.4661 4.00154 12.3339 3.83839 12.3339C3.67523 12.3339 3.54297 12.4661 3.54297 12.6293C3.54297 12.7924 3.67523 12.9247 3.83839 12.9247Z" fill="#FFD029"/>
<path d="M3.87609 12.8997C4.03419 12.8997 4.16234 12.7716 4.16234 12.6135C4.16234 12.4554 4.03419 12.3272 3.87609 12.3272C3.718 12.3272 3.58984 12.4554 3.58984 12.6135C3.58984 12.7716 3.718 12.8997 3.87609 12.8997Z" fill="#FFD12A"/>
<path d="M3.9251 12.8739C4.0779 12.8739 4.20177 12.75 4.20177 12.5972C4.20177 12.4444 4.0779 12.3206 3.9251 12.3206C3.77231 12.3206 3.64844 12.4444 3.64844 12.5972C3.64844 12.75 3.77231 12.8739 3.9251 12.8739Z" fill="#FFD32C"/>
<path d="M3.96672 12.8489C4.11446 12.8489 4.23422 12.7291 4.23422 12.5814C4.23422 12.4337 4.11446 12.3139 3.96672 12.3139C3.81898 12.3139 3.69922 12.4337 3.69922 12.5814C3.69922 12.7291 3.81898 12.8489 3.96672 12.8489Z" fill="#FFD42D"/>
<path d="M4.00401 12.8235C4.14645 12.8235 4.26193 12.708 4.26193 12.5656C4.26193 12.4232 4.14645 12.3077 4.00401 12.3077C3.86157 12.3077 3.74609 12.4232 3.74609 12.5656C3.74609 12.708 3.86157 12.8235 4.00401 12.8235Z" fill="#FFD52E"/>
<path d="M4.04563 12.7981C4.18301 12.7981 4.29438 12.6867 4.29438 12.5493C4.29438 12.412 4.18301 12.3006 4.04563 12.3006C3.90824 12.3006 3.79688 12.412 3.79688 12.5493C3.79688 12.6867 3.90824 12.7981 4.04563 12.7981Z" fill="#FFD62F"/>
<path d="M4.08292 12.7726C4.21501 12.7726 4.32208 12.6655 4.32208 12.5334C4.32208 12.4013 4.21501 12.2943 4.08292 12.2943C3.95083 12.2943 3.84375 12.4013 3.84375 12.5334C3.84375 12.6655 3.95083 12.7726 4.08292 12.7726Z" fill="#FFD730"/>
<path d="M4.13234 12.7472C4.25937 12.7472 4.36234 12.6442 4.36234 12.5172C4.36234 12.3901 4.25937 12.2872 4.13234 12.2872C4.00532 12.2872 3.90234 12.3901 3.90234 12.5172C3.90234 12.6442 4.00532 12.7472 4.13234 12.7472Z" fill="#FFD831"/>
<path d="M4.17354 12.7218C4.29527 12.7218 4.39396 12.6231 4.39396 12.5014C4.39396 12.3796 4.29527 12.2809 4.17354 12.2809C4.05181 12.2809 3.95312 12.3796 3.95312 12.5014C3.95312 12.6231 4.05181 12.7218 4.17354 12.7218Z" fill="#FFDA32"/>
<path d="M4.21474 12.6964C4.33118 12.6964 4.42557 12.602 4.42557 12.4856C4.42557 12.3691 4.33118 12.2747 4.21474 12.2747C4.0983 12.2747 4.00391 12.3691 4.00391 12.4856C4.00391 12.602 4.0983 12.6964 4.21474 12.6964Z" fill="#FFDB33"/>
<path d="M4.25245 12.671C4.36383 12.671 4.45411 12.5807 4.45411 12.4693C4.45411 12.3579 4.36383 12.2676 4.25245 12.2676C4.14107 12.2676 4.05078 12.3579 4.05078 12.4693C4.05078 12.5807 4.14107 12.671 4.25245 12.671Z" fill="#FFDC34"/>
<path d="M3.88432 3.91519C4.24975 3.91519 4.54599 3.61895 4.54599 3.25352C4.54599 2.8881 4.24975 2.59186 3.88432 2.59186C3.51889 2.59186 3.22266 2.8881 3.22266 3.25352C3.22266 3.61895 3.51889 3.91519 3.88432 3.91519Z" fill="#FFA200"/>
<path d="M3.92161 3.94058C4.28175 3.94058 4.5737 3.64863 4.5737 3.2885C4.5737 2.92836 4.28175 2.63641 3.92161 2.63641C3.56148 2.63641 3.26953 2.92836 3.26953 3.2885C3.26953 3.64863 3.56148 3.94058 3.92161 3.94058Z" fill="#FFA301"/>
<path d="M3.96323 3.96644C4.3183 3.96644 4.60615 3.67859 4.60615 3.32352C4.60615 2.96845 4.3183 2.6806 3.96323 2.6806C3.60816 2.6806 3.32031 2.96845 3.32031 3.32352C3.32031 3.67859 3.60816 3.96644 3.96323 3.96644Z" fill="#FFA402"/>
<path d="M4.01224 3.99189C4.36202 3.99189 4.64557 3.70833 4.64557 3.35855C4.64557 3.00877 4.36202 2.72522 4.01224 2.72522C3.66246 2.72522 3.37891 3.00877 3.37891 3.35855C3.37891 3.70833 3.66246 3.99189 4.01224 3.99189Z" fill="#FFA603"/>
<path d="M4.05385 4.01768C4.39857 4.01768 4.67802 3.73823 4.67802 3.39351C4.67802 3.0488 4.39857 2.76935 4.05385 2.76935C3.70914 2.76935 3.42969 3.0488 3.42969 3.39351C3.42969 3.73823 3.70914 4.01768 4.05385 4.01768Z" fill="#FFA704"/>
<path d="M4.09115 4.04307C4.43057 4.04307 4.70573 3.76791 4.70573 3.42849C4.70573 3.08906 4.43057 2.8139 4.09115 2.8139C3.75172 2.8139 3.47656 3.08906 3.47656 3.42849C3.47656 3.76791 3.75172 4.04307 4.09115 4.04307Z" fill="#FFA805"/>
<path d="M4.13276 4.06893C4.46712 4.06893 4.73818 3.79787 4.73818 3.46351C4.73818 3.12915 4.46712 2.85809 4.13276 2.85809C3.7984 2.85809 3.52734 3.12915 3.52734 3.46351C3.52734 3.79787 3.7984 4.06893 4.13276 4.06893Z" fill="#FFA906"/>
<path d="M4.17396 4.09444C4.50303 4.09444 4.76979 3.82767 4.76979 3.4986C4.76979 3.16953 4.50303 2.90277 4.17396 2.90277C3.84489 2.90277 3.57812 3.16953 3.57812 3.4986C3.57812 3.82767 3.84489 4.09444 4.17396 4.09444Z" fill="#FFAA07"/>
<path d="M4.21557 4.12017C4.53958 4.12017 4.80224 3.85751 4.80224 3.5335C4.80224 3.2095 4.53958 2.94684 4.21557 2.94684C3.89157 2.94684 3.62891 3.2095 3.62891 3.5335C3.62891 3.85751 3.89157 4.12017 4.21557 4.12017Z" fill="#FFAB08"/>
<path d="M4.26068 4.14556C4.57939 4.14556 4.83776 3.88719 4.83776 3.56848C4.83776 3.24976 4.57939 2.99139 4.26068 2.99139C3.94196 2.99139 3.68359 3.24976 3.68359 3.56848C3.68359 3.88719 3.94196 4.14556 4.26068 4.14556Z" fill="#FFAD0A"/>
<path d="M4.29839 4.17142C4.61204 4.17142 4.8663 3.91715 4.8663 3.6035C4.8663 3.28985 4.61204 3.03558 4.29839 3.03558C3.98473 3.03558 3.73047 3.28985 3.73047 3.6035C3.73047 3.91715 3.98473 4.17142 4.29839 4.17142Z" fill="#FFAE0B"/>
<path d="M4.33958 4.19681C4.64794 4.19681 4.89792 3.94683 4.89792 3.63847C4.89792 3.33011 4.64794 3.08014 4.33958 3.08014C4.03122 3.08014 3.78125 3.33011 3.78125 3.63847C3.78125 3.94683 4.03122 4.19681 4.33958 4.19681Z" fill="#FFAF0C"/>
<path d="M4.38078 4.22226C4.68385 4.22226 4.92953 3.97657 4.92953 3.67351C4.92953 3.37044 4.68385 3.12476 4.38078 3.12476C4.07772 3.12476 3.83203 3.37044 3.83203 3.67351C3.83203 3.97657 4.07772 4.22226 4.38078 4.22226Z" fill="#FFB00D"/>
<path d="M4.4224 4.24817C4.7204 4.24817 4.96198 4.00659 4.96198 3.70859C4.96198 3.41059 4.7204 3.16901 4.4224 3.16901C4.12439 3.16901 3.88281 3.41059 3.88281 3.70859C3.88281 4.00659 4.12439 4.24817 4.4224 4.24817Z" fill="#FFB10E"/>
<path d="M4.4675 4.2735C4.76021 4.2735 4.9975 4.03621 4.9975 3.7435C4.9975 3.45079 4.76021 3.2135 4.4675 3.2135C4.17479 3.2135 3.9375 3.45079 3.9375 3.7435C3.9375 4.03621 4.17479 4.2735 4.4675 4.2735Z" fill="#FFB30F"/>
<path d="M4.50521 4.2993C4.79286 4.2993 5.02604 4.06611 5.02604 3.77846C5.02604 3.49081 4.79286 3.25763 4.50521 3.25763C4.21756 3.25763 3.98438 3.49081 3.98438 3.77846C3.98438 4.06611 4.21756 4.2993 4.50521 4.2993Z" fill="#FFB410"/>
<path d="M4.54641 4.32481C4.82876 4.32481 5.05766 4.09591 5.05766 3.81356C5.05766 3.5312 4.82876 3.30231 4.54641 3.30231C4.26405 3.30231 4.03516 3.5312 4.03516 3.81356C4.03516 4.09591 4.26405 4.32481 4.54641 4.32481Z" fill="#FFB511"/>
<path d="M4.59193 4.35097C4.86922 4.35097 5.09401 4.12618 5.09401 3.84889C5.09401 3.57159 4.86922 3.3468 4.59193 3.3468C4.31463 3.3468 4.08984 3.57159 4.08984 3.84889C4.08984 4.12618 4.31463 4.35097 4.59193 4.35097Z" fill="#FFB612"/>
<path d="M4.63313 4.37648C4.90513 4.37648 5.12563 4.15598 5.12563 3.88398C5.12563 3.61198 4.90513 3.39148 4.63313 3.39148C4.36112 3.39148 4.14062 3.61198 4.14062 3.88398C4.14062 4.15598 4.36112 4.37648 4.63313 4.37648Z" fill="#FFB713"/>
<path d="M4.67474 4.40221C4.94168 4.40221 5.15807 4.18582 5.15807 3.91888C5.15807 3.65194 4.94168 3.43555 4.67474 3.43555C4.4078 3.43555 4.19141 3.65194 4.19141 3.91888C4.19141 4.18582 4.4078 4.40221 4.67474 4.40221Z" fill="#FFB814"/>
<path d="M4.71594 4.42772C4.97758 4.42772 5.18969 4.21562 5.18969 3.95397C5.18969 3.69233 4.97758 3.48022 4.71594 3.48022C4.45429 3.48022 4.24219 3.69233 4.24219 3.95397C4.24219 4.21562 4.45429 4.42772 4.71594 4.42772Z" fill="#FFBA15"/>
<path d="M4.75365 4.45358C5.01023 4.45358 5.21823 4.24558 5.21823 3.989C5.21823 3.73242 5.01023 3.52441 4.75365 3.52441C4.49706 3.52441 4.28906 3.73242 4.28906 3.989C4.28906 4.24558 4.49706 4.45358 4.75365 4.45358Z" fill="#FFBB16"/>
<path d="M4.79875 4.47897C5.05004 4.47897 5.25375 4.27526 5.25375 4.02397C5.25375 3.77268 5.05004 3.56897 4.79875 3.56897C4.54746 3.56897 4.34375 3.77268 4.34375 4.02397C4.34375 4.27526 4.54746 4.47897 4.79875 4.47897Z" fill="#FFBC17"/>
<path d="M4.84036 4.5047C5.08659 4.5047 5.2862 4.3051 5.2862 4.05887C5.2862 3.81264 5.08659 3.61304 4.84036 3.61304C4.59414 3.61304 4.39453 3.81264 4.39453 4.05887C4.39453 4.3051 4.59414 4.5047 4.84036 4.5047Z" fill="#FFBD18"/>
<path d="M4.87766 4.53009C5.11859 4.53009 5.31391 4.33478 5.31391 4.09384C5.31391 3.85291 5.11859 3.65759 4.87766 3.65759C4.63672 3.65759 4.44141 3.85291 4.44141 4.09384C4.44141 4.33478 4.63672 4.53009 4.87766 4.53009Z" fill="#FFBE19"/>
<path d="M4.92318 4.55607C5.15905 4.55607 5.35026 4.36486 5.35026 4.12899C5.35026 3.89312 5.15905 3.7019 4.92318 3.7019C4.68731 3.7019 4.49609 3.89312 4.49609 4.12899C4.49609 4.36486 4.68731 4.55607 4.92318 4.55607Z" fill="#FFC01B"/>
<path d="M4.96437 4.58146C5.19495 4.58146 5.38187 4.39454 5.38187 4.16396C5.38187 3.93338 5.19495 3.74646 4.96437 3.74646C4.7338 3.74646 4.54688 3.93338 4.54688 4.16396C4.54688 4.39454 4.7338 4.58146 4.96437 4.58146Z" fill="#FFC11C"/>
<path d="M5.00599 4.60725C5.23151 4.60725 5.41432 4.42444 5.41432 4.19892C5.41432 3.97341 5.23151 3.79059 5.00599 3.79059C4.78047 3.79059 4.59766 3.97341 4.59766 4.19892C4.59766 4.42444 4.78047 4.60725 5.00599 4.60725Z" fill="#FFC21D"/>
<path d="M5.04719 4.63271C5.26741 4.63271 5.44594 4.45418 5.44594 4.23396C5.44594 4.01373 5.26741 3.83521 5.04719 3.83521C4.82696 3.83521 4.64844 4.01373 4.64844 4.23396C4.64844 4.45418 4.82696 4.63271 5.04719 4.63271Z" fill="#FFC31E"/>
<path d="M5.08448 4.65816C5.29941 4.65816 5.47365 4.48392 5.47365 4.26899C5.47365 4.05406 5.29941 3.87982 5.08448 3.87982C4.86955 3.87982 4.69531 4.05406 4.69531 4.26899C4.69531 4.48392 4.86955 4.65816 5.08448 4.65816Z" fill="#FFC41F"/>
<path d="M5.13 4.68395C5.33987 4.68395 5.51 4.51382 5.51 4.30395C5.51 4.09408 5.33987 3.92395 5.13 3.92395C4.92013 3.92395 4.75 4.09408 4.75 4.30395C4.75 4.51382 4.92013 4.68395 5.13 4.68395Z" fill="#FFC620"/>
<path d="M5.1712 4.70934C5.37577 4.70934 5.54161 4.5435 5.54161 4.33892C5.54161 4.13435 5.37577 3.96851 5.1712 3.96851C4.96662 3.96851 4.80078 4.13435 4.80078 4.33892C4.80078 4.5435 4.96662 4.70934 5.1712 4.70934Z" fill="#FFC721"/>
<path d="M5.21281 4.73519C5.41232 4.73519 5.57406 4.57346 5.57406 4.37394C5.57406 4.17443 5.41232 4.0127 5.21281 4.0127C5.0133 4.0127 4.85156 4.17443 4.85156 4.37394C4.85156 4.57346 5.0133 4.73519 5.21281 4.73519Z" fill="#FFC822"/>
<path d="M5.25401 4.76071C5.44823 4.76071 5.60568 4.60326 5.60568 4.40904C5.60568 4.21482 5.44823 4.05737 5.25401 4.05737C5.05979 4.05737 4.90234 4.21482 4.90234 4.40904C4.90234 4.60326 5.05979 4.76071 5.25401 4.76071Z" fill="#FFC923"/>
<path d="M5.29172 4.78644C5.48088 4.78644 5.63422 4.6331 5.63422 4.44394C5.63422 4.25478 5.48088 4.10144 5.29172 4.10144C5.10256 4.10144 4.94922 4.25478 4.94922 4.44394C4.94922 4.6331 5.10256 4.78644 5.29172 4.78644Z" fill="#FFCA24"/>
<path d="M5.33682 4.81226C5.52069 4.81226 5.66974 4.6632 5.66974 4.47934C5.66974 4.29547 5.52069 4.14642 5.33682 4.14642C5.15296 4.14642 5.00391 4.29547 5.00391 4.47934C5.00391 4.6632 5.15296 4.81226 5.33682 4.81226Z" fill="#FFCB25"/>
<path d="M5.37844 4.83805C5.55724 4.83805 5.70219 4.6931 5.70219 4.5143C5.70219 4.3355 5.55724 4.19055 5.37844 4.19055C5.19964 4.19055 5.05469 4.3355 5.05469 4.5143C5.05469 4.6931 5.19964 4.83805 5.37844 4.83805Z" fill="#FFCD26"/>
<path d="M5.41964 4.86362C5.59314 4.86362 5.7338 4.72297 5.7338 4.54946C5.7338 4.37595 5.59314 4.23529 5.41964 4.23529C5.24613 4.23529 5.10547 4.37595 5.10547 4.54946C5.10547 4.72297 5.24613 4.86362 5.41964 4.86362Z" fill="#FFCE27"/>
<path d="M5.46125 4.88936C5.6297 4.88936 5.76625 4.7528 5.76625 4.58436C5.76625 4.41591 5.6297 4.27936 5.46125 4.27936C5.2928 4.27936 5.15625 4.41591 5.15625 4.58436C5.15625 4.7528 5.2928 4.88936 5.46125 4.88936Z" fill="#FFCF28"/>
<path d="M5.50245 4.91475C5.6656 4.91475 5.79786 4.78248 5.79786 4.61933C5.79786 4.45618 5.6656 4.32391 5.50245 4.32391C5.33929 4.32391 5.20703 4.45618 5.20703 4.61933C5.20703 4.78248 5.33929 4.91475 5.50245 4.91475Z" fill="#FFD029"/>
<path d="M5.54016 4.9406C5.69825 4.9406 5.82641 4.81245 5.82641 4.65435C5.82641 4.49626 5.69825 4.3681 5.54016 4.3681C5.38206 4.3681 5.25391 4.49626 5.25391 4.65435C5.25391 4.81245 5.38206 4.9406 5.54016 4.9406Z" fill="#FFD12A"/>
<path d="M5.58917 4.96611C5.74196 4.96611 5.86583 4.84225 5.86583 4.68945C5.86583 4.53665 5.74196 4.41278 5.58917 4.41278C5.43637 4.41278 5.3125 4.53665 5.3125 4.68945C5.3125 4.84225 5.43637 4.96611 5.58917 4.96611Z" fill="#FFD32C"/>
<path d="M5.63078 4.99185C5.77852 4.99185 5.89828 4.87209 5.89828 4.72435C5.89828 4.57661 5.77852 4.45685 5.63078 4.45685C5.48305 4.45685 5.36328 4.57661 5.36328 4.72435C5.36328 4.87209 5.48305 4.99185 5.63078 4.99185Z" fill="#FFD42D"/>
<path d="M5.66807 5.01724C5.81052 5.01724 5.92599 4.90176 5.92599 4.75932C5.92599 4.61688 5.81052 4.5014 5.66807 4.5014C5.52563 4.5014 5.41016 4.61688 5.41016 4.75932C5.41016 4.90176 5.52563 5.01724 5.66807 5.01724Z" fill="#FFD52E"/>
<path d="M5.70969 5.04315C5.84707 5.04315 5.95844 4.93178 5.95844 4.7944C5.95844 4.65702 5.84707 4.54565 5.70969 4.54565C5.57231 4.54565 5.46094 4.65702 5.46094 4.7944C5.46094 4.93178 5.57231 5.04315 5.70969 5.04315Z" fill="#FFD62F"/>
<path d="M5.74698 5.06848C5.87907 5.06848 5.98615 4.9614 5.98615 4.82932C5.98615 4.69723 5.87907 4.59015 5.74698 4.59015C5.61489 4.59015 5.50781 4.69723 5.50781 4.82932C5.50781 4.9614 5.61489 5.06848 5.74698 5.06848Z" fill="#FFD730"/>
<path d="M5.79641 5.0944C5.92343 5.0944 6.02641 4.99142 6.02641 4.8644C6.02641 4.73737 5.92343 4.6344 5.79641 4.6344C5.66938 4.6344 5.56641 4.73737 5.56641 4.8644C5.56641 4.99142 5.66938 5.0944 5.79641 5.0944Z" fill="#FFD831"/>
<path d="M5.8376 5.11973C5.95934 5.11973 6.05802 5.02104 6.05802 4.89931C6.05802 4.77758 5.95934 4.67889 5.8376 4.67889C5.71587 4.67889 5.61719 4.77758 5.61719 4.89931C5.61719 5.02104 5.71587 5.11973 5.8376 5.11973Z" fill="#FFDA32"/>
<path d="M5.8788 5.14524C5.99524 5.14524 6.08964 5.05085 6.08964 4.93441C6.08964 4.81796 5.99524 4.72357 5.8788 4.72357C5.76236 4.72357 5.66797 4.81796 5.66797 4.93441C5.66797 5.05085 5.76236 5.14524 5.8788 5.14524Z" fill="#FFDB33"/>
<path d="M5.91651 5.17097C6.02789 5.17097 6.11818 5.08068 6.11818 4.9693C6.11818 4.85793 6.02789 4.76764 5.91651 4.76764C5.80513 4.76764 5.71484 4.85793 5.71484 4.9693C5.71484 5.08068 5.80513 5.17097 5.91651 5.17097Z" fill="#FFDC34"/>
</svg>
