<svg width="148" height="14" viewBox="0 0 148 14" fill="none" xmlns="http://www.w3.org/2000/svg">
<path d="M8.73039 9.84998C8.66821 10.9441 7.7106 11.6986 6.62863 11.6232H3.79312V7.93841L6.36746 7.87553C7.78522 7.87553 8.74283 8.63009 8.74283 9.7871V9.84998H8.73039ZM8.33242 4.24107C8.2578 5.20942 7.37482 5.88852 6.42965 5.81307H3.79312V2.54331H6.23067C7.44944 2.54331 8.33242 3.22242 8.33242 4.11531V4.24107ZM9.20298 6.70596C10.5586 6.02687 10.969 5.33519 10.969 3.97698C10.969 2.54331 10.2227 1.31086 8.94181 0.694646C8.2578 0.417968 7.44944 0.355089 5.14869 0.355089H0V2.54331H1.01979V11.6357H0V13.8239H7.11365C9.68804 13.8239 11.454 12.3274 11.454 10.0638C11.5784 8.55464 10.6332 7.18385 9.20298 6.70596ZM15.4337 7.35991C15.6326 6.27838 16.5654 5.39806 17.6846 5.39806H17.7468C18.8039 5.39806 19.7367 6.27838 19.7367 7.42279L15.4337 7.35991ZM15.2969 9.18346H22.4603C22.5224 7.82523 22.1244 6.54247 21.4653 5.39806C20.6072 4.03986 19.1397 3.29787 17.61 3.29787C14.8242 3.29787 12.7722 5.5364 12.7722 8.64267C12.7722 11.7489 14.8242 13.9874 17.61 13.9874C19.9979 13.9874 21.7887 12.6292 22.2488 10.4033L19.7243 10.4662C19.4631 11.3465 18.5925 12.0256 17.6722 11.9501C17.2245 11.9627 15.5705 11.8244 15.2969 9.18346ZM34.0386 13.8114H35.5185V7.03294L30.8798 7.02037V7.03294L30.8175 8.27796H33.9764C33.9764 8.61752 33.9764 8.98224 33.9142 9.32179C33.5784 11.0824 32.0985 12.428 30.2827 12.5035C27.9944 12.5035 26.2533 10.1392 26.2533 6.89461C26.2533 2.76968 28.666 1.3486 30.2827 1.3486C31.3523 1.41148 32.4342 1.95224 33.1058 2.83256C33.4416 3.31045 33.7152 3.83864 33.8396 4.44229H35.3195V0.355089H33.9142V2.30437C33.1058 0.883284 31.6259 -0.0599163 29.947 0.00296383C26.9249 0.00296383 24.4998 3.10923 24.4998 7.03294C24.4998 10.9566 26.9125 13.9874 30.0091 13.9874C31.0787 13.9874 32.1606 13.585 33.0313 12.843C33.4292 12.4406 33.765 12.0633 34.0386 11.5854V13.8114ZM43.7888 10.2021C43.5898 11.686 42.2964 12.755 40.804 12.8304C39.722 12.8304 38.7645 12.0256 38.7022 10.8812C38.7022 9.59846 39.722 9.07027 42.8436 8.65524L43.7888 8.51691V10.2021ZM46.6989 13.8114L46.5621 12.5664H45.1443V6.98264C45.1443 4.42971 43.3784 3.48651 41.2766 3.48651C40.3314 3.48651 39.3116 3.75061 38.5654 4.36683C37.9561 4.9076 37.5457 5.62443 37.4089 6.42929H38.9634C39.237 5.08366 39.9832 4.63093 41.401 4.63093C42.8312 4.63093 43.7017 5.37291 43.7017 6.51732V7.52341L42.7565 7.58629C38.6898 7.98871 36.9984 8.93194 36.9984 10.8812V11.0824C37.1352 12.7676 38.6277 14.1132 40.319 13.9748C41.7367 13.9748 43.0923 13.2203 43.7764 11.9376V13.8114H46.6989ZM60.4785 13.8114H63.2892V12.5664H61.8838V6.07717C61.8838 4.31652 61.0133 3.29787 59.4836 3.29787C58.6877 3.29787 57.9538 3.63743 57.3445 4.17819C56.9465 4.58063 56.673 4.99563 56.4118 5.46094C56.1506 4.03986 55.4169 3.2853 54.0737 3.2853C52.2082 3.2853 51.3377 4.78184 50.8651 5.46094L50.803 3.47393H47.8679V4.71896H49.3354V12.5664H47.8679V13.8114H52.2082V12.5664H50.7407V7.49825C50.7407 6.55505 51.8725 4.58063 53.4146 4.58063C54.422 4.58063 54.8821 5.12139 54.8821 6.41672V13.8114H57.8171V12.5664H56.3371V7.37249C56.3371 6.63051 57.2699 4.51775 59.011 4.51775C60.0059 4.51775 60.4785 5.19684 60.4785 6.61793V13.8114ZM73.487 8.60494C73.487 11.1201 72.4174 12.6795 70.6888 12.6795C69.0845 12.5412 67.8284 11.183 67.8284 9.49785L67.7663 7.7372C67.7663 6.24065 69.2337 4.61835 70.7012 4.61835C72.3553 4.60578 73.487 6.10232 73.487 8.60494ZM75.0913 8.81873C75.0913 5.83822 73.3627 3.47393 71.0868 3.47393C69.3581 3.47393 68.214 4.94532 67.816 5.68731V0.00296383H65.0178V1.24798H66.3485V12.5664H64.9432V13.8114H67.816V11.9376C68.4129 12.755 69.2835 13.9874 71.0868 13.9874C73.2259 13.9874 75.0913 11.598 75.0913 8.81873ZM75.8749 13.8114H80.1903V12.5664H78.8471V0.00296383H75.9494V1.15995H77.3672V12.5664H75.8873V13.8114H75.8749ZM83.0133 7.85038C83.0133 7.51083 83.1501 7.17128 83.2124 6.8443C83.5481 5.62443 84.6177 4.75669 85.8861 4.68123C86.4832 4.61835 87.0925 4.88245 87.5651 5.28488C88.2367 6.02687 88.5724 6.90718 88.5724 7.85038H83.0133ZM82.9512 8.99482H90.2514C90.2514 5.42322 88.2491 3.46136 85.7618 3.46136C83.2869 3.46136 81.3469 5.75019 81.3469 8.71812C81.3469 11.8244 83.2869 13.9748 86.0354 13.9748C87.3039 13.9748 88.4481 13.4341 89.244 12.4909C89.642 12.013 89.9156 11.5477 90.0524 10.9441L88.3859 11.007C87.8511 12.2268 87.1174 12.755 85.9732 12.755C85.3016 12.755 84.6301 12.4909 84.0953 12.013C83.4237 11.3591 83.088 10.4788 82.9512 8.99482ZM99.6165 8.84388H96.1337L97.8746 2.85771L99.6165 8.84388ZM101.158 13.8114H104.167V11.6735H103.16L99.4912 0.355089H96.2827L92.6641 11.6735H91.6567V13.8114H94.7409L95.6119 10.8938H100.3L101.158 13.8114ZM118.034 5.43579H118.905V3.47393H114.888V5.43579H115.896L114.552 11.4723L112.885 3.47393H110.274L108.595 11.6106L107.202 5.43579H108.198V3.47393H104.18V5.43579H105.051L107.252 13.8114H109.926L111.53 6.64308L113.209 13.8114H115.883L118.034 5.43579ZM126.069 10.0135C126.006 11.2333 124.999 12.1765 123.793 12.1765C122.785 12.1765 122.113 11.6357 122.113 10.8309C122.113 9.40982 123.656 9.20861 125.994 9.0074H126.056V10.0135H126.069ZM129.29 13.8114V11.837H128.419L128.481 7.04552C128.481 4.75669 127.001 3.47393 124.19 3.47393C121.778 3.47393 120.173 4.75669 120.037 6.78143L122.449 6.8443V6.78143C122.512 5.83822 122.984 5.23457 124.253 5.23457C125.521 5.23457 126.056 5.71246 126.056 7.25931C122.834 7.52341 119.489 7.86296 119.489 10.8309C119.489 12.6544 121.032 14 123.046 14C124.253 14 125.397 13.5221 126.13 12.5915V13.8114H129.29ZM136.552 5.69988C136.95 5.69988 137.348 5.76276 137.746 5.83822V3.43621C137.348 3.37333 137.012 3.29787 136.615 3.29787C135.483 3.29787 134.749 3.85122 134.09 5.15911V3.47393H130.695V5.49867H131.69V11.837H130.695V13.8114H135.346V11.837H134.152V7.8378C134.227 6.59278 135.284 5.637 136.552 5.69988ZM140.905 7.35991C141.104 6.27838 142.037 5.39806 143.156 5.39806H143.219C144.276 5.39806 145.208 6.27838 145.208 7.42279L140.905 7.35991ZM140.831 9.18346H147.994C148.056 7.82523 147.658 6.54247 146.999 5.39806C146.141 4.03986 144.673 3.29787 143.144 3.29787C140.358 3.29787 138.294 5.5364 138.294 8.64267C138.294 11.7489 140.345 13.9874 143.144 13.9874C145.532 13.9874 147.322 12.6292 147.782 10.4033L145.257 10.4662C144.997 11.3465 144.126 12.0256 143.205 11.9501C142.759 11.9627 141.104 11.8244 140.831 9.18346Z" fill="#878EA8"/>
</svg>
