<svg width="119" height="35" viewBox="0 0 119 35" fill="none" xmlns="http://www.w3.org/2000/svg">
<path d="M45.5988 13.3193C45.6205 13.372 45.631 13.4289 45.6296 13.4861C45.6283 13.5432 45.6152 13.5995 45.5911 13.6511C45.5671 13.7026 45.5326 13.7484 45.4901 13.7852C45.4476 13.8221 45.3979 13.8492 45.3444 13.8648L43.0921 14.552C42.8165 14.6338 42.6734 14.552 42.5621 14.2684C42.4327 13.7059 42.1095 13.2107 41.6525 12.8748C41.1954 12.5388 40.6355 12.3847 40.0765 12.4412C37.9566 12.4412 37.2306 13.7339 37.2306 15.4738V19.4772C37.2306 21.2171 37.946 22.5098 40.0765 22.5098C41.8307 22.5098 42.7264 21.6698 42.7264 19.8426V19.2972H40.4369C40.393 19.301 40.3489 19.2945 40.3078 19.2783C40.2667 19.262 40.2298 19.2364 40.1997 19.2033C40.1696 19.1703 40.1472 19.1306 40.1341 19.0874C40.121 19.0441 40.1177 18.9984 40.1242 18.9536V16.7828C40.1187 16.7382 40.1228 16.6929 40.1362 16.6501C40.1496 16.6073 40.1721 16.5681 40.202 16.5352C40.2318 16.5024 40.2684 16.4768 40.309 16.4602C40.3496 16.4436 40.3933 16.4364 40.4369 16.4392H45.5352C45.5788 16.4324 45.6232 16.4359 45.6652 16.4494C45.7073 16.4628 45.7458 16.4859 45.7779 16.5168C45.81 16.5478 45.8349 16.5859 45.8507 16.6281C45.8665 16.6704 45.8728 16.7158 45.8691 16.761V20.0717C45.8691 23.2352 43.6114 25.6187 40.103 25.6187C35.9427 25.6187 33.9977 23.0825 33.9977 19.619V15.3865C33.9977 11.9012 35.9427 9.38681 40.103 9.38681C43.4683 9.38681 44.9894 11.3613 45.5988 13.3411V13.3193ZM57.0462 17.2791V25.0405C57.0485 25.0834 57.042 25.1263 57.0271 25.1664C57.0122 25.2065 56.9893 25.243 56.9598 25.2733C56.9302 25.3037 56.8948 25.3273 56.8559 25.3427C56.8169 25.358 56.7752 25.3647 56.7335 25.3623H54.4335C54.3903 25.3671 54.3466 25.3622 54.3055 25.348C54.2643 25.3338 54.2266 25.3107 54.1949 25.2801C54.1632 25.2496 54.1383 25.2124 54.1219 25.171C54.1054 25.1297 54.0978 25.0852 54.0996 25.0405V23.7697C53.7729 24.3355 53.3068 24.8025 52.7484 25.1233C52.19 25.4442 51.5592 25.6075 50.9197 25.5969C48.7469 25.5969 47.3424 24.1569 47.3424 21.9425C47.3424 19.7281 48.6621 18.5009 51.879 18.2663C52.574 18.2118 53.2721 18.2118 53.9671 18.2663V17.3828C53.9671 16.221 53.3841 15.7465 52.3772 15.7465C52.0283 15.6959 51.6735 15.7792 51.3804 15.9803C51.0872 16.1814 50.8761 16.4865 50.7873 16.8373C50.6813 17.0937 50.6018 17.1373 50.3686 17.0719L48.0685 16.4719C47.8406 16.4064 47.8194 16.2755 47.8618 16.1065C48.1745 14.4047 49.7432 13.1557 52.4991 13.1557C55.4033 13.1557 57.0356 14.5793 57.0356 17.2464L57.0462 17.2791ZM53.9618 20.2244C53.3481 20.2016 52.7335 20.2234 52.1228 20.2899C50.9568 20.4371 50.3262 20.8026 50.3262 21.7298C50.3262 22.5643 50.8561 23.017 51.7677 23.017C52.262 23.0275 52.7457 22.8688 53.1428 22.5657C53.54 22.2626 53.828 21.8324 53.9618 21.3425V20.2244ZM65.3456 13.1884C65.9896 13.1763 66.6195 13.3837 67.1371 13.7783C67.6547 14.1729 68.031 14.7325 68.2074 15.3701C69.066 14.0775 70.11 13.1884 71.5728 13.1884C73.5973 13.1884 74.7526 14.8247 74.7526 17.3173V25.0405C74.7493 25.0874 74.7369 25.1332 74.716 25.175C74.6951 25.2168 74.6662 25.2539 74.6311 25.2839C74.5959 25.314 74.5553 25.3364 74.5115 25.3499C74.4677 25.3634 74.4217 25.3676 74.3763 25.3623H71.9755C71.9301 25.3676 71.8842 25.3634 71.8404 25.3499C71.7966 25.3364 71.7559 25.314 71.7208 25.2839C71.6857 25.2539 71.6568 25.2168 71.6359 25.175C71.615 25.1332 71.6026 25.0874 71.5993 25.0405V17.8791C71.5993 16.7882 71.1382 16.1555 70.322 16.1555C69.5059 16.1555 68.8381 16.8919 68.5254 18.01V25.0405C68.5283 25.0817 68.523 25.1231 68.5096 25.162C68.4963 25.201 68.4753 25.2367 68.4479 25.2669C68.4206 25.2971 68.3874 25.3212 68.3506 25.3376C68.3138 25.354 68.2741 25.3624 68.2339 25.3623H65.6371C65.4516 25.3623 65.3668 25.2314 65.3668 25.0405V17.8791C65.3668 16.7882 64.9057 16.1555 64.0896 16.1555C63.2734 16.1555 62.5844 16.93 62.293 18.0318V25.0405C62.2971 25.0838 62.2918 25.1276 62.2776 25.1685C62.2633 25.2095 62.2404 25.2467 62.2105 25.2775C62.1806 25.3082 62.1444 25.3318 62.1046 25.3465C62.0648 25.3612 62.0224 25.3666 61.9803 25.3623H59.4311C59.389 25.3666 59.3465 25.3612 59.3067 25.3465C59.2669 25.3318 59.2308 25.3082 59.2009 25.2775C59.171 25.2467 59.1481 25.2095 59.1338 25.1685C59.1196 25.1276 59.1143 25.0838 59.1184 25.0405V13.7502C59.1183 13.7089 59.1265 13.668 59.1424 13.6301C59.1584 13.5923 59.1818 13.5582 59.2111 13.53C59.2405 13.5018 59.2752 13.4802 59.313 13.4665C59.3509 13.4528 59.3911 13.4472 59.4311 13.4502H61.8743C61.9145 13.4464 61.955 13.4513 61.9932 13.4647C62.0314 13.4781 62.0665 13.4997 62.096 13.5281C62.1255 13.5564 62.1489 13.5908 62.1646 13.6291C62.1803 13.6674 62.1879 13.7087 62.187 13.7502V15.1029C62.8812 14.1157 63.8829 13.1884 65.3668 13.1884H65.3456ZM87.8959 13.4502C87.9595 13.7284 87.8959 13.9411 87.6256 13.9957L85.4103 14.6611C85.3605 14.6857 85.3056 14.6978 85.2503 14.6964C85.195 14.695 85.1409 14.6801 85.0922 14.6529C85.0436 14.6258 85.0019 14.5872 84.9706 14.5402C84.9393 14.4933 84.9193 14.4394 84.9122 14.3829C84.5942 13.2921 84.0536 12.4466 82.5061 12.4466C80.6035 12.4466 79.9993 13.7393 79.9993 15.4792V19.4826C79.9993 21.2225 80.6883 22.5152 82.5061 22.5152C84.1384 22.5152 84.7638 21.5662 85.0129 20.3826C85.0185 20.3248 85.0379 20.2693 85.0692 20.221C85.1006 20.1727 85.143 20.1331 85.1927 20.1056C85.2424 20.0782 85.2979 20.0637 85.3544 20.0635C85.4108 20.0633 85.4664 20.0773 85.5163 20.1044L87.7369 20.8462C87.7905 20.8622 87.8402 20.8893 87.8832 20.9259C87.9262 20.9624 87.9614 21.0076 87.9867 21.0587C88.0121 21.1098 88.0269 21.1657 88.0305 21.223C88.034 21.2803 88.0261 21.3376 88.0072 21.3916C87.4772 23.7151 85.8555 25.6023 82.469 25.6023C78.6691 25.6023 76.7453 23.0661 76.7453 19.6026V15.3865C76.7453 11.9012 78.7062 9.38681 82.469 9.38681C85.7707 9.38681 87.3182 11.1922 87.9012 13.472L87.8959 13.4502ZM99.02 17.2791V25.0405C99.0223 25.0834 99.0158 25.1263 99.0009 25.1664C98.986 25.2065 98.9631 25.243 98.9336 25.2733C98.9041 25.3037 98.8687 25.3273 98.8297 25.3427C98.7907 25.358 98.749 25.3647 98.7074 25.3623H96.4073C96.3641 25.3671 96.3205 25.3622 96.2793 25.348C96.2381 25.3338 96.2004 25.3107 96.1687 25.2801C96.137 25.2496 96.1121 25.2124 96.0957 25.171C96.0792 25.1297 96.0716 25.0852 96.0734 25.0405V23.7697C95.7467 24.3355 95.2806 24.8025 94.7222 25.1233C94.1638 25.4442 93.533 25.6075 92.8936 25.5969C90.7207 25.5969 89.3215 24.1569 89.3215 21.9425C89.3215 19.7281 90.6359 18.5009 93.8528 18.2663C94.5496 18.2117 95.2494 18.2117 95.9462 18.2663V17.3828C95.9462 16.221 95.3579 15.7465 94.3563 15.7465C94.0077 15.6984 93.6541 15.7826 93.3614 15.9833C93.0688 16.1841 92.8573 16.4877 92.7664 16.8373C92.6657 17.0937 92.5809 17.1373 92.3477 17.0719L90.0529 16.4719C89.8197 16.4064 89.7985 16.2755 89.8409 16.1065C90.1536 14.4047 91.7223 13.1557 94.4835 13.1557C97.3877 13.1557 99.0147 14.5793 99.0147 17.2464L99.02 17.2791ZM95.9462 20.2244C95.3325 20.2014 94.7179 20.2232 94.1072 20.2899C92.936 20.4371 92.3106 20.8026 92.3106 21.7298C92.3106 22.5643 92.8406 23.017 93.7521 23.017C94.2462 23.0266 94.7295 22.8675 95.1264 22.5645C95.5233 22.2616 95.8116 21.8319 95.9462 21.3425V20.2244ZM107.971 13.6629V15.9646C107.971 16.2428 107.865 16.3519 107.595 16.3519H107.256C105.586 16.3519 104.606 17.1264 104.272 18.4191V25.0405C104.275 25.0804 104.27 25.1204 104.258 25.1583C104.245 25.1962 104.226 25.2311 104.2 25.2611C104.174 25.2911 104.143 25.3155 104.108 25.3329C104.073 25.3502 104.035 25.3603 103.996 25.3623H101.347C101.308 25.3603 101.27 25.3502 101.235 25.3329C101.2 25.3155 101.169 25.2911 101.143 25.2611C101.117 25.2311 101.098 25.1962 101.085 25.1583C101.073 25.1204 101.068 25.0804 101.071 25.0405V13.7502C101.069 13.7084 101.076 13.6667 101.092 13.628C101.107 13.5893 101.13 13.5545 101.16 13.526C101.19 13.4974 101.225 13.4759 101.264 13.4628C101.302 13.4498 101.343 13.4455 101.384 13.4502H103.769C104.018 13.4502 104.081 13.6193 104.081 13.7939V15.3865C104.387 14.7361 104.87 14.191 105.471 13.8173C106.072 13.4436 106.766 13.2574 107.468 13.2812C107.886 13.2812 107.998 13.3466 107.998 13.6466L107.971 13.6629ZM112.073 20.3717V20.8244C112.073 22.0734 112.704 22.9515 114.193 22.9515C115.682 22.9515 116.032 22.4061 116.408 21.6862C116.594 21.3644 116.679 21.3207 117.013 21.468L118.661 22.3298C119 22.5043 119.021 22.6734 118.873 22.9952C118.163 24.6315 116.387 25.5969 114.172 25.5969C110.828 25.5969 109.074 23.557 109.074 20.7589V18.0318C109.074 15.3047 110.722 13.1884 114.151 13.1884C117.41 13.1884 119 15.321 119 17.9664V19.859C119 20.1808 118.894 20.4044 118.47 20.4044L112.073 20.3717ZM112.073 17.8573V18.2663H116.106V17.8573C116.132 17.5798 116.097 17.3 116.005 17.0378C115.914 16.7756 115.767 16.5373 115.576 16.34C115.385 16.1427 115.154 15.9911 114.899 15.8961C114.644 15.8011 114.373 15.7649 114.103 15.7901C113.832 15.7645 113.559 15.8003 113.303 15.8948C113.047 15.9893 112.814 16.1403 112.62 16.3373C112.427 16.5343 112.278 16.7724 112.183 17.0349C112.089 17.2975 112.051 17.5782 112.073 17.8573Z" fill="#878EA8"/>
<path d="M14.4523 3.4093e-05H0.429278C0.373156 -0.000687943 0.317453 0.0100653 0.2654 0.0316699C0.213348 0.0532746 0.165981 0.0853007 0.126048 0.125891C0.086115 0.166481 0.0544103 0.214827 0.0327728 0.268125C0.0111352 0.321423 -4.38375e-06 0.378612 1.29371e-09 0.436375V21.4244C0.00140521 25.021 1.39067 28.4698 3.86233 31.0125C6.33398 33.5553 9.68567 34.9836 13.1804 34.9836H14.4523C17.9466 34.9836 21.2977 33.5551 23.7686 31.0122C26.2394 28.4694 27.6275 25.0205 27.6275 21.4244V13.5593C27.6275 9.96317 26.2394 6.51431 23.7686 3.97146C21.2977 1.4286 17.9466 3.4093e-05 14.4523 3.4093e-05ZM23.393 21.6534C23.393 26.7586 19.7521 30.6148 14.0814 30.6148C7.36662 30.6148 4.22918 26.5132 4.22918 20.9171V14.0829C4.22918 8.45413 7.36662 4.35799 14.0708 4.35799C19.503 4.35799 21.9674 7.55418 22.9478 10.7504C22.9857 10.8352 23.0054 10.9275 23.0054 11.0208C23.0055 11.1142 22.9861 11.2065 22.9483 11.2914C22.9106 11.3763 22.8555 11.4518 22.7868 11.5129C22.7181 11.5739 22.6375 11.6189 22.5503 11.6449L18.9041 12.7357C18.4695 12.8721 18.231 12.7357 18.0986 12.283C17.5209 10.374 16.3072 9.33227 14.0814 9.33227C10.6365 9.33227 9.49181 11.4158 9.49181 14.2411V20.7153C9.49181 23.5297 10.6365 25.6241 14.0814 25.6241C16.9167 25.6241 18.4006 24.266 18.4006 21.3153V20.4699H14.6007C14.5289 20.4797 14.4558 20.4724 14.3871 20.4485C14.3184 20.4246 14.256 20.3847 14.2048 20.332C14.1535 20.2792 14.1147 20.215 14.0915 20.1443C14.0683 20.0736 14.0612 19.9984 14.0708 19.9244V16.341C14.0652 16.2679 14.0751 16.1944 14.0997 16.1257C14.1244 16.0569 14.1632 15.9944 14.2136 15.9426C14.264 15.8907 14.3247 15.8507 14.3915 15.8254C14.4583 15.8 14.5297 15.7898 14.6007 15.7956H22.8524C22.9218 15.7865 22.9923 15.7934 23.0589 15.8158C23.1254 15.8382 23.1862 15.8756 23.2369 15.9252C23.2877 15.9748 23.327 16.0354 23.3522 16.1026C23.3773 16.1698 23.3877 16.2419 23.3824 16.3137L23.393 21.6534Z" fill="#878EA8"/>
<path d="M37.1087 30.0039C37.1148 30.0147 37.1184 30.0269 37.1192 30.0394C37.1201 30.0519 37.1181 30.0644 37.1135 30.076C37.1089 30.0876 37.1018 30.0979 37.0927 30.1062C37.0835 30.1145 37.0727 30.1206 37.061 30.1239L36.69 30.2439C36.6317 30.2439 36.5999 30.2439 36.5734 30.1948C36.5203 29.9826 36.3959 29.7966 36.2222 29.6698C36.0486 29.543 35.8369 29.4836 35.6247 29.5021C35.481 29.4824 35.3348 29.497 35.1975 29.5448C35.0601 29.5926 34.9353 29.6724 34.8328 29.7779C34.7303 29.8834 34.6528 30.0119 34.6063 30.1532C34.5598 30.2946 34.5456 30.4451 34.5648 30.593V32.0383C34.5456 32.1863 34.5598 32.3367 34.6063 32.4781C34.6528 32.6194 34.7303 32.7479 34.8328 32.8534C34.9353 32.9589 35.0601 33.0387 35.1975 33.0865C35.3348 33.1343 35.481 33.1489 35.6247 33.1292C36.2236 33.1292 36.6158 32.8456 36.6158 32.2074V31.662H35.7466C35.6989 31.662 35.6724 31.662 35.6724 31.5802V31.2802C35.6724 31.2257 35.6724 31.1984 35.7466 31.1984H37.0928C37.1038 31.1967 37.1151 31.1976 37.1258 31.201C37.1364 31.2045 37.1462 31.2104 37.1544 31.2182C37.1625 31.2261 37.1688 31.2357 37.1729 31.2465C37.1769 31.2572 37.1785 31.2687 37.1776 31.2802V32.2838C37.1794 32.4876 37.1394 32.6895 37.06 32.8763C36.9807 33.0631 36.8639 33.2305 36.7172 33.3675C36.5706 33.5045 36.3974 33.608 36.2091 33.6713C36.0209 33.7346 35.8217 33.7562 35.6247 33.7346C35.4082 33.7608 35.1886 33.7368 34.9822 33.6644C34.7758 33.592 34.5877 33.4731 34.4317 33.3162C34.2757 33.1593 34.1558 32.9686 34.0807 32.7578C34.0056 32.5471 33.9773 32.3218 33.9977 32.0983V30.5657C33.9773 30.3422 34.0056 30.1169 34.0807 29.9062C34.1558 29.6955 34.2757 29.5047 34.4317 29.3478C34.5877 29.191 34.7758 29.072 34.9822 28.9996C35.1886 28.9272 35.4082 28.9032 35.6247 28.9294C35.9527 28.9024 36.2797 28.9931 36.5502 29.1859C36.8207 29.3788 37.018 29.662 37.1087 29.9875V30.0039ZM39.9705 32.0492C39.7199 32.033 39.4686 32.033 39.218 32.0492C38.7516 32.1038 38.4707 32.2729 38.4707 32.671C38.4645 32.7544 38.4769 32.8381 38.5071 32.9158C38.5373 32.9934 38.5845 33.0628 38.6449 33.1187C38.7054 33.1746 38.7775 33.2154 38.8557 33.2381C38.934 33.2607 39.0162 33.2645 39.0961 33.2492C39.2892 33.2475 39.477 33.1841 39.6336 33.0679C39.7903 32.9516 39.908 32.7882 39.9705 32.6001V32.0492ZM40.5005 31.2038V33.5873C40.5005 33.6364 40.5005 33.6583 40.421 33.6583H40.05C39.997 33.6583 39.9705 33.6583 39.9705 33.5873V33.1346C39.8686 33.3119 39.7237 33.4589 39.5499 33.5613C39.3762 33.6636 39.1796 33.7177 38.9795 33.7183C38.8428 33.7323 38.7047 33.7162 38.5746 33.6709C38.4444 33.6256 38.3252 33.5522 38.2248 33.4556C38.1245 33.359 38.0453 33.2415 37.9926 33.1109C37.94 32.9803 37.9151 32.8396 37.9195 32.6983C37.9195 32.0602 38.3382 31.7111 39.1544 31.6456C39.4208 31.6267 39.6882 31.6267 39.9546 31.6456V31.242C39.9546 30.7839 39.6949 30.593 39.2763 30.593C39.1273 30.5676 38.9745 30.6006 38.8479 30.6854C38.7214 30.7701 38.6303 30.9006 38.5926 31.0511C38.5926 31.1111 38.5502 31.1166 38.4866 31.1057L38.1262 31.002C38.0679 31.002 38.052 30.9584 38.0679 30.9093C38.1792 30.4293 38.5979 30.1184 39.2922 30.1184C39.9864 30.1184 40.5005 30.4675 40.5005 31.2093V31.2038ZM42.9384 30.1075C43.1222 30.1036 43.3021 30.1632 43.4491 30.277C43.5961 30.3907 43.7018 30.5519 43.7492 30.7348C43.8474 30.5519 43.9896 30.3981 44.1623 30.2883C44.3349 30.1784 44.5322 30.1162 44.735 30.1075C45.2649 30.1075 45.6306 30.5221 45.6306 31.1711V33.5764C45.6306 33.631 45.5988 33.6528 45.5458 33.6528H45.1801C45.1218 33.6528 45.0954 33.6528 45.0954 33.5764V31.2802C45.0954 30.8548 44.9099 30.6257 44.5654 30.6257C44.3929 30.646 44.2304 30.7193 44.099 30.836C43.9676 30.9528 43.8734 31.1076 43.8287 31.2802V33.5873C43.8287 33.6419 43.8287 33.6637 43.7545 33.6637H43.3464C43.2881 33.6637 43.2722 33.6637 43.2722 33.5873V31.2802C43.2722 30.8548 43.0921 30.6257 42.7423 30.6257C42.5715 30.6507 42.4113 30.7257 42.2807 30.8418C42.1501 30.9578 42.0546 31.11 42.0056 31.2802V33.5601C42.0056 33.6146 42.0056 33.6364 41.9314 33.6364H41.5286C41.4703 33.6364 41.4544 33.6364 41.4544 33.5601V30.2439C41.4544 30.2003 41.4544 30.173 41.5286 30.173H41.9208C41.9791 30.173 41.995 30.2003 41.995 30.2439V30.702C42.0906 30.529 42.2273 30.3837 42.3923 30.2797C42.5572 30.1758 42.7451 30.1165 42.9384 30.1075ZM47.1463 31.5202V32.3274C47.1387 32.4438 47.1551 32.5606 47.1946 32.67C47.2341 32.7794 47.2957 32.8789 47.3754 32.9619C47.455 33.045 47.551 33.1096 47.6567 33.1516C47.7625 33.1936 47.8758 33.212 47.989 33.2056C48.4766 33.2056 48.7681 32.911 48.7681 32.3274V31.5147C48.7681 30.9366 48.4766 30.6257 47.989 30.6257C47.8761 30.6231 47.7639 30.6448 47.6596 30.6894C47.5554 30.7341 47.4613 30.8006 47.3835 30.8848C47.3056 30.969 47.2458 31.0691 47.2077 31.1785C47.1696 31.2879 47.1541 31.4043 47.1622 31.5202H47.1463ZM47.1622 28.9131V30.653C47.266 30.4789 47.4131 30.3365 47.5883 30.2406C47.7634 30.1447 47.9604 30.0988 48.1586 30.1075C48.323 30.1049 48.4861 30.1383 48.637 30.2058C48.7878 30.2732 48.9229 30.3729 49.0333 30.4984C49.1437 30.6239 49.2268 30.7721 49.277 30.9333C49.3272 31.0945 49.3434 31.2648 49.3245 31.4329V32.3983C49.3429 32.5679 49.3255 32.7395 49.2737 32.9016C49.2219 33.0637 49.1368 33.2124 49.0242 33.3376C48.9115 33.4628 48.7741 33.5616 48.621 33.6273C48.468 33.693 48.3031 33.724 48.1374 33.7183C47.9409 33.725 47.7462 33.6781 47.5731 33.5823C47.3999 33.4865 47.2545 33.3452 47.1516 33.1728V33.5764C47.1516 33.6255 47.1145 33.6419 47.0774 33.6419H46.6853C46.6376 33.6419 46.6111 33.6419 46.6111 33.5764V28.9131C46.6103 28.9035 46.6115 28.8939 46.6147 28.885C46.6178 28.876 46.6229 28.8678 46.6295 28.8611C46.636 28.8543 46.6439 28.8491 46.6527 28.8458C46.6614 28.8426 46.6707 28.8413 46.68 28.8421H47.0986C47.1463 28.8421 47.1622 28.8421 47.1622 28.9131ZM50.7449 28.9131V33.5764C50.7449 33.631 50.7449 33.6528 50.6707 33.6528H50.2679C50.2043 33.6528 50.1884 33.6528 50.1884 33.5764V28.9131C50.1884 28.864 50.1884 28.8367 50.2679 28.8367H50.6707C50.6808 28.8347 50.6913 28.8354 50.7012 28.8385C50.711 28.8417 50.72 28.8472 50.7273 28.8547C50.7346 28.8623 50.74 28.8715 50.7431 28.8817C50.7461 28.8918 50.7468 28.9026 50.7449 28.9131ZM52.2288 30.2493V33.5819C52.2288 33.631 52.2288 33.6528 52.1599 33.6528H51.7571C51.6935 33.6528 51.6776 33.6528 51.6776 33.5819V30.2493C51.6776 30.2003 51.6776 30.1784 51.7571 30.1784H52.1599C52.2129 30.1784 52.2288 30.1784 52.2288 30.2493ZM52.2288 28.9349V29.5457C52.2288 29.6057 52.2288 29.6385 52.1387 29.6385H51.7677C51.7555 29.6403 51.743 29.6392 51.7312 29.6351C51.7195 29.6311 51.7088 29.6244 51.7001 29.6154C51.6913 29.6064 51.6847 29.5954 51.6808 29.5833C51.6769 29.5712 51.6758 29.5583 51.6776 29.5457V28.9349C51.6758 28.9223 51.6769 28.9094 51.6808 28.8973C51.6847 28.8852 51.6913 28.8743 51.7001 28.8653C51.7088 28.8563 51.7195 28.8495 51.7312 28.8455C51.743 28.8415 51.7555 28.8403 51.7677 28.8421H52.1387C52.2076 28.8421 52.2288 28.8749 52.2288 28.9349ZM53.7392 31.3075V33.5819C53.7392 33.631 53.7392 33.6528 53.6703 33.6528H53.2887C53.2251 33.6528 53.2092 33.6528 53.2092 33.5819V30.2439C53.2092 30.2003 53.2092 30.173 53.2834 30.173H53.6756C53.7339 30.173 53.7498 30.2003 53.7498 30.2439V30.702C53.8658 30.5214 54.0231 30.3727 54.2079 30.2691C54.3927 30.1654 54.5993 30.11 54.8097 30.1075C54.9516 30.1037 55.0926 30.1317 55.2228 30.1897C55.353 30.2477 55.4694 30.3343 55.5637 30.4434C55.6581 30.5524 55.7282 30.6814 55.7692 30.8212C55.8101 30.961 55.8209 31.1084 55.8008 31.2529V33.5819C55.8008 33.631 55.8008 33.6528 55.7213 33.6528H55.3185C55.2655 33.6528 55.239 33.6528 55.239 33.5819V31.3456C55.239 30.8984 55.0429 30.6366 54.619 30.6366C54.4281 30.6488 54.2452 30.7191 54.0932 30.8385C53.9413 30.958 53.8273 31.1212 53.7657 31.3075H53.7392ZM57.1045 31.362C57.0959 31.4655 57.1098 31.5696 57.1452 31.6668C57.1807 31.7641 57.2367 31.8519 57.3093 31.924C57.3819 31.9961 57.4693 32.0507 57.5649 32.0837C57.6606 32.1166 57.7622 32.1272 57.8624 32.1147C57.9598 32.1278 58.0589 32.1179 58.152 32.0857C58.2452 32.0535 58.33 31.9998 58.4 31.9289C58.47 31.8579 58.5233 31.7714 58.556 31.676C58.5886 31.5806 58.5997 31.4788 58.5884 31.3784C58.5884 31.1759 58.5103 30.9816 58.3711 30.8384C58.232 30.6952 58.0433 30.6148 57.8465 30.6148C57.6497 30.6148 57.461 30.6952 57.3218 30.8384C57.1827 30.9816 57.1045 31.1759 57.1045 31.3784V31.362ZM58.8799 33.9964C58.8799 33.7455 58.7421 33.511 58.244 33.511H57.6239C57.1575 33.511 57.0144 33.7564 57.0144 34.0073C57.0144 34.3564 57.2794 34.5855 57.9313 34.5855C58.5831 34.5855 58.8799 34.3455 58.8799 33.9964ZM59.4099 33.9582C59.4099 34.5037 58.9965 35 57.8995 35C56.8872 35 56.4898 34.6073 56.4898 34.0619C56.4919 33.8955 56.544 33.7339 56.6389 33.5991C56.7338 33.4644 56.8668 33.3631 57.0197 33.3092C56.9501 33.2589 56.8924 33.1931 56.8511 33.1165C56.8098 33.04 56.7859 32.9548 56.7812 32.8674C56.7851 32.7597 56.8199 32.6556 56.8812 32.5682C56.9425 32.4809 57.0276 32.4141 57.1257 32.3765C56.9575 32.2768 56.8192 32.1316 56.7257 31.9565C56.6323 31.7815 56.5873 31.5834 56.5958 31.3838C56.5872 31.2156 56.6149 31.0475 56.6768 30.8915C56.7386 30.7355 56.8331 30.5955 56.9536 30.4814C57.074 30.3674 57.2175 30.282 57.3736 30.2316C57.5298 30.1811 57.6949 30.1667 57.8571 30.1893H59.3357C59.3781 30.1893 59.3993 30.2166 59.3993 30.2657V30.5766C59.3993 30.6366 59.3675 30.6584 59.3251 30.6584H58.7368C58.851 30.7552 58.9416 30.8781 59.0014 31.0173C59.0613 31.1565 59.0886 31.3082 59.0813 31.4602C59.0813 32.1038 58.6626 32.551 57.8571 32.551H57.5815C57.3483 32.551 57.2476 32.6601 57.2476 32.791C57.2476 32.9219 57.3536 33.031 57.5815 33.031H58.3076C59.1025 33.031 59.4152 33.4401 59.4152 33.9473L59.4099 33.9582ZM64.4711 29.9112C64.4765 29.9218 64.4792 29.9336 64.4789 29.9455C64.4787 29.9575 64.4755 29.9692 64.4697 29.9795C64.4639 29.9898 64.4556 29.9985 64.4457 30.0047C64.4357 30.0108 64.4244 30.0143 64.4128 30.0148L64.0684 30.1512C64.0576 30.1555 64.0461 30.1574 64.0346 30.157C64.023 30.1565 64.0117 30.1537 64.0013 30.1486C63.9909 30.1435 63.9816 30.1362 63.974 30.1273C63.9664 30.1184 63.9606 30.1079 63.9571 30.0966C63.8984 29.909 63.7804 29.747 63.622 29.6363C63.4635 29.5256 63.2737 29.4726 63.0826 29.4857C62.5526 29.4857 62.2506 29.7421 62.2506 30.1621C62.2506 30.5821 62.4731 30.7075 63.3105 31.0566C64.1479 31.4056 64.5082 31.7765 64.5082 32.4256C64.5036 32.6122 64.4612 32.7958 64.3837 32.9646C64.3062 33.1334 64.1953 33.2837 64.0581 33.4059C63.9209 33.5281 63.7605 33.6195 63.587 33.6742C63.4136 33.7289 63.231 33.7458 63.0508 33.7237C62.7215 33.7583 62.391 33.6707 62.119 33.4767C61.8469 33.2827 61.6511 32.995 61.5669 32.6656C61.5669 32.6001 61.5669 32.5729 61.6199 32.551L61.9803 32.431C62.0492 32.431 62.0757 32.431 62.0916 32.4965C62.143 32.7115 62.2687 32.8998 62.4453 33.0263C62.6218 33.1527 62.8371 33.2087 63.0508 33.1837C63.5808 33.1837 63.9253 32.911 63.9253 32.4692C63.9253 32.0274 63.7239 31.8693 62.9554 31.5638C62.0333 31.1875 61.6835 30.8166 61.6835 30.173C61.6902 29.9949 61.7328 29.8201 61.8086 29.6599C61.8844 29.4996 61.9917 29.3572 62.1238 29.2419C62.2558 29.1265 62.4097 29.0406 62.5756 28.9896C62.7416 28.9387 62.916 28.9237 63.0879 28.9458C63.3915 28.9241 63.6934 29.0073 63.9459 29.1822C64.1984 29.357 64.3869 29.6136 64.4817 29.9112H64.4711ZM65.3244 32.5783V30.2493C65.3244 30.2003 65.3509 30.173 65.4039 30.173H65.8067C65.8597 30.173 65.8862 30.2003 65.8862 30.2493V32.4801C65.8862 32.9328 66.0823 33.1946 66.5009 33.1946C66.6928 33.1835 66.8769 33.1129 67.0292 32.9923C67.1814 32.8716 67.2947 32.7064 67.3542 32.5183V30.2493C67.3542 30.2003 67.3542 30.173 67.4337 30.173H67.8312C67.8948 30.173 67.9107 30.2003 67.9107 30.2493V33.5764C67.9107 33.6255 67.9107 33.6528 67.8365 33.6528H67.4443C67.4341 33.6548 67.4237 33.6541 67.4138 33.651C67.4039 33.6478 67.3949 33.6423 67.3876 33.6347C67.3803 33.6272 67.3749 33.618 67.3719 33.6078C67.3688 33.5977 67.3682 33.5869 67.3701 33.5764V33.1237C67.2554 33.3061 67.0985 33.4564 66.9135 33.5611C66.7285 33.6658 66.5212 33.7216 66.3101 33.7237C66.1686 33.7266 66.028 33.6979 65.8982 33.6396C65.7685 33.5813 65.6525 33.4948 65.5583 33.3859C65.4641 33.2771 65.394 33.1485 65.3527 33.0091C65.3114 32.8697 65.2999 32.7227 65.3191 32.5783H65.3244ZM71.0216 32.322V31.4929C71.0386 31.3804 71.0307 31.2654 70.9986 31.1565C70.9665 31.0476 70.911 30.9475 70.8361 30.8636C70.7613 30.7798 70.6691 30.7144 70.5663 30.6722C70.4636 30.6301 70.3529 30.6123 70.2425 30.6202C70.1311 30.6169 70.0202 30.6377 69.9169 30.6811C69.8137 30.7245 69.7204 30.7896 69.6431 30.8723C69.5657 30.955 69.506 31.0534 69.4678 31.1612C69.4296 31.269 69.4137 31.3839 69.4211 31.4984V32.3165C69.4129 32.4322 69.4284 32.5483 69.4665 32.6575C69.5046 32.7666 69.5646 32.8663 69.6425 32.9501C69.7205 33.0339 69.8146 33.0999 69.9188 33.1439C70.0231 33.1879 70.1352 33.2089 70.2478 33.2056C70.7354 33.2056 71.0269 32.9001 71.0269 32.322H71.0216ZM68.9388 34.9236C68.9296 34.9245 68.9202 34.9232 68.9115 34.9199C68.9028 34.9167 68.8949 34.9115 68.8883 34.9047C68.8817 34.898 68.8767 34.8898 68.8735 34.8808C68.8703 34.8718 68.8691 34.8623 68.8699 34.8527V30.2439C68.8699 30.1948 68.8964 30.173 68.9441 30.173H69.3363C69.3459 30.1713 69.3559 30.1718 69.3653 30.1747C69.3747 30.1776 69.3833 30.1826 69.3905 30.1895C69.3977 30.1964 69.4032 30.2048 69.4067 30.2143C69.4101 30.2237 69.4114 30.2338 69.4105 30.2439V30.6366C69.5153 30.4661 69.6611 30.3263 69.8338 30.2307C70.0065 30.1352 70.2002 30.0871 70.3962 30.0912C70.5614 30.0855 70.7259 30.1164 70.8785 30.1818C71.0311 30.2472 71.1683 30.3455 71.2808 30.4701C71.3933 30.5947 71.4786 30.7426 71.5308 30.904C71.583 31.0655 71.6009 31.2365 71.5834 31.4056V32.382C71.6014 32.5499 71.5845 32.7199 71.534 32.8807C71.4834 33.0414 71.4003 33.1893 71.2901 33.3146C71.1799 33.4399 71.0452 33.5397 70.8947 33.6074C70.7443 33.6751 70.5816 33.7091 70.4174 33.7073C70.2197 33.7174 70.023 33.672 69.8485 33.576C69.6739 33.4799 69.528 33.3368 69.4264 33.1619V34.8309C69.4272 34.8404 69.426 34.85 69.4228 34.859C69.4196 34.868 69.4146 34.8761 69.408 34.8829C69.4014 34.8897 69.3935 34.8949 69.3848 34.8981C69.3761 34.9014 69.3667 34.9027 69.3575 34.9018L68.9388 34.9236ZM74.6148 32.322V31.4929C74.6318 31.3804 74.6239 31.2654 74.5918 31.1565C74.5597 31.0476 74.5042 30.9475 74.4293 30.8636C74.3545 30.7798 74.2623 30.7144 74.1595 30.6722C74.0568 30.6301 73.9461 30.6123 73.8358 30.6202C73.7243 30.6169 73.6134 30.6377 73.5101 30.6811C73.4069 30.7245 73.3136 30.7896 73.2363 30.8723C73.1589 30.955 73.0992 31.0534 73.061 31.1612C73.0228 31.269 73.0069 31.3839 73.0143 31.4984V32.3165C73.0061 32.4317 73.0215 32.5474 73.0593 32.6561C73.0971 32.7649 73.1566 32.8643 73.234 32.948C73.3113 33.0317 73.4048 33.0979 73.5084 33.1422C73.6121 33.1866 73.7235 33.2081 73.8358 33.2056C74.3233 33.2056 74.6148 32.9001 74.6148 32.322ZM72.5267 34.9236C72.5175 34.9245 72.5082 34.9232 72.4994 34.9199C72.4907 34.9167 72.4828 34.9115 72.4762 34.9047C72.4696 34.898 72.4646 34.8898 72.4614 34.8808C72.4582 34.8718 72.457 34.8623 72.4578 34.8527V30.2439C72.4578 30.1948 72.4843 30.173 72.532 30.173H72.9242C72.9339 30.1713 72.9438 30.1718 72.9532 30.1747C72.9626 30.1776 72.9712 30.1826 72.9784 30.1895C72.9856 30.1964 72.9911 30.2048 72.9946 30.2143C72.9981 30.2237 72.9994 30.2338 72.9984 30.2439V30.6366C73.1032 30.4661 73.249 30.3263 73.4217 30.2307C73.5944 30.1352 73.7881 30.0871 73.9841 30.0912C74.1498 30.0847 74.3148 30.115 74.4681 30.18C74.6213 30.2451 74.7592 30.3432 74.8723 30.4679C74.9854 30.5926 75.0711 30.7409 75.1236 30.9027C75.1761 31.0645 75.1942 31.236 75.1766 31.4056V32.382C75.1946 32.5504 75.1777 32.7208 75.1268 32.882C75.076 33.0431 74.9924 33.1913 74.8816 33.3167C74.7708 33.442 74.6354 33.5417 74.4843 33.6091C74.3332 33.6764 74.17 33.7099 74.0053 33.7073C73.8078 33.7163 73.6116 33.6703 73.4372 33.5744C73.2628 33.4784 73.1168 33.3359 73.0143 33.1619V34.8309C73.0151 34.8404 73.0139 34.85 73.0107 34.859C73.0075 34.868 73.0025 34.8761 72.9959 34.8829C72.9893 34.8897 72.9814 34.8949 72.9727 34.8981C72.964 34.9014 72.9546 34.9027 72.9454 34.9018L72.5267 34.9236ZM76.5227 31.4875V32.3711C76.5227 32.5924 76.6081 32.8046 76.7602 32.9611C76.9123 33.1176 77.1185 33.2056 77.3336 33.2056C77.5486 33.2056 77.7549 33.1176 77.9069 32.9611C78.059 32.8046 78.1444 32.5924 78.1444 32.3711V31.4875C78.1444 31.2661 78.059 31.0539 77.9069 30.8974C77.7549 30.7409 77.5486 30.653 77.3336 30.653C77.1185 30.653 76.9123 30.7409 76.7602 30.8974C76.6081 31.0539 76.5227 31.2661 76.5227 31.4875ZM78.7009 31.4602V32.3711C78.7009 32.7443 78.5568 33.1022 78.3004 33.3661C78.044 33.63 77.6962 33.7782 77.3336 33.7782C76.9709 33.7782 76.6231 33.63 76.3667 33.3661C76.1103 33.1022 75.9662 32.7443 75.9662 32.3711V31.4766C75.9662 31.1033 76.1103 30.7454 76.3667 30.4815C76.6231 30.2176 76.9709 30.0694 77.3336 30.0694C77.6962 30.0694 78.044 30.2176 78.3004 30.4815C78.5568 30.7454 78.7009 31.1033 78.7009 31.4766V31.4602ZM81.2395 30.1893V30.5766C81.2395 30.6366 81.2395 30.6584 81.1547 30.6584H81.0858C80.8738 30.651 80.6653 30.7145 80.4914 30.8394C80.3175 30.9643 80.1876 31.1438 80.1212 31.3511V33.5655C80.1212 33.6146 80.0894 33.631 80.0523 33.631H79.6337C79.6251 33.6318 79.6165 33.6307 79.6084 33.6277C79.6003 33.6247 79.5929 33.6199 79.5869 33.6137C79.5808 33.6074 79.5761 33.5999 79.5732 33.5915C79.5703 33.5832 79.5692 33.5743 79.5701 33.5655V30.2439C79.5701 30.1893 79.5701 30.173 79.6442 30.173H80.0258C80.0788 30.173 80.1053 30.2003 80.1053 30.2493V30.7948C80.2023 30.5929 80.354 30.4242 80.5421 30.309C80.7302 30.1938 80.9466 30.1371 81.1653 30.1457C81.2448 30.1457 81.266 30.1457 81.266 30.2275L81.2395 30.1893ZM82.8559 29.3548V30.1893H83.5766C83.6296 30.1893 83.6508 30.2166 83.6508 30.2766V30.5875C83.6508 30.6475 83.6508 30.6693 83.5766 30.6693H82.8559V32.6819C82.8559 32.9928 83.0202 33.1346 83.3276 33.1346H83.5713C83.6243 33.1346 83.6508 33.1346 83.6508 33.211V33.5655C83.6508 33.6255 83.6508 33.6473 83.5713 33.6473H83.2481C83.1276 33.6653 83.0048 33.6555 82.8885 33.6187C82.7722 33.5818 82.6653 33.5189 82.5756 33.4343C82.4858 33.3498 82.4154 33.2458 82.3695 33.1298C82.3236 33.0138 82.3033 32.8888 82.31 32.7638V30.6748H81.8489C81.8065 30.6748 81.78 30.6748 81.78 30.593V30.2821C81.78 30.2221 81.8065 30.1948 81.8489 30.1948H82.3153V29.3548C82.3153 29.3112 82.3153 29.2839 82.3948 29.2839H82.7764C82.84 29.2839 82.8559 29.2839 82.8559 29.3548ZM88.9294 29.9494C88.9294 30.0148 88.9294 30.0639 88.8393 30.0912L88.2457 30.3148C88.231 30.3227 88.2147 30.3272 88.1981 30.3278C88.1815 30.3285 88.165 30.3253 88.1497 30.3185C88.1345 30.3117 88.1209 30.3014 88.11 30.2885C88.0991 30.2756 88.0911 30.2604 88.0867 30.2439C88.0369 30.1054 87.9437 29.9879 87.8219 29.9098C87.7 29.8318 87.5564 29.7978 87.4136 29.813C87.048 29.813 86.8095 29.993 86.8095 30.2657C86.8095 30.5384 86.995 30.653 87.8164 30.9475C88.6379 31.242 88.9718 31.6456 88.9718 32.3165C88.9718 33.1183 88.304 33.7292 87.3394 33.7292C86.9831 33.7735 86.6231 33.6844 86.3253 33.4781C86.0276 33.2718 85.8119 32.9621 85.7177 32.6056C85.7128 32.5916 85.7107 32.5768 85.7115 32.562C85.7123 32.5472 85.716 32.5327 85.7225 32.5194C85.7289 32.5061 85.738 32.4944 85.749 32.4848C85.76 32.4752 85.7728 32.4681 85.7866 32.4638L86.4279 32.2456C86.5127 32.2183 86.5551 32.2456 86.5763 32.3329C86.6558 32.6874 86.8996 32.8783 87.3342 32.8783C87.7687 32.8783 87.9966 32.6874 87.9966 32.4038C87.9966 32.1202 87.8323 32.022 87.1646 31.782C86.2053 31.4275 85.8396 31.0348 85.8396 30.3039C85.8535 30.1099 85.9051 29.9208 85.9912 29.7476C86.0773 29.5745 86.1962 29.4209 86.3409 29.2958C86.4857 29.1707 86.6533 29.0768 86.8339 29.0195C87.0145 28.9622 87.2044 28.9427 87.3924 28.9621C87.7215 28.9284 88.052 29.0096 88.3308 29.1926C88.6095 29.3757 88.8204 29.6499 88.9294 29.9712V29.9494ZM90.8373 29.4039V30.1893H91.4732C91.4869 30.1876 91.5007 30.189 91.5137 30.1936C91.5267 30.1982 91.5385 30.2058 91.5483 30.2158C91.558 30.2258 91.5653 30.2379 91.5698 30.2513C91.5742 30.2647 91.5757 30.2789 91.5739 30.293V30.8657C91.5748 30.8793 91.5728 30.8929 91.5679 30.9056C91.5631 30.9183 91.5556 30.9297 91.546 30.9391C91.5364 30.9485 91.5249 30.9556 91.5123 30.9598C91.4997 30.9641 91.4864 30.9655 91.4732 30.9639H90.8373V32.5183C90.8373 32.7201 90.9433 32.8347 91.1976 32.8347H91.4732C91.5368 32.8347 91.5739 32.8674 91.5739 32.9274V33.5764C91.5739 33.6419 91.5368 33.6692 91.4732 33.6692H91.0493C90.2861 33.6692 89.9257 33.2546 89.9257 32.6438V30.9475H89.5335C89.5204 30.9491 89.5071 30.9478 89.4945 30.9435C89.4819 30.9392 89.4704 30.9321 89.4608 30.9227C89.4512 30.9134 89.4437 30.9019 89.4388 30.8892C89.434 30.8765 89.432 30.8629 89.4328 30.8493V30.2766C89.4311 30.2626 89.4325 30.2483 89.437 30.2349C89.4414 30.2216 89.4488 30.2094 89.4585 30.1994C89.4682 30.1894 89.48 30.1818 89.4931 30.1772C89.5061 30.1727 89.5199 30.1712 89.5335 30.173H89.9416V29.4039C89.94 29.3911 89.9412 29.3781 89.9451 29.3658C89.949 29.3535 89.9555 29.3423 89.9641 29.3329C89.9727 29.3235 89.9832 29.3162 89.9949 29.3115C90.0066 29.3068 90.0192 29.3048 90.0317 29.3058H90.7525C90.8108 29.3058 90.8373 29.3439 90.8373 29.4039ZM94.0277 32.4692V32.142C93.8512 32.1312 93.6742 32.1312 93.4977 32.142C93.1532 32.1856 92.9678 32.2947 92.9678 32.5674C92.9678 32.8401 93.1267 32.9492 93.3917 32.9492C93.5376 32.9513 93.68 32.9037 93.7969 32.814C93.9138 32.7242 93.9986 32.5973 94.0383 32.4529L94.0277 32.4692ZM94.9446 31.2529V33.5437C94.9446 33.5564 94.9421 33.5689 94.9372 33.5805C94.9324 33.5921 94.9253 33.6026 94.9163 33.6113C94.9074 33.62 94.8968 33.6267 94.8853 33.631C94.8737 33.6353 94.8614 33.6372 94.8492 33.6364H94.1708C94.1585 33.6372 94.1462 33.6353 94.1347 33.631C94.1231 33.6267 94.1126 33.62 94.1036 33.6113C94.0947 33.6026 94.0876 33.5921 94.0827 33.5805C94.0779 33.5689 94.0754 33.5564 94.0754 33.5437V33.1674C93.9807 33.3363 93.8437 33.476 93.6787 33.5719C93.5138 33.6678 93.3268 33.7165 93.1373 33.7128C92.9953 33.7243 92.8525 33.7039 92.7189 33.6532C92.5852 33.6024 92.4638 33.5225 92.3631 33.4188C92.2623 33.3151 92.1846 33.1902 92.1353 33.0526C92.086 32.9151 92.0662 32.7681 92.0774 32.6219C92.0774 31.9838 92.4696 31.6075 93.4182 31.5311C93.6227 31.512 93.8285 31.512 94.033 31.5311V31.2802C94.042 31.2152 94.0361 31.149 94.0158 31.0868C93.9955 31.0246 93.9613 30.9682 93.9159 30.9221C93.8706 30.8759 93.8154 30.8414 93.7547 30.8212C93.6941 30.8009 93.6296 30.7956 93.5666 30.8057C93.4635 30.7913 93.3587 30.8161 93.272 30.8753C93.1852 30.9345 93.1223 31.0241 93.0949 31.1275C93.0632 31.2038 93.042 31.2202 92.9731 31.1984L92.2947 31.0238C92.2258 31.0238 92.2205 30.9639 92.2364 30.9148C92.3265 30.413 92.7664 30.0475 93.5984 30.0475C94.4305 30.0475 94.9393 30.4621 94.9393 31.2475L94.9446 31.2529ZM97.7057 30.1893V30.8711C97.7057 30.9529 97.6739 30.9802 97.5944 30.9802H97.4937C97.3001 30.9551 97.1041 31.0031 96.9423 31.1155C96.7805 31.2278 96.6638 31.3969 96.614 31.5911V33.5437C96.6155 33.5553 96.6146 33.5672 96.6112 33.5784C96.6079 33.5896 96.6023 33.6 96.5948 33.6088C96.5873 33.6176 96.578 33.6246 96.5676 33.6293C96.5571 33.6341 96.5459 33.6365 96.5345 33.6364H95.7607C95.7493 33.6365 95.738 33.6341 95.7276 33.6293C95.7172 33.6246 95.7079 33.6176 95.7004 33.6088C95.6929 33.6 95.6872 33.5896 95.6839 33.5784C95.6806 33.5672 95.6797 33.5553 95.6812 33.5437V30.2166C95.6803 30.2044 95.6821 30.1922 95.6864 30.1808C95.6906 30.1694 95.6974 30.1592 95.706 30.1508C95.7146 30.1425 95.725 30.1362 95.7363 30.1325C95.7476 30.1288 95.7596 30.1277 95.7713 30.1294H96.4762C96.4887 30.1284 96.5013 30.1304 96.513 30.1351C96.5247 30.1398 96.5352 30.1471 96.5438 30.1565C96.5524 30.1659 96.5589 30.1771 96.5628 30.1894C96.5667 30.2017 96.5679 30.2147 96.5663 30.2275V30.7348C96.6556 30.5442 96.7968 30.3845 96.9728 30.275C97.1488 30.1656 97.3518 30.1112 97.5573 30.1184C97.6792 30.1184 97.7057 30.1184 97.7057 30.2275V30.1893ZM99.5182 29.4039V30.1893H100.154C100.167 30.1884 100.181 30.1906 100.193 30.1955C100.205 30.2005 100.216 30.2082 100.226 30.2181C100.235 30.228 100.242 30.2398 100.246 30.2528C100.25 30.2657 100.251 30.2794 100.25 30.293V30.8657C100.251 30.879 100.25 30.8925 100.246 30.9053C100.242 30.918 100.235 30.9296 100.226 30.9391C100.216 30.9486 100.205 30.9558 100.193 30.9601C100.18 30.9644 100.167 30.9657 100.154 30.9639H99.5182V32.5183C99.5182 32.7201 99.6242 32.8347 99.8733 32.8347H100.154C100.167 32.833 100.179 32.8342 100.191 32.8382C100.203 32.8422 100.214 32.8489 100.223 32.8578C100.232 32.8666 100.239 32.8775 100.244 32.8895C100.249 32.9016 100.25 32.9145 100.25 32.9274V33.5764C100.25 33.6419 100.212 33.6692 100.154 33.6692H99.7249C98.9617 33.6692 98.6067 33.2546 98.6067 32.6438V30.9475H98.2092C98.1962 30.9493 98.1831 30.948 98.1707 30.9437C98.1583 30.9394 98.1471 30.9322 98.1379 30.9227C98.1286 30.9132 98.1217 30.9016 98.1175 30.8889C98.1133 30.8762 98.112 30.8626 98.1138 30.8493V30.2766C98.1122 30.2631 98.1135 30.2494 98.1177 30.2364C98.1218 30.2235 98.1287 30.2116 98.1378 30.2017C98.1469 30.1918 98.1581 30.1841 98.1704 30.1792C98.1827 30.1742 98.196 30.1721 98.2092 30.173H98.6173V29.4039C98.6155 29.3906 98.6168 29.3771 98.6209 29.3643C98.6251 29.3516 98.6321 29.34 98.6413 29.3305C98.6506 29.321 98.6618 29.3139 98.6742 29.3096C98.6865 29.3053 98.6997 29.304 98.7127 29.3058H99.4334C99.4455 29.3057 99.4575 29.3082 99.4685 29.3133C99.4796 29.3183 99.4894 29.3257 99.4975 29.335C99.5055 29.3443 99.5115 29.3553 99.5151 29.3672C99.5187 29.3791 99.5197 29.3916 99.5182 29.4039ZM103.546 30.9257C103.546 30.9802 103.546 31.0293 103.472 31.0511L102.905 31.2584C102.841 31.2584 102.809 31.2584 102.783 31.1875C102.74 31.0671 102.659 30.9648 102.554 30.8967C102.448 30.8286 102.324 30.7985 102.2 30.8111C101.908 30.8111 101.739 30.9257 101.739 31.1002C101.739 31.2747 101.861 31.3402 102.513 31.5202C103.27 31.7274 103.573 32.0656 103.573 32.611C103.573 33.2874 103.043 33.7019 102.195 33.7019C101.347 33.7019 100.901 33.391 100.727 32.8565C100.727 32.7801 100.727 32.7419 100.817 32.7038L101.315 32.4529C101.389 32.4147 101.431 32.4529 101.469 32.5292C101.523 32.6674 101.62 32.7839 101.744 32.8614C101.868 32.939 102.013 32.9736 102.157 32.9601C102.502 32.9601 102.687 32.8456 102.687 32.6547C102.687 32.4638 102.497 32.3711 101.887 32.1965C101.14 31.9947 100.827 31.6511 100.827 31.1057C100.827 30.4402 101.357 30.0148 102.152 30.0148C102.441 29.9848 102.731 30.0521 102.98 30.2065C103.228 30.3609 103.421 30.5941 103.53 30.8711L103.546 30.9257ZM109.254 29.0985V33.5492C109.254 33.6037 109.254 33.6419 109.158 33.6419H108.406C108.394 33.6426 108.381 33.6408 108.37 33.6365C108.358 33.6321 108.348 33.6254 108.339 33.6167C108.33 33.6081 108.323 33.5976 108.318 33.586C108.313 33.5743 108.31 33.5618 108.31 33.5492V31.7929H106.758V33.5601C106.759 33.573 106.757 33.5859 106.752 33.5979C106.747 33.61 106.74 33.6208 106.731 33.6297C106.722 33.6386 106.711 33.6452 106.699 33.6492C106.687 33.6532 106.675 33.6544 106.662 33.6528H105.888C105.876 33.6535 105.864 33.6517 105.852 33.6474C105.841 33.643 105.83 33.6363 105.821 33.6276C105.812 33.619 105.805 33.6085 105.8 33.5969C105.796 33.5852 105.793 33.5727 105.793 33.5601V29.0985C105.793 29.0853 105.796 29.0723 105.801 29.0603C105.806 29.0483 105.814 29.0375 105.823 29.0288C105.833 29.02 105.844 29.0134 105.856 29.0094C105.868 29.0055 105.881 29.0042 105.894 29.0058H106.662C106.675 29.0041 106.687 29.0053 106.699 29.0093C106.711 29.0133 106.722 29.02 106.731 29.0289C106.74 29.0378 106.747 29.0486 106.752 29.0606C106.757 29.0727 106.759 29.0856 106.758 29.0985V30.8657H108.31V29.0985C108.31 29.0858 108.313 29.0733 108.318 29.0617C108.323 29.0501 108.33 29.0396 108.339 29.0309C108.348 29.0222 108.358 29.0155 108.37 29.0112C108.381 29.0069 108.394 29.005 108.406 29.0058H109.174C109.243 29.0058 109.27 29.044 109.27 29.0985H109.254ZM110.891 31.4493V31.5693H112.079V31.4493C112.089 31.367 112.081 31.2835 112.055 31.2049C112.029 31.1264 111.986 31.055 111.929 30.9961C111.873 30.9372 111.804 30.8924 111.727 30.865C111.651 30.8377 111.57 30.8286 111.49 30.8384C111.409 30.8268 111.327 30.8345 111.25 30.861C111.172 30.8875 111.102 30.9321 111.044 30.9912C110.986 31.0503 110.942 31.1224 110.916 31.2019C110.889 31.2813 110.881 31.366 110.891 31.4493ZM110.891 32.1911V32.322C110.877 32.4086 110.883 32.4975 110.91 32.5811C110.936 32.6647 110.982 32.7405 111.042 32.8021C111.103 32.8637 111.178 32.9092 111.259 32.9348C111.341 32.9604 111.428 32.9654 111.511 32.9492C111.645 32.9703 111.781 32.9453 111.899 32.8782C112.017 32.8111 112.11 32.7056 112.163 32.5783C112.222 32.4801 112.248 32.4692 112.344 32.5129L112.831 32.7692C112.932 32.8183 112.937 32.8674 112.895 32.9656C112.761 33.2182 112.558 33.425 112.311 33.5606C112.065 33.6963 111.785 33.7548 111.506 33.7292C111.313 33.7557 111.116 33.7382 110.929 33.6779C110.743 33.6177 110.572 33.5161 110.428 33.3803C110.284 33.2446 110.171 33.078 110.096 32.8923C110.021 32.7067 109.987 32.5064 109.996 32.3056V31.4929C109.987 31.2935 110.02 31.0943 110.093 30.9095C110.167 30.7247 110.279 30.5586 110.421 30.423C110.563 30.2873 110.733 30.1854 110.918 30.1243C111.102 30.0632 111.298 30.0445 111.49 30.0694C111.677 30.0502 111.866 30.0729 112.044 30.1359C112.222 30.1989 112.384 30.3008 112.52 30.4344C112.656 30.5681 112.762 30.7304 112.831 30.9103C112.901 31.0902 112.931 31.2834 112.921 31.4766V32.022C112.921 32.1147 112.889 32.1802 112.757 32.1802L110.891 32.1911ZM115.608 30.1893V30.8711C115.608 30.9529 115.582 30.9802 115.497 30.9802H115.401C115.208 30.9551 115.012 31.0031 114.85 31.1155C114.688 31.2278 114.572 31.3969 114.522 31.5911V33.5437C114.522 33.5552 114.521 33.5667 114.517 33.5775C114.514 33.5884 114.508 33.5985 114.501 33.6071C114.493 33.6157 114.484 33.6227 114.474 33.6278C114.464 33.6328 114.453 33.6357 114.442 33.6364H113.663C113.652 33.6365 113.641 33.6341 113.63 33.6293C113.62 33.6246 113.61 33.6176 113.603 33.6088C113.595 33.6 113.59 33.5896 113.586 33.5784C113.583 33.5672 113.582 33.5553 113.584 33.5437V30.2166C113.583 30.2044 113.585 30.1922 113.589 30.1808C113.593 30.1694 113.6 30.1592 113.608 30.1508C113.617 30.1425 113.627 30.1362 113.639 30.1325C113.65 30.1288 113.662 30.1277 113.674 30.1294H114.379C114.453 30.1294 114.469 30.1784 114.469 30.2275V30.7348C114.558 30.5442 114.699 30.3845 114.875 30.275C115.051 30.1656 115.254 30.1112 115.46 30.1184C115.587 30.1184 115.608 30.1184 115.608 30.2275V30.1893ZM116.954 31.4493V31.5693H118.141V31.4493C118.152 31.367 118.144 31.2835 118.118 31.2049C118.092 31.1264 118.049 31.055 117.992 30.9961C117.935 30.9372 117.866 30.8924 117.79 30.865C117.714 30.8377 117.633 30.8286 117.553 30.8384C117.472 30.8268 117.39 30.8345 117.313 30.861C117.235 30.8875 117.165 30.9321 117.107 30.9912C117.049 31.0503 117.005 31.1224 116.978 31.2019C116.952 31.2813 116.944 31.366 116.954 31.4493ZM116.954 32.1911V32.322C116.94 32.4086 116.946 32.4975 116.973 32.5811C116.999 32.6647 117.044 32.7405 117.105 32.8021C117.166 32.8637 117.241 32.9092 117.322 32.9348C117.404 32.9604 117.49 32.9654 117.574 32.9492C117.708 32.9706 117.845 32.9458 117.964 32.8787C118.083 32.8117 118.177 32.706 118.232 32.5783C118.285 32.4801 118.311 32.4692 118.406 32.5129L118.894 32.7692C118.995 32.8183 119 32.8674 118.958 32.9656C118.824 33.2182 118.621 33.425 118.374 33.5606C118.127 33.6963 117.848 33.7548 117.569 33.7292C117.376 33.7539 117.181 33.7352 116.996 33.6741C116.811 33.613 116.641 33.5112 116.498 33.3757C116.355 33.2401 116.243 33.0742 116.169 32.8894C116.095 32.7045 116.061 32.5053 116.069 32.3056V31.4929C116.06 31.2935 116.093 31.0943 116.167 30.9095C116.24 30.7247 116.352 30.5586 116.494 30.423C116.637 30.2873 116.806 30.1854 116.991 30.1243C117.176 30.0632 117.371 30.0445 117.564 30.0694C117.751 30.0502 117.94 30.0729 118.117 30.1359C118.295 30.1989 118.458 30.3008 118.594 30.4344C118.729 30.5681 118.836 30.7304 118.905 30.9103C118.974 31.0902 119.005 31.2834 118.995 31.4766V32.022C118.995 32.1147 118.963 32.1802 118.83 32.1802L116.954 32.1911Z" fill="#878EA8"/>
</svg>
