<svg width="72" height="72" viewBox="0 0 72 72" fill="none" xmlns="http://www.w3.org/2000/svg">
<path d="M36 66C52.5685 66 66 52.5685 66 36C66 19.4315 52.5685 6 36 6C19.4315 6 6 19.4315 6 36C6 52.5685 19.4315 66 36 66Z" fill="#F5F5F5"/>
<path d="M17.8652 31.6441L24.3977 21.5776L25.2827 22.1521L18.7502 32.2126L17.8652 31.6441Z" fill="#263238"/>
<path d="M13.1895 43.392L14.1975 42.741L20.7195 52.8135L19.7175 53.4645L13.1895 43.392Z" fill="#263238"/>
<path d="M48.9961 20.61L49.9981 19.959L56.6371 30.1305L55.6291 30.7875L48.9961 20.61Z" fill="#263238"/>
<path d="M15.5156 30.1905L22.0481 20.124L22.9271 20.6925L16.3946 30.759L15.5156 30.1905Z" fill="#263238"/>
<path d="M50.168 27.6001L51.047 27.0256L54.071 31.6831L53.186 32.2576L50.168 27.6001Z" fill="#263238"/>
<path d="M54.6797 47.4646L57.7037 42.8071L58.5827 43.3816L55.5587 48.0346L54.6797 47.4646Z" fill="#263238"/>
<path d="M18.9551 47.265L19.8341 46.6965L22.8581 51.3495L21.9791 51.924L18.9551 47.265Z" fill="#263238"/>
<path d="M54.8379 24.6241L55.7169 24.0496L58.7574 28.6906L57.8784 29.2651L54.8379 24.6241Z" fill="#263238"/>
<path d="M50.0566 44.4285L53.0806 39.771L53.9596 40.3455L50.9356 44.9985L50.0566 44.4285Z" fill="#263238"/>
<path d="M52.4062 45.882L55.4408 41.229L56.4428 41.886L53.4128 46.539L52.4062 45.882Z" fill="#263238"/>
<path d="M46.7227 22.1521L47.6017 21.5776L50.6422 26.2186L49.7632 26.7931L46.7227 22.1521Z" fill="#263238"/>
<path d="M51.1582 52.8315L54.1522 48.156L55.0372 48.7245L52.0372 53.394L51.1582 52.8315Z" fill="#263238"/>
<path d="M15.5273 41.7975L16.5353 41.1465L19.5353 45.816L18.5273 46.467L15.5273 41.7975Z" fill="#263238"/>
<path d="M51.4004 19.1564L52.2794 18.5759L55.3259 23.2169L54.4469 23.7914L51.4004 19.1564Z" fill="#263238"/>
<path d="M46.5117 49.7549L49.5417 45.1079L50.5497 45.7649L47.5152 50.4119L46.5117 49.7549Z" fill="#263238"/>
<path d="M48.8027 51.36L51.8087 46.6965L52.8167 47.3475L49.8107 52.011L48.8027 51.36Z" fill="#263238"/>
<path d="M13.1367 28.7084L19.7817 18.5369L20.7897 19.1939L14.1447 29.3654L13.1367 28.7084Z" fill="#263238"/>
<path d="M17.7812 40.2749L18.6663 39.7004L25.1882 49.7729L24.3093 50.3474L17.7812 40.2749Z" fill="#263238"/>
<path d="M30.75 41.2229C33.636 41.2229 36 38.8589 36 35.9729C36 33.0869 38.364 30.7229 41.25 30.7229C44.136 30.7229 46.5 33.0869 46.5 35.9729C46.5 30.1994 41.7735 25.4729 36 25.4729C30.2265 25.4729 25.5 30.1994 25.5 35.9729C25.5 38.8604 27.864 41.2229 30.75 41.2229Z" fill="#F44336"/>
<path d="M41.25 30.7229C38.364 30.7229 36 33.0869 36 35.9729C36 38.8589 33.636 41.2229 30.75 41.2229C27.864 41.2229 25.5 38.8589 25.5 35.9729C25.5 41.7464 30.2265 46.4729 36 46.4729C41.7735 46.4729 46.5 41.7464 46.5 35.9729C46.5 33.0869 44.136 30.7229 41.25 30.7229Z" fill="#3949AB"/>
</svg>
