<svg width="167" height="31" viewBox="0 0 167 31" fill="none" xmlns="http://www.w3.org/2000/svg">
<path d="M25.1083 24.5067H33.7783L12.301 3.02922H3.63086L25.1083 24.5067Z" fill="#7476ED"/>
<path d="M16.7539 3.02922L37.4578 23.7331V3.02922H31.8549V9.56582L25.3183 3.02922L16.7539 3.02922Z" fill="#E56F8C"/>
<path d="M0 3.74821V24.5066H5.60282V17.97L12.1394 24.5066H20.7584L0 3.74821Z" fill="#64C2DB"/>
<path d="M61.4637 11.7511H62.9277V14.6791H61.4637V20.9448H57.794V6.11H61.4637V11.7511ZM47.8001 6.26616H56.1349V9.19408C56.1349 11.4453 55.79 13.4168 55.1004 15.1085C54.4237 16.7872 53.4672 18.0819 52.231 18.9929C51.0078 19.9038 49.5959 20.3592 47.9953 20.3592L47.6049 17.4313C48.3076 17.4313 49.0233 17.1841 49.752 16.6896C50.4938 16.1951 51.1054 15.4013 51.5869 14.3082H47.9953V11.3803H52.3286C52.4197 10.7556 52.4652 10.0269 52.4652 9.19408H47.8001V6.26616ZM74.0921 6.07096H77.7617V20.9448H74.0921V6.07096ZM70.1882 9.79918C70.1882 11.3477 70.3183 12.6816 70.5785 13.8007C70.8388 14.9068 71.1967 15.7591 71.6521 16.3577C72.1076 16.9433 72.6281 17.2686 73.2137 17.3337L72.4329 20.3592C71.7302 20.3072 71.0275 20.0534 70.3248 19.598C69.6221 19.1425 69.004 18.4723 68.4704 17.5875C67.9239 18.4723 67.2993 19.1425 66.5966 19.598C65.8939 20.0534 65.1912 20.3072 64.4885 20.3592L63.7077 17.3337C64.7487 17.2426 65.51 16.5724 65.9915 15.3232C66.486 14.0739 66.7332 12.2326 66.7332 9.79918V9.23312H64.0981V6.30519H72.8038V9.23312H70.1882V9.79918ZM84.1507 11.1851V6.30519H80.5005V14.113H93.7738V11.1851H84.1507ZM88.972 17.4313V15.089H85.3023V17.4313H80.1101V20.3592H94.1642V17.4313H88.972ZM116.058 6.26616V15.0694H102.746V6.26616H106.416V7.74964H112.389V6.26616H116.058ZM112.389 12.1415V10.6776H106.416V12.1415H112.389ZM111.237 17.4313H116.449V20.3592H102.355V17.4313H107.567V15.655H111.237V17.4313ZM128.976 6.07096V11.7511H126.634V14.6791H128.976V20.9448H132.646V6.07096H128.976ZM118.787 20.3592H127.493V17.4313H122.457V6.26616H118.787V20.3592ZM142.017 11.7121C141.301 12.6751 140.403 13.4493 139.323 14.0349C138.256 14.6205 137.072 14.9653 135.77 15.0694L134.99 12.3367C135.979 12.2716 136.857 11.9658 137.625 11.4193C138.393 10.8728 138.998 10.144 139.44 9.23312C139.896 8.3092 140.143 7.26816 140.182 6.11H143.851C143.891 7.26816 144.131 8.3092 144.574 9.23312C145.029 10.144 145.641 10.8728 146.409 11.4193C147.176 11.9658 148.055 12.2716 149.044 12.3367L148.263 15.0694C146.962 14.9653 145.771 14.6205 144.691 14.0349C143.624 13.4493 142.732 12.6751 142.017 11.7121ZM134.99 20.3592V17.4313H149.044V20.3592H134.99Z" fill="white"/>
</svg>
