<svg width="48" height="48" viewBox="0 0 48 48" fill="none" xmlns="http://www.w3.org/2000/svg">
<path d="M24 44C35.0457 44 44 35.0457 44 24C44 12.9543 35.0457 4 24 4C12.9543 4 4 12.9543 4 24C4 35.0457 12.9543 44 24 44Z" fill="#F5F5F5"/>
<path d="M11.9102 21.096L16.2652 14.385L16.8552 14.768L12.5002 21.475L11.9102 21.096Z" fill="#263238"/>
<path d="M8.79297 28.928L9.46497 28.494L13.813 35.209L13.145 35.643L8.79297 28.928Z" fill="#263238"/>
<path d="M32.6641 13.74L33.3321 13.306L37.7581 20.087L37.0861 20.525L32.6641 13.74Z" fill="#263238"/>
<path d="M10.3438 20.127L14.6988 13.416L15.2847 13.795L10.9298 20.506L10.3438 20.127Z" fill="#263238"/>
<path d="M33.4453 18.4L34.0313 18.017L36.0473 21.122L35.4573 21.505L33.4453 18.4Z" fill="#263238"/>
<path d="M36.4531 31.643L38.4691 28.538L39.0551 28.921L37.0391 32.023L36.4531 31.643Z" fill="#263238"/>
<path d="M12.6367 31.51L13.2227 31.131L15.2387 34.233L14.6527 34.616L12.6367 31.51Z" fill="#263238"/>
<path d="M36.5586 16.416L37.1446 16.033L39.1716 19.127L38.5856 19.51L36.5586 16.416Z" fill="#263238"/>
<path d="M33.3711 29.619L35.3871 26.514L35.9731 26.897L33.9571 29.999L33.3711 29.619Z" fill="#263238"/>
<path d="M34.9375 30.588L36.9605 27.486L37.6285 27.924L35.6085 31.026L34.9375 30.588Z" fill="#263238"/>
<path d="M31.1484 14.768L31.7344 14.385L33.7614 17.479L33.1754 17.862L31.1484 14.768Z" fill="#263238"/>
<path d="M34.1055 35.221L36.1015 32.104L36.6915 32.483L34.6915 35.596L34.1055 35.221Z" fill="#263238"/>
<path d="M10.3516 27.865L11.0236 27.431L13.0236 30.544L12.3516 30.978L10.3516 27.865Z" fill="#263238"/>
<path d="M34.2656 12.771L34.8516 12.384L36.8826 15.478L36.2966 15.861L34.2656 12.771Z" fill="#263238"/>
<path d="M31.0078 33.17L33.0278 30.072L33.6998 30.51L31.6768 33.608L31.0078 33.17Z" fill="#263238"/>
<path d="M32.5352 34.24L34.5392 31.131L35.2112 31.565L33.2072 34.674L32.5352 34.24Z" fill="#263238"/>
<path d="M8.75781 19.139L13.1878 12.358L13.8598 12.796L9.42981 19.577L8.75781 19.139Z" fill="#263238"/>
<path d="M11.8555 26.85L12.4455 26.467L16.7935 33.182L16.2075 33.565L11.8555 26.85Z" fill="#263238"/>
<path d="M20.5 27.482C22.424 27.482 24 25.906 24 23.982C24 22.058 25.576 20.482 27.5 20.482C29.424 20.482 31 22.058 31 23.982C31 20.133 27.849 16.982 24 16.982C20.151 16.982 17 20.133 17 23.982C17 25.907 18.576 27.482 20.5 27.482Z" fill="#F44336"/>
<path d="M27.5 20.482C25.576 20.482 24 22.058 24 23.982C24 25.906 22.424 27.482 20.5 27.482C18.576 27.482 17 25.906 17 23.982C17 27.831 20.151 30.982 24 30.982C27.849 30.982 31 27.831 31 23.982C31 22.058 29.424 20.482 27.5 20.482Z" fill="#3949AB"/>
</svg>
