<svg width="20" height="21" viewBox="0 0 20 21" fill="none" xmlns="http://www.w3.org/2000/svg">
<path d="M15.7844 2.271H4.21036C2.80666 2.271 1.66406 3.41359 1.66406 4.81729V16.3914C1.66406 17.7951 2.80666 18.9377 4.21036 18.9377H15.7844C17.1881 18.9377 18.3307 17.7951 18.3307 16.3914V4.81729C18.3307 3.41359 17.1881 2.271 15.7844 2.271ZM15.3497 8.08627L8.86823 14.5678C8.73258 14.7034 8.5548 14.771 8.37703 14.771C8.19925 14.771 8.02147 14.7034 7.88582 14.5678L5.10804 11.79C4.83675 11.5187 4.83675 11.0793 5.10804 10.808C5.37934 10.5367 5.81869 10.5367 6.08999 10.808L8.37656 13.0946L14.3668 7.10433C14.6381 6.83303 15.0775 6.83303 15.3488 7.10433C15.6201 7.37563 15.6205 7.81498 15.3497 8.08627Z" fill="#FF4A51"/>
</svg>
